<svg xmlns="http://www.w3.org/2000/svg" xmlns:xlink="http://www.w3.org/1999/xlink" viewBox="0 0 1500 2453"><defs><style>.cls-1,.cls-16,.cls-4{fill:none;}.cls-2{fill:#231f20;}.cls-3{isolation:isolate;}.cls-13,.cls-4,.cls-6{mix-blend-mode:screen;}.cls-5{fill:url(#_10_dpi_50_);}.cls-13,.cls-7{fill:#ff931e;}.cls-8{fill:#fff;}.cls-9{fill:#e1f1fe;}.cls-10{fill:#06c;}.cls-11{fill:#0e0029;}.cls-12{fill:#8cb7ba;}.cls-14{fill:#ffb56b;}.cls-15{fill:#ff7c6b;}.cls-16{stroke:#fffeb9;stroke-miterlimit:10;}.cls-17{fill:#bdccd4;}.cls-18{fill:#8da9f5;}.cls-19{fill:#d9cca9;}.cls-20{fill:#ff7bac;}.cls-21{fill:aqua;}.cls-22{fill:#f9e7b8;}.cls-23{fill:#ff9c6b;}</style><pattern id="_10_dpi_50_" data-name="10 dpi 50%" width="28.8" height="28.8" patternUnits="userSpaceOnUse" viewBox="0 0 28.8 28.8"><rect class="cls-1" width="28.8" height="28.8"/><path class="cls-2" d="M28.8,32.4a3.6,3.6,0,1,0-3.6-3.6A3.6,3.6,0,0,0,28.8,32.4Z"/><path class="cls-2" d="M14.4,32.4a3.6,3.6,0,1,0-3.6-3.6A3.6,3.6,0,0,0,14.4,32.4Z"/><circle class="cls-2" cx="28.8" cy="14.4" r="3.6"/><path class="cls-2" d="M14.4,18a3.6,3.6,0,1,0-3.6-3.6A3.6,3.6,0,0,0,14.4,18Z"/><path class="cls-2" d="M7.2,25.2a3.6,3.6,0,1,0-3.6-3.6A3.6,3.6,0,0,0,7.2,25.2Z"/><path class="cls-2" d="M21.6,25.2A3.6,3.6,0,1,0,18,21.6,3.6,3.6,0,0,0,21.6,25.2Z"/><path class="cls-2" d="M7.2,10.8A3.6,3.6,0,1,0,3.6,7.2,3.6,3.6,0,0,0,7.2,10.8Z"/><path class="cls-2" d="M21.6,10.8A3.6,3.6,0,1,0,18,7.2,3.6,3.6,0,0,0,21.6,10.8Z"/><path class="cls-2" d="M0,32.4a3.6,3.6,0,0,0,0-7.2,3.6,3.6,0,0,0-3.6,3.6A3.6,3.6,0,0,0,0,32.4Z"/><circle class="cls-2" cy="14.4" r="3.6"/><path class="cls-2" d="M28.8,3.6A3.6,3.6,0,0,0,32.4,0a3.6,3.6,0,0,0-3.6-3.6A3.6,3.6,0,0,0,25.2,0,3.6,3.6,0,0,0,28.8,3.6Z"/><path class="cls-2" d="M14.4,3.6A3.6,3.6,0,0,0,18,0a3.6,3.6,0,0,0-3.6-3.6A3.6,3.6,0,0,0,10.8,0,3.6,3.6,0,0,0,14.4,3.6Z"/><path class="cls-2" d="M0,3.6A3.6,3.6,0,0,0,3.6,0,3.6,3.6,0,0,0,0-3.6,3.6,3.6,0,0,0-3.6,0,3.6,3.6,0,0,0,0,3.6Z"/></pattern></defs><g class="cls-3"><g id="Layer_2" data-name="Layer 2"><g id="Layer_1-2" data-name="Layer 1"><rect class="cls-4" width="1500" height="2453"/><path class="cls-5" d="M883.58,164.9c64.37,258.77-41.2,559.68-3.29,582.48s90.14,1,123.64-12.65S863.49,852.48,790.27,798.62,321.42,441.67,332.05,308.48,819.2-93.88,883.58,164.9Z"/><g class="cls-6"><path class="cls-7" d="M893.58,158.9c64.37,258.77-41.2,559.68-3.29,582.48s90.14,1,123.64-12.65S873.49,846.48,800.27,792.62,331.42,435.67,342.05,302.48,829.2-99.88,893.58,158.9Z"/></g><rect x="451.56" y="233" width="436.44" height="276.15" rx="68.3"/><path class="cls-8" d="M497.19,292.68V274.9h2.6v17.78Zm.52-7.66v-2.38h10.53V285Zm8.39,7.66V274.9h2.6v17.78Z"/><path class="cls-8" d="M519.12,292.93a7.23,7.23,0,0,1-5.24-1.78A6.81,6.81,0,0,1,512,286,7.44,7.44,0,0,1,513.6,281a5.53,5.53,0,0,1,4.42-1.8,5.31,5.31,0,0,1,4.16,1.63,6.82,6.82,0,0,1,1.47,4.73c0,.61,0,1.18-.07,1.7h-9.32v-2h7a4,4,0,0,0-.85-2.74,3,3,0,0,0-2.36-1,3.18,3.18,0,0,0-2.62,1.15,5.06,5.06,0,0,0-.93,3.26,4.55,4.55,0,0,0,1.28,3.5,5.15,5.15,0,0,0,3.65,1.2,14.7,14.7,0,0,0,1.63-.09c.53-.06,1.07-.15,1.62-.26l.33,2.33a17.34,17.34,0,0,1-2.15.29C520.2,292.91,519.62,292.93,519.12,292.93Z"/><path class="cls-8" d="M526.7,276.23V273.9h4.14v2.33Zm8.27,16.7a4.07,4.07,0,0,1-3.33-1.25,6.28,6.28,0,0,1-1-4V273.9h2.65v13.65a6.16,6.16,0,0,0,.2,1.71,1.62,1.62,0,0,0,.79,1,3.72,3.72,0,0,0,1.72.31,10,10,0,0,0,2.65-.47l.3,2.32a13.4,13.4,0,0,1-1.94.4A14.25,14.25,0,0,1,535,292.93Z"/><path class="cls-8" d="M541.73,276.23V273.9h4.13v2.33Zm8.26,16.7a4.07,4.07,0,0,1-3.33-1.25,6.28,6.28,0,0,1-1-4V273.9h2.66v13.65a5.81,5.81,0,0,0,.2,1.71,1.57,1.57,0,0,0,.78,1,3.72,3.72,0,0,0,1.72.31,10,10,0,0,0,2.65-.47l.3,2.32a13.4,13.4,0,0,1-1.94.4A14,14,0,0,1,550,292.93Z"/><path class="cls-8" d="M563,292.93a5.32,5.32,0,0,1-4.28-1.8,9.22,9.22,0,0,1,0-10.17,6,6,0,0,1,8.57,0,9.27,9.27,0,0,1,0,10.17A5.3,5.3,0,0,1,563,292.93Zm0-2.38a2.57,2.57,0,0,0,2.26-1.17,7.35,7.35,0,0,0,0-6.67,2.77,2.77,0,0,0-4.52,0,7.43,7.43,0,0,0,0,6.67A2.58,2.58,0,0,0,563,290.55Z"/><path class="cls-8" d="M592.05,292.93c-1,0-1.86,0-2.57-.09a13.32,13.32,0,0,1-2-.29l.3-2.4c.88.13,1.65.23,2.32.3a18.4,18.4,0,0,0,1.91.1,8,8,0,0,0,2.92-.39,1.32,1.32,0,0,0,.91-1.26,1.19,1.19,0,0,0-.32-.9,2.3,2.3,0,0,0-1-.45l-3.06-.78a7.67,7.67,0,0,1-2.88-1.24,2.71,2.71,0,0,1-.92-2.24,3.38,3.38,0,0,1,1.67-3.15,11.16,11.16,0,0,1,5.39-1q1,0,1.8.06c.55,0,1.12.1,1.7.19l-.27,2.3c-.68-.06-1.27-.11-1.79-.13s-1,0-1.52,0a10,10,0,0,0-3.23.38,1.31,1.31,0,0,0-1,1.25.9.9,0,0,0,.42.83,4.46,4.46,0,0,0,1.26.47l2.45.6a7.18,7.18,0,0,1,3.06,1.34,3,3,0,0,1,1,2.44,3.39,3.39,0,0,1-1.56,3.11A9.84,9.84,0,0,1,592.05,292.93Z"/><path class="cls-8" d="M601.46,281.74v-2.33h12v2.33Zm3.33,4.68v-11h2.66v11Zm5.71,6.51a6.31,6.31,0,0,1-4.36-1.25,5.25,5.25,0,0,1-1.35-4v-2.25h2.66v2.13a3,3,0,0,0,.77,2.29,3.69,3.69,0,0,0,2.53.71,12.5,12.5,0,0,0,1.33-.07c.47,0,1-.1,1.6-.18l.3,2.33c-.58.1-1.15.17-1.71.22S611.13,292.93,610.5,292.93Z"/><path class="cls-8" d="M616.61,292.68v-2.33h8.86v2.33Zm.5-10.94v-2.33h4.43l.25,2.33Zm2.46,10.94V279.41h2.15l.5,3.81v9.46Zm2.65-5.71-.78-4.15h1q.22-3.66,3.66-3.66a3.53,3.53,0,0,1,3,1.18,6.15,6.15,0,0,1,.93,3.8H627.4a3.84,3.84,0,0,0-.43-2.09,1.58,1.58,0,0,0-1.4-.64,2.74,2.74,0,0,0-2.52,1.45A8.36,8.36,0,0,0,622.22,287Z"/><path class="cls-8" d="M636.19,292.93a4.7,4.7,0,0,1-3.22-1,3.57,3.57,0,0,1-1.14-2.83,3.75,3.75,0,0,1,1.57-3.23,7.55,7.55,0,0,1,4.44-1.13,13.36,13.36,0,0,1,2.12.15,7.3,7.3,0,0,1,1.66.43l-.55,1.8a9.48,9.48,0,0,0-1.64-.22c-.53,0-1.08,0-1.64,0q-3.45,0-3.45,2.1a1.66,1.66,0,0,0,.59,1.36,2.7,2.7,0,0,0,1.69.47,4.6,4.6,0,0,0,2.07-.42,3.1,3.1,0,0,0,1.24-1.09,2.53,2.53,0,0,0,.42-1.37v-1.45l.77,3.41h-1l.43-.4a3.29,3.29,0,0,1-.54,1.92,3.22,3.22,0,0,1-1.49,1.15A6.25,6.25,0,0,1,636.19,292.93Zm4.68-.13-.17-3.93-.35-1.1v-3.43a2.15,2.15,0,0,0-.94-1.94,5.19,5.19,0,0,0-2.77-.67l-3.18-.09.25-2.35,2.68,0a7.64,7.64,0,0,1,4.89,1.42,5,5,0,0,1,1.59,4v5.54l2.26.27v2.13Z"/><path class="cls-8" d="M647.76,292.68V279.41h2.4l.25,2.8v10.47Zm8.16,0V284a2.54,2.54,0,0,0-.63-1.85,2.32,2.32,0,0,0-1.75-.65q-3.13,0-3.13,3.68l-.78-3.41h1a2.65,2.65,0,0,1,1-2,4.11,4.11,0,0,1,2.53-.66,4.16,4.16,0,0,1,3.25,1.28,5.17,5.17,0,0,1,1.15,3.6v8.64Z"/><path class="cls-8" d="M667.17,292.93a4.71,4.71,0,0,1-3.95-1.72,8.08,8.08,0,0,1-1.34-5,8.62,8.62,0,0,1,1.34-5.23,4.65,4.65,0,0,1,3.95-1.78,4.16,4.16,0,0,1,2.52.7,2.77,2.77,0,0,1,1.13,1.95h1l-.9,3.78a5.08,5.08,0,0,0-.81-3.11,2.79,2.79,0,0,0-2.37-1.07,2.74,2.74,0,0,0-2.43,1.21,6.27,6.27,0,0,0-.82,3.55,5.72,5.72,0,0,0,.82,3.37,3.16,3.16,0,0,0,4.8.07,5.08,5.08,0,0,0,.81-3.11l.9,3.78h-1.15a2.66,2.66,0,0,1-1.06,2A4,4,0,0,1,667.17,292.93ZM663,298.66l-.12-2.43,4.25-.12A3.83,3.83,0,0,0,670,295a4.68,4.68,0,0,0,.93-3.1v-9.69l.25-2.8h2.4V291.5c0,2.36-.53,4.11-1.61,5.24s-2.79,1.72-5.15,1.8Z"/><path class="cls-8" d="M684.36,292.93a7.23,7.23,0,0,1-5.24-1.78,6.81,6.81,0,0,1-1.85-5.13,7.49,7.49,0,0,1,1.57-5.06,5.54,5.54,0,0,1,4.42-1.8,5.31,5.31,0,0,1,4.16,1.63,6.82,6.82,0,0,1,1.47,4.73c0,.61,0,1.18-.07,1.7H679.5v-2h7a4,4,0,0,0-.85-2.74,3,3,0,0,0-2.36-1,3.18,3.18,0,0,0-2.62,1.15,5.06,5.06,0,0,0-.93,3.26,4.58,4.58,0,0,0,1.28,3.5,5.15,5.15,0,0,0,3.65,1.2,14.7,14.7,0,0,0,1.63-.09c.53-.06,1.07-.15,1.63-.26l.32,2.33a17.1,17.1,0,0,1-2.15.29C685.44,292.91,684.86,292.93,684.36,292.93Z"/><path class="cls-8" d="M691.72,292.68v-2.33h8.86v2.33Zm.5-10.94v-2.33h4.43l.25,2.33Zm2.45,10.94V279.41h2.16l.5,3.81v9.46Zm2.66-5.71-.78-4.15h1q.23-3.66,3.65-3.66a3.54,3.54,0,0,1,3,1.18,6.15,6.15,0,0,1,.93,3.8h-2.63a3.84,3.84,0,0,0-.43-2.09,1.58,1.58,0,0,0-1.4-.64,2.74,2.74,0,0,0-2.52,1.45A8.36,8.36,0,0,0,697.33,287Z"/><path class="cls-8" d="M712.22,292.93c-1,0-1.85,0-2.57-.09a13.74,13.74,0,0,1-2-.29l.3-2.4c.88.13,1.65.23,2.33.3a18.22,18.22,0,0,0,1.9.1,8,8,0,0,0,2.93-.39,1.33,1.33,0,0,0,.91-1.26,1.19,1.19,0,0,0-.32-.9,2.34,2.34,0,0,0-1-.45l-3-.78a7.8,7.8,0,0,1-2.89-1.24,2.71,2.71,0,0,1-.92-2.24,3.38,3.38,0,0,1,1.67-3.15,11.19,11.19,0,0,1,5.39-1q1,0,1.8.06c.55,0,1.12.1,1.71.19l-.28,2.3c-.67-.06-1.27-.11-1.79-.13s-1,0-1.51,0a10,10,0,0,0-3.23.38,1.3,1.3,0,0,0-1,1.25.91.91,0,0,0,.41.83,4.67,4.67,0,0,0,1.27.47l2.45.6a7.3,7.3,0,0,1,3.06,1.34,3,3,0,0,1,1,2.44,3.37,3.37,0,0,1-1.57,3.11A9.82,9.82,0,0,1,712.22,292.93Z"/><path class="cls-8" d="M728.27,292.93a1.84,1.84,0,1,1,1.32-.54A1.81,1.81,0,0,1,728.27,292.93Zm-1.22-6L727,274.78h2.6L729.45,287Z"/><path class="cls-8" d="M752.91,277.28V274.9h10.81v2.38Zm0,15.4V290.3h10.81v2.38Zm4.09,0V274.9h2.6v17.78Z"/><path class="cls-8" d="M773,284.29l-1.88-1.65.75-.81a5.83,5.83,0,0,0,1.09-1.58,3.81,3.81,0,0,0,.36-1.57,1.33,1.33,0,0,0-.45-1.09,2.11,2.11,0,0,0-1.35-.37h-.56V274.9h.94a4.15,4.15,0,0,1,3,1,3.72,3.72,0,0,1,1,2.82,6,6,0,0,1-.54,2.39,9,9,0,0,1-1.65,2.46Z"/><path class="cls-8" d="M782.25,292.68V279.41h2.35l.3,2.8v10.47Zm5,0V282.29c0-.75-.35-1.13-1.05-1.13s-1.28.6-1.28,1.81l-.77-1.91H785c.1-1.27.86-1.9,2.28-1.9a2,2,0,0,1,1.63.71,3.32,3.32,0,0,1,.6,2.17v10.64Zm4.58,0V282.54q0-1.38-1-1.38c-.87,0-1.3.6-1.3,1.81l-.91-1.91h1a2.12,2.12,0,0,1,.62-1.34,2.19,2.19,0,0,1,1.61-.56,2.49,2.49,0,0,1,2,.74,3.66,3.66,0,0,1,.63,2.39v10.39Z"/><path class="cls-8" d="M496.84,323.44V310.18h2.35l.3,2.8v10.46Zm5,0V313.05c0-.75-.35-1.12-1.05-1.12s-1.28.6-1.28,1.8l-.78-1.9h.85c.11-1.27.86-1.9,2.28-1.9a2,2,0,0,1,1.64.71,3.35,3.35,0,0,1,.59,2.16v10.64Zm4.58,0V313.31c0-.92-.34-1.38-1-1.38-.86,0-1.3.6-1.3,1.8l-.9-1.9h1a2,2,0,0,1,.62-1.34,2.12,2.12,0,0,1,1.6-.56,2.51,2.51,0,0,1,2,.73,3.68,3.68,0,0,1,.62,2.39v10.39Z"/><path class="cls-8" d="M519.12,323.7a7.24,7.24,0,0,1-5.24-1.79,6.8,6.8,0,0,1-1.85-5.12,7.44,7.44,0,0,1,1.57-5.06,5.53,5.53,0,0,1,4.42-1.8,5.34,5.34,0,0,1,4.16,1.62,6.84,6.84,0,0,1,1.47,4.73c0,.61,0,1.18-.07,1.71h-9.32v-2h7a4.06,4.06,0,0,0-.85-2.75,3,3,0,0,0-2.36-1,3.19,3.19,0,0,0-2.62,1.16,5,5,0,0,0-.93,3.25,4.57,4.57,0,0,0,1.28,3.51,5.15,5.15,0,0,0,3.65,1.2,12.63,12.63,0,0,0,1.63-.1c.53-.06,1.07-.15,1.62-.25l.33,2.32a15.63,15.63,0,0,1-2.15.29C520.2,323.67,519.62,323.7,519.12,323.7Z"/><path class="cls-8" d="M534.14,323.7a7.24,7.24,0,0,1-5.24-1.79,6.8,6.8,0,0,1-1.84-5.12,7.49,7.49,0,0,1,1.56-5.06,5.54,5.54,0,0,1,4.42-1.8,5.34,5.34,0,0,1,4.16,1.62,6.84,6.84,0,0,1,1.47,4.73c0,.61,0,1.18-.07,1.71h-9.32v-2h7a4.06,4.06,0,0,0-.85-2.75,3,3,0,0,0-2.36-1,3.19,3.19,0,0,0-2.62,1.16,5,5,0,0,0-.93,3.25,4.61,4.61,0,0,0,1.28,3.51,5.15,5.15,0,0,0,3.65,1.2,12.63,12.63,0,0,0,1.63-.1c.53-.06,1.08-.15,1.63-.25l.32,2.32a15.43,15.43,0,0,1-2.15.29C535.22,323.67,534.64,323.7,534.14,323.7Z"/><path class="cls-8" d="M547,323.7c-1,0-1.85,0-2.57-.09a15.33,15.33,0,0,1-2-.29l.3-2.4c.88.13,1.65.23,2.33.3s1.3.1,1.9.1a7.76,7.76,0,0,0,2.93-.4,1.31,1.31,0,0,0,.9-1.26,1.16,1.16,0,0,0-.31-.89,2.23,2.23,0,0,0-1-.46l-3-.77a8,8,0,0,1-2.89-1.24,2.72,2.72,0,0,1-.92-2.24,3.38,3.38,0,0,1,1.67-3.16,11.21,11.21,0,0,1,5.39-1c.65,0,1.24,0,1.8.05s1.12.1,1.71.2l-.28,2.3c-.67-.07-1.27-.11-1.79-.14s-1,0-1.51,0a9.65,9.65,0,0,0-3.23.39,1.29,1.29,0,0,0-1,1.24.89.89,0,0,0,.41.83,4.72,4.72,0,0,0,1.26.47l2.46.6a7.43,7.43,0,0,1,3.06,1.34,3.05,3.05,0,0,1,1,2.44,3.39,3.39,0,0,1-1.57,3.12A9.92,9.92,0,0,1,547,323.7Z"/><path class="cls-8" d="M564.31,323.7a7.24,7.24,0,0,1-5.24-1.79,6.8,6.8,0,0,1-1.85-5.12,7,7,0,0,1,1.75-5.06,6.63,6.63,0,0,1,5-1.8,7.11,7.11,0,0,1,3.32.72,4.09,4.09,0,0,1,2,2l-2,1.54a4,4,0,0,0-1.44-1.42,3.81,3.81,0,0,0-1.91-.5,3.75,3.75,0,0,0-2.92,1.14,5.51,5.51,0,0,0,.18,6.68,4.79,4.79,0,0,0,3.49,1.2c.62,0,1.24,0,1.85-.09s1.22-.14,1.81-.24l.3,2.33a14.76,14.76,0,0,1-2.13.3C565.71,323.67,565,323.7,564.31,323.7Z"/><path class="cls-8" d="M578.05,323.7a5.32,5.32,0,0,1-4.28-1.81,9.27,9.27,0,0,1,0-10.17,6,6,0,0,1,8.57,0,9.27,9.27,0,0,1,0,10.17A5.3,5.3,0,0,1,578.05,323.7Zm0-2.38a2.58,2.58,0,0,0,2.26-1.18,7.35,7.35,0,0,0,0-6.67,2.76,2.76,0,0,0-4.51,0,7.35,7.35,0,0,0,0,6.67A2.57,2.57,0,0,0,578.05,321.32Z"/><path class="cls-8" d="M593.08,323.7a5.3,5.3,0,0,1-4.28-1.81,9.22,9.22,0,0,1,0-10.17,6,6,0,0,1,8.56,0,9.22,9.22,0,0,1,0,10.17A5.3,5.3,0,0,1,593.08,323.7Zm0-2.38a2.59,2.59,0,0,0,2.26-1.18,7.43,7.43,0,0,0,0-6.67,2.77,2.77,0,0,0-4.52,0,7.35,7.35,0,0,0,0,6.67A2.58,2.58,0,0,0,593.08,321.32Z"/><path class="cls-8" d="M601.81,307v-2.33H606V307Zm8.27,16.7a4,4,0,0,1-3.33-1.26,6.25,6.25,0,0,1-1-4V304.67h2.65v13.64a6.29,6.29,0,0,0,.2,1.72,1.57,1.57,0,0,0,.79,1,3.7,3.7,0,0,0,1.72.32,9.69,9.69,0,0,0,2.65-.48l.3,2.33a14.89,14.89,0,0,1-1.94.4A15.91,15.91,0,0,1,610.08,323.7Z"/><path class="cls-8" d="M620.77,328.9l1-8.63h2.9l-1.5,8.63Z"/><path class="cls-8" d="M647.76,308.05v-2.38h10.81v2.38Zm0,15.39v-2.37h10.81v2.37Zm4.09,0V305.67h2.6v17.77Z"/><path class="cls-8" d="M667.8,315.06l-1.88-1.65.75-.82a5.68,5.68,0,0,0,1.09-1.58,3.76,3.76,0,0,0,.36-1.56,1.35,1.35,0,0,0-.45-1.1,2.17,2.17,0,0,0-1.35-.37h-.56v-2.31h.94a4.15,4.15,0,0,1,3,1,3.72,3.72,0,0,1,1,2.82,6,6,0,0,1-.54,2.38,9,9,0,0,1-1.65,2.46Z"/><path class="cls-8" d="M677.1,323.44V310.18h2.35l.3,2.8v10.46Zm5,0V313.05c0-.75-.35-1.12-1.05-1.12s-1.28.6-1.28,1.8l-.77-1.9h.85c.1-1.27.86-1.9,2.28-1.9a2,2,0,0,1,1.63.71,3.3,3.3,0,0,1,.59,2.16v10.64Zm4.58,0V313.31q0-1.38-1-1.38c-.87,0-1.31.6-1.31,1.8l-.9-1.9h1a2.07,2.07,0,0,1,.62-1.34,2.15,2.15,0,0,1,1.61-.56,2.49,2.49,0,0,1,2,.73,3.68,3.68,0,0,1,.63,2.39v10.39Z"/><path class="cls-8" d="M707.34,323.44V305.67h2.51v17.77Zm4.76-7.26-1.93-7.36h-.72v-3.15h1.77l1.93,7.64h.1l.25,2.87Zm.73,0,.37-2.87h.15l1.93-7.64h1.78v3.15h-.73l-1.93,7.36Zm3.83,7.26V305.67h2.5v17.77Z"/><path class="cls-8" d="M726.32,323.7a4.71,4.71,0,0,1-3.22-1,3.56,3.56,0,0,1-1.14-2.83,3.76,3.76,0,0,1,1.57-3.23,7.55,7.55,0,0,1,4.44-1.12,14.87,14.87,0,0,1,2.12.14,7.86,7.86,0,0,1,1.66.43l-.55,1.81a8.6,8.6,0,0,0-1.64-.22c-.53,0-1.08,0-1.64,0q-3.45,0-3.45,2.1a1.65,1.65,0,0,0,.59,1.35,2.64,2.64,0,0,0,1.69.48,4.47,4.47,0,0,0,2.07-.43,3,3,0,0,0,1.24-1.09,2.49,2.49,0,0,0,.42-1.36v-1.45l.77,3.4h-1l.43-.4a3.25,3.25,0,0,1-.54,1.92,3.15,3.15,0,0,1-1.49,1.15A6,6,0,0,1,726.32,323.7Zm4.68-.13-.17-3.93-.35-1.1v-3.43a2.15,2.15,0,0,0-.94-1.95,5.29,5.29,0,0,0-2.77-.67l-3.18-.09.25-2.35,2.68,0a7.52,7.52,0,0,1,4.89,1.42,5,5,0,0,1,1.59,4V321l2.26.28v2.12Z"/><path class="cls-8" d="M736.78,323.44v-2.32h8.87v2.32Zm.51-10.94v-2.32h4.43l.25,2.32Zm2.45,10.94V310.18h2.15l.5,3.8v9.46Zm2.65-5.7-.77-4.16h1c.15-2.44,1.37-3.65,3.66-3.65a3.57,3.57,0,0,1,3,1.17,6.19,6.19,0,0,1,.92,3.81h-2.62a3.8,3.8,0,0,0-.44-2.09,1.54,1.54,0,0,0-1.39-.64,2.71,2.71,0,0,0-2.52,1.44A8.31,8.31,0,0,0,742.39,317.74Z"/><path class="cls-8" d="M759.59,323.7a7.24,7.24,0,0,1-5.24-1.79,6.8,6.8,0,0,1-1.84-5.12,7,7,0,0,1,1.74-5.06,6.65,6.65,0,0,1,5-1.8,7.15,7.15,0,0,1,3.33.72,4.17,4.17,0,0,1,2,2l-2,1.54a4.16,4.16,0,0,0-1.44-1.42,3.87,3.87,0,0,0-1.92-.5,3.77,3.77,0,0,0-2.92,1.14,5.53,5.53,0,0,0,.19,6.68,4.74,4.74,0,0,0,3.48,1.2q.93,0,1.86-.09t1.8-.24l.3,2.33a14.63,14.63,0,0,1-2.12.3C761,323.67,760.29,323.7,759.59,323.7Z"/><path class="cls-8" d="M774.49,323.7a7.24,7.24,0,0,1-5.24-1.79,6.8,6.8,0,0,1-1.85-5.12,7.44,7.44,0,0,1,1.57-5.06,5.53,5.53,0,0,1,4.42-1.8,5.34,5.34,0,0,1,4.16,1.62,6.84,6.84,0,0,1,1.47,4.73c0,.61,0,1.18-.07,1.71h-9.32v-2h7a4.06,4.06,0,0,0-.85-2.75,3,3,0,0,0-2.36-1,3.19,3.19,0,0,0-2.62,1.16,5,5,0,0,0-.93,3.25,4.57,4.57,0,0,0,1.28,3.51,5.15,5.15,0,0,0,3.65,1.2,12.63,12.63,0,0,0,1.63-.1c.53-.06,1.07-.15,1.62-.25l.33,2.32a15.63,15.63,0,0,1-2.15.29C775.57,323.67,775,323.7,774.49,323.7Z"/><path class="cls-8" d="M782.07,307v-2.33h4.14V307Zm8.27,16.7a4,4,0,0,1-3.33-1.26,6.25,6.25,0,0,1-1-4V304.67h2.65v13.64a6.29,6.29,0,0,0,.2,1.72,1.57,1.57,0,0,0,.79,1,3.67,3.67,0,0,0,1.72.32,9.69,9.69,0,0,0,2.65-.48l.3,2.33a14.89,14.89,0,0,1-1.94.4A15.91,15.91,0,0,1,790.34,323.7Z"/><path class="cls-8" d="M801.43,323.7a4.71,4.71,0,0,1-3.22-1,3.56,3.56,0,0,1-1.14-2.83,3.74,3.74,0,0,1,1.57-3.23,7.55,7.55,0,0,1,4.44-1.12,14.87,14.87,0,0,1,2.12.14,8,8,0,0,1,1.66.43l-.55,1.81a8.71,8.71,0,0,0-1.64-.22c-.54,0-1.08,0-1.64,0-2.3,0-3.46.7-3.46,2.1a1.63,1.63,0,0,0,.6,1.35,2.62,2.62,0,0,0,1.68.48,4.41,4.41,0,0,0,2.07-.43,3.06,3.06,0,0,0,1.25-1.09,2.48,2.48,0,0,0,.41-1.36v-1.45l.78,3.4h-1.05l.42-.4a3.25,3.25,0,0,1-.53,1.92,3.15,3.15,0,0,1-1.49,1.15A6.12,6.12,0,0,1,801.43,323.7Zm4.68-.13-.18-3.93-.35-1.1v-3.43a2.17,2.17,0,0,0-.93-1.95,5.31,5.31,0,0,0-2.77-.67l-3.18-.09.25-2.35,2.68,0a7.52,7.52,0,0,1,4.89,1.42,5,5,0,0,1,1.59,4V321l2.26.28v2.12Z"/><path class="cls-8" d="M497.44,354.21V336.43H500v17.78Zm0-15.4v-2.38H509.2v2.38Zm0,7.69v-2.38H507v2.38Zm0,7.71v-2.38H509.2v2.38Z"/><path class="cls-8" d="M516.94,354.46c-1,0-1.86,0-2.57-.09a13.32,13.32,0,0,1-2-.29l.3-2.4c.88.13,1.65.23,2.32.3a18.4,18.4,0,0,0,1.91.1,8,8,0,0,0,2.92-.39,1.32,1.32,0,0,0,.91-1.26,1.19,1.19,0,0,0-.32-.9,2.3,2.3,0,0,0-1-.45l-3.06-.78a7.67,7.67,0,0,1-2.88-1.24,2.71,2.71,0,0,1-.92-2.24,3.38,3.38,0,0,1,1.67-3.15,11.16,11.16,0,0,1,5.39-1q1,0,1.8.06c.55,0,1.12.1,1.7.19l-.27,2.3c-.68-.06-1.27-.11-1.79-.13s-1,0-1.52,0a10,10,0,0,0-3.23.38,1.31,1.31,0,0,0-1,1.25.9.9,0,0,0,.42.83A4.46,4.46,0,0,0,517,346l2.45.6a7.18,7.18,0,0,1,3.06,1.34,3,3,0,0,1,1,2.44,3.39,3.39,0,0,1-1.56,3.11A9.84,9.84,0,0,1,516.94,354.46Z"/><path class="cls-8" d="M526.35,343.27v-2.33h12v2.33Zm3.33,4.68v-11h2.66v11Zm5.71,6.51a6.31,6.31,0,0,1-4.36-1.25,5.25,5.25,0,0,1-1.35-4V347h2.66v2.13a3,3,0,0,0,.77,2.29,3.69,3.69,0,0,0,2.53.71A12.5,12.5,0,0,0,537,352c.47,0,1-.1,1.6-.18l.3,2.33c-.58.1-1.15.17-1.71.22S536,354.46,535.39,354.46Z"/><path class="cls-8" d="M541.5,354.21v-2.33h8.86v2.33Zm.5-10.94v-2.33h4.43l.25,2.33Zm2.46,10.94V340.94h2.15l.5,3.81v9.46Zm2.65-5.71-.78-4.15h1q.23-3.66,3.66-3.66a3.53,3.53,0,0,1,3,1.18,6.15,6.15,0,0,1,.93,3.8h-2.63a3.84,3.84,0,0,0-.43-2.09,1.58,1.58,0,0,0-1.4-.64,2.74,2.74,0,0,0-2.52,1.45A8.36,8.36,0,0,0,547.11,348.5Z"/><path class="cls-8" d="M561.08,354.46a4.7,4.7,0,0,1-3.22-1,3.57,3.57,0,0,1-1.14-2.83,3.75,3.75,0,0,1,1.57-3.23,7.55,7.55,0,0,1,4.44-1.13,13.36,13.36,0,0,1,2.12.15,7.3,7.3,0,0,1,1.66.43l-.55,1.8a9.48,9.48,0,0,0-1.64-.22c-.53,0-1.08,0-1.64,0q-3.45,0-3.45,2.1a1.66,1.66,0,0,0,.59,1.36,2.7,2.7,0,0,0,1.69.47,4.6,4.6,0,0,0,2.07-.42,3.1,3.1,0,0,0,1.24-1.09,2.53,2.53,0,0,0,.42-1.37V348l.77,3.41h-1l.43-.41a3.3,3.3,0,0,1-.54,1.93,3.22,3.22,0,0,1-1.49,1.15A6.25,6.25,0,0,1,561.08,354.46Zm4.68-.13-.17-3.93-.35-1.1v-3.43a2.15,2.15,0,0,0-.94-1.94,5.19,5.19,0,0,0-2.77-.67l-3.18-.09.25-2.36,2.68,0a7.62,7.62,0,0,1,4.89,1.42,5,5,0,0,1,1.59,4v5.54l2.26.27v2.13Z"/><path class="cls-8" d="M577,354.46a4.71,4.71,0,0,1-3.95-1.72,8,8,0,0,1-1.34-5,8.55,8.55,0,0,1,1.34-5.23,4.65,4.65,0,0,1,3.95-1.78,3.9,3.9,0,0,1,2.42.7,2.81,2.81,0,0,1,1.1,1.95h1l-.77,3.78A5.08,5.08,0,0,0,580,344a2.8,2.8,0,0,0-2.37-1.07,2.74,2.74,0,0,0-2.43,1.21,6.27,6.27,0,0,0-.83,3.55,5.72,5.72,0,0,0,.83,3.37,3.16,3.16,0,0,0,4.8.07,5.08,5.08,0,0,0,.81-3.11l.9,3.78h-1.15a2.66,2.66,0,0,1-1.06,1.95A4,4,0,0,1,577,354.46Zm4-.13-.27-2.6v-16.3h2.65v18.78Z"/><path class="cls-8" d="M591.12,354.46a4.69,4.69,0,0,1-3.21-1,3.57,3.57,0,0,1-1.14-2.83,3.73,3.73,0,0,1,1.57-3.23,7.55,7.55,0,0,1,4.44-1.13,13.45,13.45,0,0,1,2.12.15,7.58,7.58,0,0,1,1.66.43l-.55,1.8a9.61,9.61,0,0,0-1.64-.22c-.54,0-1.08,0-1.64,0-2.31,0-3.46.7-3.46,2.1a1.64,1.64,0,0,0,.6,1.36,2.65,2.65,0,0,0,1.68.47,4.54,4.54,0,0,0,2.07-.42,3.13,3.13,0,0,0,1.25-1.09,2.6,2.6,0,0,0,.41-1.37V348l.78,3.41H595l.43-.41a3.37,3.37,0,0,1-.53,1.93,3.3,3.3,0,0,1-1.5,1.15A6.25,6.25,0,0,1,591.12,354.46Zm4.69-.13-.18-3.93-.35-1.1v-3.43a2.16,2.16,0,0,0-.93-1.94,5.23,5.23,0,0,0-2.78-.67l-3.17-.09.25-2.36,2.67,0a7.6,7.6,0,0,1,4.89,1.42,5,5,0,0,1,1.6,4v5.54l2.25.27v2.13Z"/><path class="cls-8" d="M607.71,345.82l-1.88-1.65.75-.81a5.83,5.83,0,0,0,1.09-1.58,3.67,3.67,0,0,0,.37-1.57,1.34,1.34,0,0,0-.46-1.09,2.09,2.09,0,0,0-1.35-.37h-.56v-2.32h.94a4.15,4.15,0,0,1,3,1,3.69,3.69,0,0,1,1,2.82,6,6,0,0,1-.54,2.39,8.77,8.77,0,0,1-1.65,2.46Z"/><path class="cls-8" d="M622.09,354.46c-1,0-1.85,0-2.57-.09a13.74,13.74,0,0,1-2-.29l.3-2.4c.88.13,1.65.23,2.33.3a18.22,18.22,0,0,0,1.9.1,8,8,0,0,0,2.93-.39,1.33,1.33,0,0,0,.9-1.26,1.19,1.19,0,0,0-.31-.9,2.34,2.34,0,0,0-1-.45l-3-.78a7.8,7.8,0,0,1-2.89-1.24,2.71,2.71,0,0,1-.92-2.24,3.38,3.38,0,0,1,1.67-3.15,11.19,11.19,0,0,1,5.39-1c.65,0,1.24,0,1.8.06s1.12.1,1.71.19l-.28,2.3c-.67-.06-1.27-.11-1.79-.13s-1,0-1.51,0a10,10,0,0,0-3.23.38,1.3,1.3,0,0,0-1,1.25.89.89,0,0,0,.41.83,4.72,4.72,0,0,0,1.26.47l2.46.6a7.3,7.3,0,0,1,3.06,1.34,3,3,0,0,1,1,2.44,3.37,3.37,0,0,1-1.57,3.11A9.82,9.82,0,0,1,622.09,354.46Z"/><path class="cls-8" d="M647.76,360v-19h2.4l.25,2.8V360Zm6.42-5.51a4,4,0,0,1-2.46-.7,2.66,2.66,0,0,1-1.06-1.95h-1.15l.9-3.78a5.08,5.08,0,0,0,.81,3.11,3.16,3.16,0,0,0,4.8-.07,5.72,5.72,0,0,0,.83-3.37,6.27,6.27,0,0,0-.83-3.55,2.74,2.74,0,0,0-2.43-1.21,2.8,2.8,0,0,0-2.37,1.07,5.08,5.08,0,0,0-.81,3.11l-.9-3.78h1a2.77,2.77,0,0,1,1.13-1.95,4.12,4.12,0,0,1,2.51-.7,4.62,4.62,0,0,1,4,1.78,8.55,8.55,0,0,1,1.34,5.23,8,8,0,0,1-1.34,5A4.69,4.69,0,0,1,654.18,354.46Z"/><path class="cls-8" d="M666.88,354.46a4.17,4.17,0,0,1-3.23-1.25,5,5,0,0,1-1.15-3.51v-8.76h2.66v8.76a2.29,2.29,0,0,0,.65,1.76,2.51,2.51,0,0,0,1.83.62,2.67,2.67,0,0,0,2.19-.92,5,5,0,0,0,.74-3.08l.67,3.58h-.87a3.56,3.56,0,0,1-1.23,2.07A3.48,3.48,0,0,1,666.88,354.46Zm3.69-4v-9.51h2.65v8.76Zm.22,3.88-.22-3.17v-2.33h2.65v3l1.83.27v2.13Z"/><path class="cls-8" d="M677.74,354.21V335.43h2.65V354Zm3.55.25c-.6,0-1.19,0-1.77-.07s-1.18-.11-1.78-.18l1-2.43a4.13,4.13,0,0,0,1.47.37q.79.06,1.59.06a4.75,4.75,0,0,0,3.7-1.44,5.86,5.86,0,0,0,1.31-4.07,4.3,4.3,0,0,0-.8-2.78,2.75,2.75,0,0,0-2.26-1q-3.37,0-3.38,3.81l-.77-3.41h1c.13-1.77,1.21-2.65,3.26-2.65a5.32,5.32,0,0,1,4.1,1.56,6.31,6.31,0,0,1,1.46,4.45,7.56,7.56,0,0,1-2.14,5.73A8.41,8.41,0,0,1,681.29,354.46Z"/><path class="cls-8" d="M692,337.76v-2.33h4.13v2.33Zm8.26,16.7a4.07,4.07,0,0,1-3.33-1.25,6.28,6.28,0,0,1-1-4V335.43h2.65v13.65a5.77,5.77,0,0,0,.21,1.71,1.57,1.57,0,0,0,.78,1,3.72,3.72,0,0,0,1.72.31,10,10,0,0,0,2.65-.47l.3,2.32a13.4,13.4,0,0,1-1.94.4A14.25,14.25,0,0,1,700.21,354.46Z"/><path class="cls-8" d="M707.74,354.21v-2.33h5.31v2.33Zm.75-10.94v-2.33h7v2.33Zm5.55-4.43a1.76,1.76,0,0,1-1.31-.55,1.85,1.85,0,0,1,1.31-3.16,1.76,1.76,0,0,1,1.31.54,1.86,1.86,0,0,1,0,2.62A1.73,1.73,0,0,1,714,338.84Zm-1.24,15.37V341.69h2.65v12.52Zm2.4,0v-2.33h4.34v2.33Z"/><path class="cls-8" d="M729.55,354.46a7.23,7.23,0,0,1-5.24-1.78,6.81,6.81,0,0,1-1.85-5.13,7,7,0,0,1,1.75-5.06,6.65,6.65,0,0,1,5-1.8,7.11,7.11,0,0,1,3.32.72,4.21,4.21,0,0,1,2,2l-2,1.54a3.89,3.89,0,0,0-1.44-1.41,4.16,4.16,0,0,0-4.83.63,5.53,5.53,0,0,0,.18,6.69,4.82,4.82,0,0,0,3.49,1.19c.62,0,1.23,0,1.85-.09s1.22-.13,1.8-.23l.31,2.32a14.76,14.76,0,0,1-2.13.3C731,354.43,730.24,354.46,729.55,354.46Z"/><path class="cls-8" d="M757.29,354.46c-1,0-1.86,0-2.57-.09a13.32,13.32,0,0,1-2-.29l.3-2.4c.87.13,1.65.23,2.32.3a18.4,18.4,0,0,0,1.91.1,8,8,0,0,0,2.92-.39,1.32,1.32,0,0,0,.91-1.26,1.19,1.19,0,0,0-.32-.9,2.3,2.3,0,0,0-1-.45l-3.06-.78a7.67,7.67,0,0,1-2.88-1.24,2.68,2.68,0,0,1-.92-2.24,3.36,3.36,0,0,1,1.67-3.15,11.16,11.16,0,0,1,5.39-1c.64,0,1.24,0,1.79.06a17.19,17.19,0,0,1,1.71.19l-.27,2.3c-.68-.06-1.28-.11-1.79-.13s-1,0-1.52,0a10,10,0,0,0-3.23.38,1.31,1.31,0,0,0-1,1.25.9.9,0,0,0,.42.83,4.46,4.46,0,0,0,1.26.47l2.45.6a7.18,7.18,0,0,1,3.06,1.34,3,3,0,0,1,1,2.44,3.39,3.39,0,0,1-1.56,3.11A9.84,9.84,0,0,1,757.29,354.46Z"/><path class="cls-8" d="M767.93,360v-19h2.4l.25,2.8V360Zm6.42-5.51a4,4,0,0,1-2.46-.7,2.69,2.69,0,0,1-1.06-1.95h-1.15l.9-3.78a5.08,5.08,0,0,0,.81,3.11,3.16,3.16,0,0,0,4.8-.07,5.72,5.72,0,0,0,.83-3.37,6.27,6.27,0,0,0-.83-3.55,2.74,2.74,0,0,0-2.43-1.21,2.8,2.8,0,0,0-2.37,1.07,5.08,5.08,0,0,0-.81,3.11l-.9-3.78h1a2.8,2.8,0,0,1,1.13-1.95,4.14,4.14,0,0,1,2.51-.7,4.65,4.65,0,0,1,4,1.78,8.62,8.62,0,0,1,1.34,5.23,8.08,8.08,0,0,1-1.34,5A4.72,4.72,0,0,1,774.35,354.46Z"/><path class="cls-8" d="M789.51,354.46a7.23,7.23,0,0,1-5.24-1.78,6.81,6.81,0,0,1-1.85-5.13,7.49,7.49,0,0,1,1.57-5.06,5.54,5.54,0,0,1,4.42-1.8,5.31,5.31,0,0,1,4.16,1.63,6.82,6.82,0,0,1,1.47,4.73c0,.61,0,1.18-.07,1.7h-9.32v-2h7a4,4,0,0,0-.85-2.74,3,3,0,0,0-2.36-1,3.18,3.18,0,0,0-2.62,1.15,5.05,5.05,0,0,0-.93,3.25,4.59,4.59,0,0,0,1.28,3.51,5.15,5.15,0,0,0,3.65,1.2,14.7,14.7,0,0,0,1.63-.09c.53-.06,1.07-.15,1.63-.26l.32,2.33a17.1,17.1,0,0,1-2.15.29C790.59,354.44,790,354.46,789.51,354.46Z"/><path class="cls-8" d="M801.43,354.46a4.7,4.7,0,0,1-3.22-1,3.57,3.57,0,0,1-1.14-2.83,3.73,3.73,0,0,1,1.57-3.23,7.55,7.55,0,0,1,4.44-1.13,13.45,13.45,0,0,1,2.12.15,7.44,7.44,0,0,1,1.66.43l-.55,1.8a9.61,9.61,0,0,0-1.64-.22c-.54,0-1.08,0-1.64,0-2.3,0-3.46.7-3.46,2.1a1.64,1.64,0,0,0,.6,1.36,2.69,2.69,0,0,0,1.68.47,4.54,4.54,0,0,0,2.07-.42,3.13,3.13,0,0,0,1.25-1.09,2.51,2.51,0,0,0,.41-1.37V348l.78,3.41h-1.05l.42-.41a3.3,3.3,0,0,1-.53,1.93,3.22,3.22,0,0,1-1.49,1.15A6.33,6.33,0,0,1,801.43,354.46Zm4.68-.13-.18-3.93-.35-1.1v-3.43a2.16,2.16,0,0,0-.93-1.94,5.22,5.22,0,0,0-2.77-.67l-3.18-.09.25-2.36,2.68,0a7.64,7.64,0,0,1,4.89,1.42,5,5,0,0,1,1.59,4v5.54l2.26.27v2.13Z"/><path class="cls-8" d="M812.89,354.21V335.43h2.66v18.78Zm1.88-5V346.8h1.5a5.72,5.72,0,0,0,2.72-.57,3.87,3.87,0,0,0,1.67-1.86,12,12,0,0,0,.9-3.43h2.75a11.26,11.26,0,0,1-2.36,6.19,6.42,6.42,0,0,1-5.05,2.05Zm7.11,5-3.78-6.46,2.5-1,4.56,7.49Z"/><path class="cls-8" d="M834.57,354.46a7.21,7.21,0,0,1-5.23-1.78,6.77,6.77,0,0,1-1.85-5.13,7.49,7.49,0,0,1,1.56-5.06,5.56,5.56,0,0,1,4.42-1.8,5.33,5.33,0,0,1,4.17,1.63,6.82,6.82,0,0,1,1.47,4.73c0,.61,0,1.18-.08,1.7h-9.31v-2h7a4,4,0,0,0-.85-2.74,3,3,0,0,0-2.35-1,3.16,3.16,0,0,0-2.62,1.15,5,5,0,0,0-.94,3.25,4.56,4.56,0,0,0,1.29,3.51,5.13,5.13,0,0,0,3.65,1.2,14.39,14.39,0,0,0,1.62-.09c.54-.06,1.08-.15,1.63-.26l.33,2.33a17.48,17.48,0,0,1-2.16.29C835.65,354.44,835.08,354.46,834.57,354.46Z"/><path class="cls-8" d="M841.93,354.21v-2.33h8.87v2.33Zm.51-10.94v-2.33h4.43l.25,2.33Zm2.45,10.94V340.94H847l.5,3.81v9.46Zm2.65-5.71-.77-4.15h1q.23-3.66,3.66-3.66a3.55,3.55,0,0,1,3,1.18,6.15,6.15,0,0,1,.92,3.8h-2.62a3.82,3.82,0,0,0-.44-2.09,1.56,1.56,0,0,0-1.39-.64,2.72,2.72,0,0,0-2.52,1.45A8.24,8.24,0,0,0,847.54,348.5Z"/><path class="cls-8" d="M507.33,387.48a7.43,7.43,0,0,1-6.32-3q-2.25-3-2.25-8.47t2.25-8.35a7.46,7.46,0,0,1,6.32-3h.6V367h-.35a5.19,5.19,0,0,0-4.58,2.38,11.84,11.84,0,0,0-1.61,6.68,12.23,12.23,0,0,0,1.61,6.8,5.18,5.18,0,0,0,4.58,2.41h.35v2.26Z"/><path class="cls-8" d="M512.56,369.58V367.2h10.82v2.38Zm0,15.39V382.6h10.82V385Zm4.09,0V367.2h2.61V385Z"/><path class="cls-8" d="M542.6,385V366.2h2.66V385Zm8.17,0v-8.63a2.76,2.76,0,0,0-.63-1.95,2.27,2.27,0,0,0-1.75-.68q-3.14,0-3.13,3.8l-.78-3.4h1a2.66,2.66,0,0,1,1-2,4.13,4.13,0,0,1,2.53-.66,4.18,4.18,0,0,1,3.26,1.28,5.23,5.23,0,0,1,1.15,3.61V385Z"/><path class="cls-8" d="M561.08,385.22a4.7,4.7,0,0,1-3.22-1,3.56,3.56,0,0,1-1.14-2.83,3.76,3.76,0,0,1,1.57-3.23,7.55,7.55,0,0,1,4.44-1.12,14.76,14.76,0,0,1,2.12.14,7.86,7.86,0,0,1,1.66.43l-.55,1.81a8.6,8.6,0,0,0-1.64-.22c-.53,0-1.08,0-1.64,0q-3.45,0-3.45,2.1a1.65,1.65,0,0,0,.59,1.35,2.64,2.64,0,0,0,1.69.48,4.6,4.6,0,0,0,2.07-.43,3,3,0,0,0,1.24-1.09,2.52,2.52,0,0,0,.42-1.36v-1.45l.77,3.4h-1l.43-.4a3.25,3.25,0,0,1-.54,1.92,3.15,3.15,0,0,1-1.49,1.15A6.05,6.05,0,0,1,561.08,385.22Zm4.68-.12-.17-3.93-.35-1.1v-3.43a2.15,2.15,0,0,0-.94-1.95,5.29,5.29,0,0,0-2.77-.67l-3.18-.09.25-2.35,2.68,0a7.5,7.5,0,0,1,4.89,1.42,5,5,0,0,1,1.59,4v5.53l2.26.28V385Z"/><path class="cls-8" d="M576.29,385l-4.74-13.26h2.82l3.57,11h.23l3.57-11h2.82L579.82,385Z"/><path class="cls-8" d="M594.23,385.22a7.23,7.23,0,0,1-5.24-1.78,6.81,6.81,0,0,1-1.85-5.13,7.41,7.41,0,0,1,1.57-5.05,5.54,5.54,0,0,1,4.42-1.81,5.34,5.34,0,0,1,4.16,1.63,6.84,6.84,0,0,1,1.47,4.73c0,.61,0,1.18-.07,1.71h-9.32v-2h7a4,4,0,0,0-.85-2.75,3,3,0,0,0-2.36-1,3.21,3.21,0,0,0-2.62,1.15,5.08,5.08,0,0,0-.93,3.26,4.53,4.53,0,0,0,1.28,3.5,5.11,5.11,0,0,0,3.65,1.21,14.7,14.7,0,0,0,1.63-.1c.53-.06,1.07-.15,1.62-.25l.33,2.32a17.34,17.34,0,0,1-2.15.29C595.31,385.2,594.73,385.22,594.23,385.22Z"/><path class="cls-8" d="M621.17,385.22a4.7,4.7,0,0,1-3.22-1,3.56,3.56,0,0,1-1.14-2.83,3.76,3.76,0,0,1,1.57-3.23,7.55,7.55,0,0,1,4.44-1.12,14.87,14.87,0,0,1,2.12.14,8,8,0,0,1,1.66.43l-.55,1.81a8.71,8.71,0,0,0-1.64-.22c-.53,0-1.08,0-1.64,0q-3.45,0-3.45,2.1a1.62,1.62,0,0,0,.59,1.35,2.62,2.62,0,0,0,1.68.48,4.61,4.61,0,0,0,2.08-.43,3,3,0,0,0,1.24-1.09,2.5,2.5,0,0,0,.41-1.36v-1.45l.78,3.4h-1.05l.42-.4a3.25,3.25,0,0,1-.53,1.92,3.15,3.15,0,0,1-1.49,1.15A6.12,6.12,0,0,1,621.17,385.22Zm4.68-.12-.18-3.93-.35-1.1v-3.43a2.17,2.17,0,0,0-.93-1.95,5.29,5.29,0,0,0-2.77-.67l-3.18-.09.25-2.35,2.68,0a7.52,7.52,0,0,1,4.89,1.42,5,5,0,0,1,1.59,4v5.53l2.26.28V385Z"/><path class="cls-8" d="M646.5,377v-2.33h12.27V377Zm4.19,8V372.83q0-6.88,6.28-6.88a14.5,14.5,0,0,1,2.75.25l-.27,2.3c-.53-.07-1-.11-1.39-.14s-.79,0-1.16,0c-2.38,0-3.56,1.47-3.56,4.39V385Z"/><path class="cls-8" d="M666.88,385.22a4.16,4.16,0,0,1-3.23-1.24,5,5,0,0,1-1.15-3.51v-8.76h2.66v8.76a2.3,2.3,0,0,0,.65,1.76,2.55,2.55,0,0,0,1.83.62,2.67,2.67,0,0,0,2.19-.92,5,5,0,0,0,.74-3.09l.67,3.58h-.87a3.62,3.62,0,0,1-1.23,2.08A3.54,3.54,0,0,1,666.88,385.22Zm3.69-4v-9.51h2.65v8.76Zm.22,3.88-.22-3.18v-2.33h2.65v3l1.83.28V385Z"/><path class="cls-8" d="M677.8,385V371.71h2.4l.25,2.8V385Zm8.16,0v-8.63a2.63,2.63,0,0,0-.62-1.86,2.36,2.36,0,0,0-1.76-.65c-2.08,0-3.13,1.23-3.13,3.68l-.77-3.4h1a2.7,2.7,0,0,1,1-2,4.93,4.93,0,0,1,5.78.62,5.19,5.19,0,0,1,1.16,3.61V385Z"/><path class="cls-8" d="M708,391l-.12-2.35,2.5-.23a4.23,4.23,0,0,0,2.92-1.17,4.34,4.34,0,0,0,.91-3v-4h2.66v3.63a9.2,9.2,0,0,1-.7,3.85,4.67,4.67,0,0,1-2.2,2.25,10.11,10.11,0,0,1-3.84.93Zm1-17v-2.32h5.36V374Zm6.21-4.43a1.85,1.85,0,0,1-1.3-3.17,1.86,1.86,0,1,1,1.3,3.17Zm-1,11v-8.88h2.66v8.88Z"/><path class="cls-8" d="M728.27,385.22a5.32,5.32,0,0,1-4.28-1.8,9.22,9.22,0,0,1,0-10.17,6,6,0,0,1,8.57,0,9.27,9.27,0,0,1,0,10.17A5.3,5.3,0,0,1,728.27,385.22Zm0-2.37a2.58,2.58,0,0,0,2.26-1.18,7.35,7.35,0,0,0,0-6.67,2.77,2.77,0,0,0-4.52,0,7.43,7.43,0,0,0,0,6.67A2.59,2.59,0,0,0,728.27,382.85Z"/><path class="cls-8" d="M737.82,385V366.2h2.66v18.55Zm3.56.25c-.6,0-1.19,0-1.78-.06s-1.18-.11-1.78-.19l1-2.42a4.3,4.3,0,0,0,1.46.37c.54,0,1.07.05,1.59.05a4.73,4.73,0,0,0,3.7-1.44,5.79,5.79,0,0,0,1.31-4.07,4.3,4.3,0,0,0-.79-2.78,2.76,2.76,0,0,0-2.26-1c-2.26,0-3.38,1.27-3.38,3.8l-.78-3.4h1c.12-1.77,1.21-2.66,3.25-2.66a5.35,5.35,0,0,1,4.11,1.57,6.27,6.27,0,0,1,1.45,4.44,7.54,7.54,0,0,1-2.13,5.73A8.4,8.4,0,0,1,741.38,385.22Z"/><path class="cls-8" d="M753.33,387.48v-2.26h.35a5.18,5.18,0,0,0,4.58-2.41,12.23,12.23,0,0,0,1.61-6.8,11.84,11.84,0,0,0-1.61-6.68,5.19,5.19,0,0,0-4.58-2.38h-.35v-2.26h.6a7.47,7.47,0,0,1,6.33,3q2.24,3,2.24,8.35t-2.24,8.47a7.44,7.44,0,0,1-6.33,3Z"/><path class="cls-8" d="M786.41,385.22a4.7,4.7,0,0,1-3.22-1,3.56,3.56,0,0,1-1.14-2.83,3.74,3.74,0,0,1,1.57-3.23,7.55,7.55,0,0,1,4.44-1.12,14.87,14.87,0,0,1,2.12.14,8.19,8.19,0,0,1,1.66.43l-.55,1.81a8.71,8.71,0,0,0-1.64-.22c-.54,0-1.08,0-1.64,0-2.3,0-3.46.7-3.46,2.1a1.63,1.63,0,0,0,.6,1.35,2.61,2.61,0,0,0,1.68.48,4.54,4.54,0,0,0,2.07-.43,3.06,3.06,0,0,0,1.25-1.09,2.59,2.59,0,0,0,.41-1.36v-1.45l.78,3.4h-1.05l.42-.4a3.32,3.32,0,0,1-.53,1.92,3.13,3.13,0,0,1-1.5,1.15A6,6,0,0,1,786.41,385.22Zm4.68-.12-.18-3.93-.35-1.1v-3.43a2.17,2.17,0,0,0-.93-1.95,5.31,5.31,0,0,0-2.77-.67l-3.18-.09.25-2.35,2.68,0a7.47,7.47,0,0,1,4.88,1.42,5,5,0,0,1,1.6,4v5.53l2.25.28V385Z"/><path class="cls-8" d="M798,385V371.71h2.41l.25,2.8V385Zm8.16,0v-8.63a2.58,2.58,0,0,0-.62-1.86,2.33,2.33,0,0,0-1.75-.65q-3.13,0-3.13,3.68l-.78-3.4h1a2.66,2.66,0,0,1,1-2,4.13,4.13,0,0,1,2.53-.66,4.18,4.18,0,0,1,3.26,1.28,5.23,5.23,0,0,1,1.15,3.61V385Z"/><path class="cls-8" d="M817.39,385.22a4.71,4.71,0,0,1-3.95-1.71,8,8,0,0,1-1.35-5.05,8.57,8.57,0,0,1,1.35-5.23,4.65,4.65,0,0,1,3.95-1.78,3.91,3.91,0,0,1,2.42.71,2.76,2.76,0,0,1,1.1,1.95h1l-.77,3.78a5.09,5.09,0,0,0-.81-3.12,2.79,2.79,0,0,0-2.37-1.06,2.76,2.76,0,0,0-2.43,1.2,6.29,6.29,0,0,0-.83,3.55,5.72,5.72,0,0,0,.83,3.37,3.17,3.17,0,0,0,4.8.08,5.09,5.09,0,0,0,.81-3.12l.9,3.78h-1.15a2.66,2.66,0,0,1-1.06,1.95A4,4,0,0,1,817.39,385.22Zm4-.12-.27-2.6V366.2h2.65V385Z"/><path class="cls-8" d="M497.54,400.34V398h10.81v2.38Zm0,15.4v-2.38h10.81v2.38Zm4.09,0V398h2.6v17.78Z"/><path class="cls-8" d="M516.77,406l-.26-8h2.91l-.25,8Z"/><path class="cls-8" d="M526.88,415.74V402.47h2.35l.3,2.8v10.47Zm5,0V405.35c0-.75-.35-1.13-1.05-1.13s-1.28.6-1.28,1.8l-.77-1.9h.85c.1-1.27.86-1.9,2.28-1.9a2,2,0,0,1,1.63.71,3.32,3.32,0,0,1,.6,2.17v10.64Zm4.58,0V405.6q0-1.38-1-1.38c-.87,0-1.3.6-1.3,1.8l-.91-1.9h1a2.1,2.1,0,0,1,.62-1.34,2.19,2.19,0,0,1,1.61-.56,2.49,2.49,0,0,1,2,.74,3.66,3.66,0,0,1,.63,2.39v10.39Z"/><path class="cls-8" d="M557.63,415.74V397h2.65v18.78Zm8.16,0V407.1a2.79,2.79,0,0,0-.63-2,2.27,2.27,0,0,0-1.75-.68q-3.13,0-3.13,3.81l-.78-3.41h1a2.6,2.6,0,0,1,1-2,4.07,4.07,0,0,1,2.52-.66,4.13,4.13,0,0,1,3.26,1.28,5.17,5.17,0,0,1,1.15,3.6v8.64Z"/><path class="cls-8" d="M579.21,416a7.26,7.26,0,0,1-5.24-1.78,6.81,6.81,0,0,1-1.85-5.13,7.44,7.44,0,0,1,1.57-5.06,5.52,5.52,0,0,1,4.41-1.8,5.32,5.32,0,0,1,4.17,1.63,6.82,6.82,0,0,1,1.47,4.73c0,.61,0,1.17-.08,1.7h-9.31v-2h7a4,4,0,0,0-.85-2.74,3,3,0,0,0-2.35-1,3.16,3.16,0,0,0-2.62,1.15,5.05,5.05,0,0,0-.94,3.25,4.56,4.56,0,0,0,1.29,3.51,5.13,5.13,0,0,0,3.65,1.2,14.39,14.39,0,0,0,1.62-.09c.54-.07,1.08-.15,1.63-.26l.33,2.33a19.63,19.63,0,0,1-2.16.29C580.28,416,579.71,416,579.21,416Z"/><path class="cls-8" d="M586.57,415.74v-2.33h8.86v2.33Zm.5-10.94v-2.33h4.43l.25,2.33Zm2.45,10.94V402.47h2.15l.51,3.8v9.47Zm2.66-5.71-.78-4.16h1c.15-2.43,1.36-3.65,3.65-3.65a3.55,3.55,0,0,1,3,1.18,6.15,6.15,0,0,1,.93,3.8h-2.63a3.93,3.93,0,0,0-.43-2.09,1.59,1.59,0,0,0-1.4-.64,2.71,2.71,0,0,0-2.52,1.45A8.25,8.25,0,0,0,592.18,410Z"/><path class="cls-8" d="M609.25,416a7.28,7.28,0,0,1-5.24-1.78,6.81,6.81,0,0,1-1.84-5.13,7.49,7.49,0,0,1,1.56-5.06,5.54,5.54,0,0,1,4.42-1.8,5.31,5.31,0,0,1,4.16,1.63,6.82,6.82,0,0,1,1.47,4.73c0,.61,0,1.17-.07,1.7h-9.32v-2h7a4,4,0,0,0-.85-2.74,3,3,0,0,0-2.36-1,3.18,3.18,0,0,0-2.62,1.15,5.05,5.05,0,0,0-.93,3.25,4.59,4.59,0,0,0,1.28,3.51,5.15,5.15,0,0,0,3.65,1.2,14.7,14.7,0,0,0,1.63-.09c.53-.07,1.07-.15,1.63-.26l.32,2.33a19.17,19.17,0,0,1-2.15.29C610.33,416,609.75,416,609.25,416Z"/><path class="cls-8" d="M631.51,404.8v-2.33h12v2.33Zm3.33,4.68v-11h2.65v11Zm5.71,6.51a6.34,6.34,0,0,1-4.37-1.25,5.28,5.28,0,0,1-1.34-4v-2.25h2.65v2.13a3,3,0,0,0,.77,2.29,3.71,3.71,0,0,0,2.54.71,12.32,12.32,0,0,0,1.32-.07c.47,0,1-.1,1.61-.18l.3,2.33c-.59.1-1.16.17-1.71.22S641.17,416,640.55,416Z"/><path class="cls-8" d="M653.16,416a5.32,5.32,0,0,1-4.28-1.8,9.27,9.27,0,0,1,0-10.17,6,6,0,0,1,8.57,0,9.27,9.27,0,0,1,0,10.17A5.3,5.3,0,0,1,653.16,416Zm0-2.38a2.55,2.55,0,0,0,2.26-1.18,7.33,7.33,0,0,0,0-6.66,2.76,2.76,0,0,0-4.51,0,7.33,7.33,0,0,0,0,6.66A2.55,2.55,0,0,0,653.16,413.61Z"/><path class="cls-8" d="M676.57,404.8v-2.33h12v2.33Zm3.33,4.68v-11h2.66v11Zm5.71,6.51a6.31,6.31,0,0,1-4.36-1.25,5.25,5.25,0,0,1-1.35-4v-2.25h2.66v2.13a3,3,0,0,0,.77,2.29,3.69,3.69,0,0,0,2.53.71,12.5,12.5,0,0,0,1.33-.07c.47,0,1-.1,1.6-.18l.3,2.33c-.58.1-1.15.17-1.71.22S686.24,416,685.61,416Z"/><path class="cls-8" d="M698.23,416a5.3,5.3,0,0,1-4.28-1.8A9.22,9.22,0,0,1,694,404a6,6,0,0,1,8.57,0,9.27,9.27,0,0,1,0,10.17A5.32,5.32,0,0,1,698.23,416Zm0-2.38a2.55,2.55,0,0,0,2.26-1.18,7.41,7.41,0,0,0,0-6.66,2.77,2.77,0,0,0-4.52,0,7.33,7.33,0,0,0,0,6.66A2.55,2.55,0,0,0,698.23,413.61Z"/><path class="cls-8" d="M727.26,416a4.7,4.7,0,0,1-4-1.72,8,8,0,0,1-1.35-5,8.55,8.55,0,0,1,1.35-5.23,4.63,4.63,0,0,1,4-1.78,3.9,3.9,0,0,1,2.42.7,2.81,2.81,0,0,1,1.1,1.95h1l-.77,3.78a5.06,5.06,0,0,0-.81-3.11,2.8,2.8,0,0,0-2.37-1.07,2.76,2.76,0,0,0-2.43,1.2,6.33,6.33,0,0,0-.83,3.56,5.74,5.74,0,0,0,.83,3.37,3.16,3.16,0,0,0,4.8.07,5.09,5.09,0,0,0,.81-3.12l.9,3.79h-1.15a2.69,2.69,0,0,1-1.06,2A4,4,0,0,1,727.26,416Zm4-.13-.27-2.6V397h2.65v18.78Z"/><path class="cls-8" d="M744.45,416a7.26,7.26,0,0,1-5.24-1.78,6.81,6.81,0,0,1-1.85-5.13,7.49,7.49,0,0,1,1.56-5.06,5.56,5.56,0,0,1,4.42-1.8,5.32,5.32,0,0,1,4.17,1.63,6.82,6.82,0,0,1,1.47,4.73c0,.61,0,1.17-.08,1.7h-9.31v-2h7a4,4,0,0,0-.85-2.74,3,3,0,0,0-2.35-1,3.16,3.16,0,0,0-2.62,1.15,5.05,5.05,0,0,0-.94,3.25,4.56,4.56,0,0,0,1.29,3.51,5.13,5.13,0,0,0,3.65,1.2,14.39,14.39,0,0,0,1.62-.09c.54-.07,1.08-.15,1.63-.26l.33,2.33a19.63,19.63,0,0,1-2.16.29C745.52,416,745,416,744.45,416Z"/><path class="cls-8" d="M752,399.29V397h4.13v2.33Zm8.26,16.7a4.1,4.1,0,0,1-3.33-1.25,6.35,6.35,0,0,1-1-4V397h2.65v13.65a6.16,6.16,0,0,0,.2,1.71,1.61,1.61,0,0,0,.78,1,3.75,3.75,0,0,0,1.72.31,9.75,9.75,0,0,0,2.66-.48l.3,2.33a13.81,13.81,0,0,1-2,.4A14,14,0,0,1,760.29,416Z"/><path class="cls-8" d="M767.83,415.74v-2.33h5.31v2.33Zm.75-10.94v-2.33h7v2.33Zm5.55-4.43a1.85,1.85,0,0,1-1.31-3.17,1.85,1.85,0,0,1,2.62,2.62A1.76,1.76,0,0,1,774.13,400.37Zm-1.24,15.37V403.22h2.65v12.52Zm2.4,0v-2.33h4.33v2.33Z"/><path class="cls-8" d="M786.59,415.74l-4.74-13.27h2.83l3.57,11h.22l3.57-11h2.83l-4.75,13.27Z"/><path class="cls-8" d="M804.53,416a7.28,7.28,0,0,1-5.24-1.78,6.81,6.81,0,0,1-1.84-5.13A7.49,7.49,0,0,1,799,404a5.54,5.54,0,0,1,4.42-1.8,5.31,5.31,0,0,1,4.16,1.63,6.82,6.82,0,0,1,1.47,4.73c0,.61,0,1.17-.07,1.7h-9.32v-2h7a4,4,0,0,0-.85-2.74,3,3,0,0,0-2.35-1,3.18,3.18,0,0,0-2.63,1.15,5.05,5.05,0,0,0-.93,3.25,4.59,4.59,0,0,0,1.28,3.51,5.15,5.15,0,0,0,3.65,1.2,14.57,14.57,0,0,0,1.63-.09c.53-.07,1.08-.15,1.63-.26l.32,2.33a19.17,19.17,0,0,1-2.15.29C805.61,416,805,416,804.53,416Z"/><path class="cls-8" d="M811.89,415.74v-2.33h8.86v2.33Zm.5-10.94v-2.33h4.43l.25,2.33Zm2.46,10.94V402.47H817l.5,3.8v9.47ZM817.5,410l-.78-4.16h1q.22-3.64,3.66-3.65a3.53,3.53,0,0,1,3,1.18,6.15,6.15,0,0,1,.93,3.8h-2.63a3.84,3.84,0,0,0-.43-2.09,1.57,1.57,0,0,0-1.39-.64,2.73,2.73,0,0,0-2.53,1.45A8.36,8.36,0,0,0,817.5,410Z"/><path class="cls-8" d="M497.54,446.5V427.73h2.65V446.5Zm8.16,0v-8.63a2.76,2.76,0,0,0-.63-1.95,2.23,2.23,0,0,0-1.75-.68q-3.13,0-3.13,3.8l-.77-3.4h1a2.65,2.65,0,0,1,1-2A4.11,4.11,0,0,1,504,433a4.16,4.16,0,0,1,3.25,1.28,5.18,5.18,0,0,1,1.15,3.61v8.63Z"/><path class="cls-8" d="M519.12,446.75a7.23,7.23,0,0,1-5.24-1.78,6.81,6.81,0,0,1-1.85-5.13,7.41,7.41,0,0,1,1.57-5A5.5,5.5,0,0,1,518,433a5.34,5.34,0,0,1,4.16,1.63,6.84,6.84,0,0,1,1.47,4.73c0,.61,0,1.18-.07,1.71h-9.32v-2h7a4,4,0,0,0-.85-2.75,3,3,0,0,0-2.36-1,3.21,3.21,0,0,0-2.62,1.15,5.08,5.08,0,0,0-.93,3.26,4.55,4.55,0,0,0,1.28,3.5,5.15,5.15,0,0,0,3.65,1.21,14.7,14.7,0,0,0,1.63-.1c.53-.06,1.07-.15,1.62-.26l.33,2.33a17.34,17.34,0,0,1-2.15.29C520.2,446.73,519.62,446.75,519.12,446.75Z"/><path class="cls-8" d="M526.48,446.5v-2.33h8.86v2.33Zm.5-10.94v-2.33h4.43l.25,2.33Zm2.45,10.94V433.23h2.16l.5,3.81v9.46Zm2.66-5.71-.78-4.15h1Q532.57,433,536,433a3.58,3.58,0,0,1,3,1.18,6.16,6.16,0,0,1,.93,3.81h-2.63a3.81,3.81,0,0,0-.43-2.09,1.57,1.57,0,0,0-1.4-.64,2.74,2.74,0,0,0-2.52,1.44A8.3,8.3,0,0,0,532.09,440.79Z"/><path class="cls-8" d="M557.52,446.5v-2.33h5.31v2.33Zm.76-10.94v-2.33h7v2.33Zm5.54-4.43a1.86,1.86,0,0,1-1.31-3.17,1.86,1.86,0,0,1,2.63,2.63A1.8,1.8,0,0,1,563.82,431.13Zm-1.24,15.37V434h2.66V446.5Zm2.41,0v-2.33h4.33v2.33Z"/><path class="cls-8" d="M572.65,446.5V433.23h2.4l.25,2.81V446.5Zm8.16,0v-8.63a2.57,2.57,0,0,0-.63-1.86,2.32,2.32,0,0,0-1.75-.65q-3.13,0-3.13,3.68l-.78-3.4h1a2.65,2.65,0,0,1,1-2,4.11,4.11,0,0,1,2.53-.66,4.16,4.16,0,0,1,3.25,1.28,5.18,5.18,0,0,1,1.15,3.61v8.63Z"/><path class="cls-8" d="M586.44,435.56v-2.33h12v2.33Zm3.33,4.68v-11h2.66v11Zm5.71,6.51c-2,0-3.47-.41-4.36-1.25a5.22,5.22,0,0,1-1.35-4v-2.26h2.66v2.13a3,3,0,0,0,.77,2.29,3.63,3.63,0,0,0,2.53.72c.42,0,.86,0,1.33-.07l1.6-.19.3,2.33c-.58.1-1.15.18-1.71.23S596.11,446.75,595.48,446.75Z"/><path class="cls-8" d="M601.59,446.5v-2.33h8.86v2.33Zm.5-10.94v-2.33h4.43l.25,2.33Zm2.45,10.94V433.23h2.16l.5,3.81v9.46Zm2.66-5.71-.78-4.15h1q.22-3.66,3.65-3.66a3.58,3.58,0,0,1,3,1.18A6.16,6.16,0,0,1,615,438h-2.63a3.81,3.81,0,0,0-.43-2.09,1.57,1.57,0,0,0-1.4-.64,2.72,2.72,0,0,0-2.52,1.44A8.3,8.3,0,0,0,607.2,440.79Z"/><path class="cls-8" d="M623.12,446.75a5.3,5.3,0,0,1-4.28-1.8,9.22,9.22,0,0,1,0-10.17,6,6,0,0,1,8.57,0,9.27,9.27,0,0,1,0,10.17A5.32,5.32,0,0,1,623.12,446.75Zm0-2.37a2.58,2.58,0,0,0,2.26-1.18,7.35,7.35,0,0,0,0-6.67,2.77,2.77,0,0,0-4.52,0,7.43,7.43,0,0,0,0,6.67A2.58,2.58,0,0,0,623.12,444.38Z"/><path class="cls-8" d="M637.13,446.75a4.72,4.72,0,0,1-4-1.71,8,8,0,0,1-1.35-5.05,8.57,8.57,0,0,1,1.35-5.23,4.66,4.66,0,0,1,4-1.78,4,4,0,0,1,2.42.7,2.81,2.81,0,0,1,1.1,2h1l-.77,3.78a5.09,5.09,0,0,0-.81-3.12,2.79,2.79,0,0,0-2.37-1.06,2.76,2.76,0,0,0-2.43,1.2,6.29,6.29,0,0,0-.83,3.55,5.72,5.72,0,0,0,.83,3.37,3.17,3.17,0,0,0,4.8.08,5.09,5.09,0,0,0,.81-3.12l.9,3.78h-1.15a2.68,2.68,0,0,1-1.06,1.95A4,4,0,0,1,637.13,446.75Zm4-.12L640.9,444V427.73h2.65V446.5Z"/><path class="cls-8" d="M651.86,446.75a4.16,4.16,0,0,1-3.23-1.24,5,5,0,0,1-1.15-3.51v-8.77h2.66V442a2.3,2.3,0,0,0,.65,1.76,2.54,2.54,0,0,0,1.82.62,2.64,2.64,0,0,0,2.19-.92,5,5,0,0,0,.74-3.09l.68,3.58h-.88a3.6,3.6,0,0,1-1.22,2.08A3.54,3.54,0,0,1,651.86,446.75Zm3.68-4v-9.52h2.66V442Zm.23,3.88-.23-3.18v-2.33h2.66v3l1.82.28v2.12Z"/><path class="cls-8" d="M669.46,446.75a7.25,7.25,0,0,1-5.24-1.78,6.81,6.81,0,0,1-1.84-5.13,7,7,0,0,1,1.74-5,6.61,6.61,0,0,1,5-1.81,7.15,7.15,0,0,1,3.33.72,4.19,4.19,0,0,1,2,2l-2,1.54a4.16,4.16,0,0,0-1.44-1.42,3.85,3.85,0,0,0-1.92-.5,3.73,3.73,0,0,0-2.91,1.14,4.54,4.54,0,0,0-1,3.22,4.61,4.61,0,0,0,1.22,3.46,4.74,4.74,0,0,0,3.48,1.2q.93,0,1.86-.09t1.8-.24l.3,2.33a14.43,14.43,0,0,1-2.12.3C670.87,446.73,670.16,446.75,669.46,446.75Z"/><path class="cls-8" d="M676.57,435.56v-2.33h12v2.33Zm3.33,4.68v-11h2.66v11Zm5.71,6.51a6.26,6.26,0,0,1-4.36-1.25,5.22,5.22,0,0,1-1.35-4v-2.26h2.66v2.13a3,3,0,0,0,.77,2.29,3.64,3.64,0,0,0,2.53.72c.42,0,.86,0,1.33-.07l1.6-.19.3,2.33c-.58.1-1.15.18-1.71.23S686.24,446.75,685.61,446.75Z"/><path class="cls-8" d="M692.72,446.5v-2.33H698v2.33Zm.75-10.94v-2.33h7v2.33Zm5.55-4.43a1.86,1.86,0,0,1-1.31-3.17,1.88,1.88,0,0,1,2.62,0,1.87,1.87,0,0,1,0,2.63A1.77,1.77,0,0,1,699,431.13Zm-1.24,15.37V434h2.65V446.5Zm2.4,0v-2.33h4.33v2.33Z"/><path class="cls-8" d="M713.25,446.75A5.32,5.32,0,0,1,709,445a9.22,9.22,0,0,1,0-10.17,6,6,0,0,1,8.57,0,9.27,9.27,0,0,1,0,10.17A5.31,5.31,0,0,1,713.25,446.75Zm0-2.37a2.58,2.58,0,0,0,2.26-1.18,7.35,7.35,0,0,0,0-6.67,2.77,2.77,0,0,0-4.52,0,7.43,7.43,0,0,0,0,6.67A2.58,2.58,0,0,0,713.25,444.38Z"/><path class="cls-8" d="M722.87,446.5V433.23h2.4l.25,2.81V446.5Zm8.16,0v-8.63a2.57,2.57,0,0,0-.63-1.86,2.33,2.33,0,0,0-1.75-.65q-3.14,0-3.13,3.68l-.78-3.4h1a2.62,2.62,0,0,1,1-2,4.07,4.07,0,0,1,2.52-.66,4.17,4.17,0,0,1,3.26,1.28,5.18,5.18,0,0,1,1.15,3.61v8.63Z"/><path class="cls-8" d="M496.84,477.27V464h2.35l.3,2.8v10.47Zm5,0V466.88c0-.75-.35-1.13-1.05-1.13s-1.28.6-1.28,1.8l-.78-1.9h.85c.11-1.27.86-1.9,2.28-1.9a2,2,0,0,1,1.64.71,3.39,3.39,0,0,1,.59,2.17v10.64Zm4.58,0V467.13c0-.92-.34-1.38-1-1.38-.86,0-1.3.6-1.3,1.8l-.9-1.9h1a2,2,0,0,1,.62-1.34,2.16,2.16,0,0,1,1.6-.56,2.48,2.48,0,0,1,2,.74,3.66,3.66,0,0,1,.62,2.39v10.39Z"/><path class="cls-8" d="M519.12,477.52a7.24,7.24,0,0,1-5.24-1.79,6.77,6.77,0,0,1-1.85-5.12,7.44,7.44,0,0,1,1.57-5.06,5.53,5.53,0,0,1,4.42-1.8,5.31,5.31,0,0,1,4.16,1.63,6.82,6.82,0,0,1,1.47,4.73c0,.61,0,1.17-.07,1.7h-9.32v-2h7a4.06,4.06,0,0,0-.85-2.75,3,3,0,0,0-2.36-.95,3.18,3.18,0,0,0-2.62,1.15,5.05,5.05,0,0,0-.93,3.25,4.56,4.56,0,0,0,1.28,3.51,5.15,5.15,0,0,0,3.65,1.2,14.7,14.7,0,0,0,1.63-.09c.53-.07,1.07-.15,1.62-.26l.33,2.33a19.48,19.48,0,0,1-2.15.29C520.2,477.5,519.62,477.52,519.12,477.52Z"/><path class="cls-8" d="M532,477.52c-1,0-1.86,0-2.57-.09a13.53,13.53,0,0,1-2-.29l.3-2.4c.88.13,1.65.23,2.32.3a18.55,18.55,0,0,0,1.91.1,8,8,0,0,0,2.93-.39,1.33,1.33,0,0,0,.9-1.26,1.15,1.15,0,0,0-.32-.9,2.18,2.18,0,0,0-1-.45l-3-.78a7.73,7.73,0,0,1-2.89-1.24,2.71,2.71,0,0,1-.92-2.24,3.4,3.4,0,0,1,1.67-3.16,11.21,11.21,0,0,1,5.39-1c.64,0,1.24,0,1.8.05s1.12.11,1.71.2l-.28,2.3c-.67-.06-1.27-.11-1.79-.14l-1.51,0a9.66,9.66,0,0,0-3.23.38,1.3,1.3,0,0,0-1,1.24.9.9,0,0,0,.41.84,4.93,4.93,0,0,0,1.26.47l2.46.6a7.3,7.3,0,0,1,3.06,1.34,3.07,3.07,0,0,1,1,2.44,3.39,3.39,0,0,1-1.57,3.11A9.82,9.82,0,0,1,532,477.52Z"/><path class="cls-8" d="M547,477.52c-1,0-1.85,0-2.57-.09a13.74,13.74,0,0,1-2-.29l.3-2.4c.88.13,1.65.23,2.33.3a18.22,18.22,0,0,0,1.9.1,8,8,0,0,0,2.93-.39,1.33,1.33,0,0,0,.9-1.26,1.19,1.19,0,0,0-.31-.9,2.23,2.23,0,0,0-1-.45l-3-.78a7.8,7.8,0,0,1-2.89-1.24,2.71,2.71,0,0,1-.92-2.24,3.4,3.4,0,0,1,1.67-3.16,11.21,11.21,0,0,1,5.39-1c.65,0,1.24,0,1.8.05s1.12.11,1.71.2l-.28,2.3c-.67-.06-1.27-.11-1.79-.14l-1.51,0a9.7,9.7,0,0,0-3.23.38,1.3,1.3,0,0,0-1,1.24.9.9,0,0,0,.41.84,5.09,5.09,0,0,0,1.26.47l2.46.6A7.3,7.3,0,0,1,552.6,471a3,3,0,0,1,1,2.44,3.39,3.39,0,0,1-1.57,3.11A9.82,9.82,0,0,1,547,477.52Z"/><path class="cls-8" d="M561.08,477.52a4.76,4.76,0,0,1-3.22-1,3.57,3.57,0,0,1-1.14-2.83,3.75,3.75,0,0,1,1.57-3.23,7.55,7.55,0,0,1,4.44-1.13,13.36,13.36,0,0,1,2.12.15,7.3,7.3,0,0,1,1.66.43l-.55,1.8a8.6,8.6,0,0,0-1.64-.22c-.53,0-1.08,0-1.64,0q-3.45,0-3.45,2.1a1.63,1.63,0,0,0,.59,1.35,2.64,2.64,0,0,0,1.69.48,4.47,4.47,0,0,0,2.07-.43,3,3,0,0,0,1.24-1.08,2.55,2.55,0,0,0,.42-1.37v-1.45l.77,3.4h-1l.43-.4a3.25,3.25,0,0,1-.54,1.92,3.17,3.17,0,0,1-1.49,1.16A6.25,6.25,0,0,1,561.08,477.52Zm4.68-.13-.17-3.93-.35-1.1v-3.43a2.18,2.18,0,0,0-.94-1.95,5.38,5.38,0,0,0-2.77-.67l-3.18-.08.25-2.36,2.68,0a7.56,7.56,0,0,1,4.89,1.42,5,5,0,0,1,1.59,4v5.53l2.26.28v2.13Z"/><path class="cls-8" d="M577,477.52a4.71,4.71,0,0,1-3.95-1.72,8,8,0,0,1-1.34-5,8.55,8.55,0,0,1,1.34-5.23,4.65,4.65,0,0,1,3.95-1.78,4.18,4.18,0,0,1,2.52.7,2.72,2.72,0,0,1,1.12,1.95h1l-.9,3.78a5.06,5.06,0,0,0-.81-3.11,2.8,2.8,0,0,0-2.37-1.07,2.76,2.76,0,0,0-2.43,1.2,6.3,6.3,0,0,0-.83,3.56,5.74,5.74,0,0,0,.83,3.37,3.16,3.16,0,0,0,4.8.07,5.09,5.09,0,0,0,.81-3.12l.9,3.78h-1.15a2.66,2.66,0,0,1-1.06,2A4,4,0,0,1,577,477.52Zm-4.22,5.73-.12-2.43,4.25-.12a3.81,3.81,0,0,0,2.93-1.12,4.63,4.63,0,0,0,.93-3.09V466.8l.25-2.8h2.4v12.09c0,2.36-.54,4.11-1.61,5.23s-2.79,1.73-5.15,1.81Z"/><path class="cls-8" d="M594.23,477.52a7.24,7.24,0,0,1-5.24-1.79,6.77,6.77,0,0,1-1.85-5.12,7.44,7.44,0,0,1,1.57-5.06,5.53,5.53,0,0,1,4.42-1.8,5.31,5.31,0,0,1,4.16,1.63,6.82,6.82,0,0,1,1.47,4.73c0,.61,0,1.17-.07,1.7h-9.32v-2h7a4.06,4.06,0,0,0-.85-2.75,3,3,0,0,0-2.36-.95,3.18,3.18,0,0,0-2.62,1.15,5.05,5.05,0,0,0-.93,3.25,4.56,4.56,0,0,0,1.28,3.51,5.15,5.15,0,0,0,3.65,1.2,14.7,14.7,0,0,0,1.63-.09c.53-.07,1.07-.15,1.62-.26l.33,2.33a19.48,19.48,0,0,1-2.15.29C595.31,477.5,594.73,477.52,594.23,477.52Z"/><path class="cls-8" d="M608.1,477.52a1.76,1.76,0,0,1-1.31-.55,1.85,1.85,0,1,1,2.62,0A1.74,1.74,0,0,1,608.1,477.52Z"/><path class="cls-8" d="M623.12,477.52a1.86,1.86,0,0,1-1.85-1.85,1.86,1.86,0,0,1,3.17-1.32,1.88,1.88,0,0,1,0,2.62A1.77,1.77,0,0,1,623.12,477.52Z"/><path class="cls-8" d="M638.14,477.52a1.86,1.86,0,0,1-1.85-1.85,1.86,1.86,0,1,1,3.17,1.3A1.77,1.77,0,0,1,638.14,477.52Z"/><path class="cls-9" d="M1171,483s7.5,25.77,0,29.12c-6.68,3-11.49,6.82-20.63,6.82a34.17,34.17,0,0,1-3.55-.18l-11.54-1.13,49.38,82.31,29.88-16.07L1212.92,628c8.21,10.15,12.49,21.19,12.49,31.92,0,25.36-14.39,44.15-59.94,50,1.13,3.34,2.69,7.88,4.55,13a32.45,32.45,0,0,1,6.15-.66c5,0,9.84,1.61,11.24,7.25,1.83,7.35-4.21,11.21-9.85,13.18,1.93,4.76,3.94,9.44,6,13.74,11.68-5.11,27.51-14,28.87-24.84,1.14-9.11,9.81-15.21,16.93-15.21,6.45,0,11.62,5,8.72,17.41-4,17.16-31.83,26.54-50.33,31,3.75,6.83,7.31,11.42,10.09,11.42a2.61,2.61,0,0,0,.48-.05c10.86-2.17,13-8.68,13-8.68s3.79,29-25.82,29a53.45,53.45,0,0,1-6.76-.45,23.41,23.41,0,0,1,1.09,7.27c0,5.25-7,9.09-19.58,9.09a76.93,76.93,0,0,1-10-.71c-8.35-1.1-11.57-3.76-12.24-7a194.47,194.47,0,0,1-20.68.89c-5.52,0-10.87-.11-15.68-.11-2.91,0-5.63,0-8.2,0-8.53,0-15.48-.42-22.68-4.08a30.54,30.54,0,0,1-12.56,6.1,34.47,34.47,0,0,1-8.21,1.08c-14.12,0-18.21-11.37-18.47-19.2-10.38-4.79-28.7-19.77-28.7-19.77s5.79,2.89,10.94,2.89c2.58,0,5-.72,6.44-2.89,1.69-2.54,9.46-13.92,18.31-26.88-10-8.33,3-18.25,5.58-20.46,1.87-1.62,6.24-2.6,9.62-3.14,2.55-5.3,5.19-10.13,7.55-14.19-41.54-9.29-70.38-28-70.38-53.69,0-10.74,5-21.15,13.93-30.34a77.61,77.61,0,0,1,6.05-37c1,0,22.45,9.21,32.3,13.45.6-.22,1.23-.41,1.84-.63-.58-.55-.91-.88-.91-.88s56.46-73.84,58.63-78.18,28.23-17.37,32.58-17.37c2.89,0,10,4.82,16,4.82a7.47,7.47,0,0,0,7.28-4.82A54.58,54.58,0,0,1,1171,483m0-8a8,8,0,0,0-5.19,1.92,62.65,62.65,0,0,0-14.55,20l-.08.16c-1.86,0-5.06-1.4-7.4-2.4-3-1.3-5.67-2.42-8.5-2.42-3.61,0-10.61,2.67-20.79,7.95-15.74,8.16-17.94,11.85-18.86,13.68-2.83,4.63-34.22,46-55.23,73.54-26.88-11.56-27.57-11.56-29.56-11.56a8,8,0,0,0-7.33,4.8,85.07,85.07,0,0,0-6.91,37.26c-9,10.28-13.74,21.72-13.74,33.26,0,26.15,24,47.32,66.36,58.94l-1,1.85c-5.58,1.31-8,3-9.44,4.18l-.45.38c-3.17,2.67-11.6,9.77-11.59,19.23a15.55,15.55,0,0,0,1.79,7.24c-7.9,11.55-12.79,18.73-14.61,21.43h-.23a20.82,20.82,0,0,1-7.36-2.05,8,8,0,0,0-8.64,13.35c1.72,1.41,15.5,12.6,26.28,18.7,2.09,11.63,10.42,22.08,26,22.08a42.45,42.45,0,0,0,10.12-1.32,40.67,40.67,0,0,0,11.61-4.73c7.36,2.69,14.49,2.95,21.72,2.95l3.9,0,4.3,0c2.28,0,4.68,0,7.22,0,2.74,0,5.57.06,8.46.06,4.65,0,10.42-.07,16.35-.48,3.2,3.39,8.4,5.57,15.52,6.52a85.53,85.53,0,0,0,11,.77c19.41,0,26.89-8,27.53-16,10.11-.44,18.07-3.9,23.68-10.29,9.65-11,8-26,7.79-27.71A7.93,7.93,0,0,0,1218,763c1.37-.63,2.68-1.27,4-1.92,13.49-7,21.52-15.56,23.86-25.54,2.58-11-.18-17.48-3-21a16.87,16.87,0,0,0-13.56-6.26c-10.62,0-23.15,8.49-24.87,22.22-.36,2.92-4.21,7.71-13.39,13.09a17.2,17.2,0,0,0,4.12-16.11A16.61,16.61,0,0,0,1182.51,715c15.38-3.56,27-9.13,35.44-16.9,10.26-9.48,15.46-22.33,15.46-38.18,0-11.76-4.27-23.64-12.39-34.53l1.53-41.19a8,8,0,0,0-11.78-7.34l-23.16,12.46-37.41-62.34h.18c8.95,0,14.74-3,19.85-5.55,1.38-.7,2.69-1.36,4-2,10.16-4.53,8.14-19.33,7.48-24.2a111.7,111.7,0,0,0-3.06-14.45,8,8,0,0,0-5.39-5.43A7.8,7.8,0,0,0,1171,475Z"/><path class="cls-10" d="M1163.52,704s23.89,74.28,34.75,72.1,13-8.68,13-8.68,4.34,33.24-32.58,28.56-134.64-3.7-143.33-5.27-32.58-21.12-32.58-21.12,13,6.51,17.38,0S1069,698.08,1069,698.08Z"/><path class="cls-11" d="M1212.38,731.54c-1.77,14.16-28.12,24.92-37.82,28.41a118.42,118.42,0,0,0-.89-16.19c6.19-1.44,16-5.18,13.74-14.3-2.2-8.87-12.83-7.77-19.5-6.13-2.06-4.56-4.49-9.17-6.63-13,48.87-5.16,64.13-24.32,64.13-50.44,0-10.73-4.28-21.77-12.49-31.92l1.63-44.09-35.06,18.86c-19.1-9.18-43.81-15.18-73.52-15.6-23.29-.34-44.82,3.52-62.82,10.19-9.85-4.24-31.3-13.45-32.3-13.45a77.61,77.61,0,0,0-6.05,37c-8.89,9.19-13.93,19.6-13.93,30.34,0,25.7,28.84,44.4,70.38,53.69-2.36,4.06-5,8.89-7.55,14.19-3.38.54-7.75,1.52-9.62,3.14-2.91,2.51-19.26,15-.18,23.75-2.78,12.21-2.67,24.17,3.55,33.06-6.65.16-14.15,1.13-15.32,4.64-2.17,6.52,0,30.17,26.06,23.78a30.54,30.54,0,0,0,12.56-6.1c9.37,4.76,18.31,4,30.88,4,10.77,0,24.22.53,36.36-.78.67,3.23,3.89,5.89,12.24,7,18.72,2.48,29.58-1.86,29.58-8.38,0-4.86-1.22-13.34-10-16.44a63.15,63.15,0,0,0,4.35-19.34c12.58-2.1,58.56-11.24,63.82-33.69C1244.13,707.71,1214.55,714.17,1212.38,731.54Z"/><path class="cls-10" d="M1187.41,604.5s-24-6.52-45.64,0-49.92,13-65.12,10.86-32.57-19.55-32.57-19.55,56.46-73.84,58.63-78.18,28.23-17.37,32.58-17.37,18.26,10.86,23.25,0A54.58,54.58,0,0,1,1171,483s7.5,25.77,0,29.12-12.64,7.78-24.18,6.64l-11.54-1.13Z"/><ellipse class="cls-12" cx="1114.66" cy="676.17" rx="8.69" ry="5.43"/><path class="cls-9" d="M1166.81,698.08s-10.55,13.23-27.55,0-20-17.31-20-17.31,7.63-13.29,23.78-4.6S1163.58,698.28,1166.81,698.08Z"/><path class="cls-9" d="M1062.78,698.08s10.56,13.23,27.56,0,20-17.31,20-17.31-7.64-13.29-23.79-4.6S1066,698.28,1062.78,698.08Z"/><path class="cls-9" d="M1114.86,684.23s55.17,15.82,46.49,37.54c-6.52,13-39.09,13-32.58,30.41s21.72,8.68,21.72,8.68-8.69,15.2-17.37,15.2a21.07,21.07,0,0,1-13.87-5s.84,11.54,7.35,11.54c0,2.17-36.64-9-40-36,1.9-1.9-1.22-11.81-3.39-5.29s0,16.73,0,16.73-29.11-38-3.7-60C1082.52,693.34,1098.78,683.6,1114.86,684.23Z"/><rect class="cls-10" x="1180.11" y="667.46" width="19.2" height="5.82"/><rect class="cls-10" x="1032.36" y="667.46" width="22.69" height="5.82"/><circle class="cls-8" cx="1187" cy="659" r="11"/><circle class="cls-8" cx="1044" cy="659" r="11"/><path class="cls-9" d="M481,957s7.5,25.77,0,29.12c-6.68,3-11.49,6.82-20.63,6.82a34.17,34.17,0,0,1-3.55-.18l-11.54-1.13,49.38,82.31,29.88-16.07L522.92,1102c8.21,10.15,12.49,21.19,12.49,31.92,0,25.36-14.39,44.15-59.94,49.95,1.13,3.34,2.69,7.88,4.55,13a32.45,32.45,0,0,1,6.15-.66c5,0,9.84,1.61,11.24,7.25,1.83,7.35-4.21,11.21-9.85,13.18,1.93,4.76,3.94,9.44,5.95,13.74,11.68-5.11,27.51-14,28.87-24.84,1.14-9.1,9.81-15.21,16.93-15.21,6.45,0,11.62,5,8.72,17.41-4,17.16-31.83,26.54-50.33,31,3.75,6.83,7.31,11.42,10.09,11.42a2.61,2.61,0,0,0,.48,0c10.86-2.17,13-8.68,13-8.68s3.79,29-25.82,29a53.45,53.45,0,0,1-6.76-.45,23.41,23.41,0,0,1,1.09,7.27c0,5.25-7.05,9.09-19.58,9.09a76.93,76.93,0,0,1-10-.71c-8.35-1.1-11.57-3.76-12.24-7a194.47,194.47,0,0,1-20.68.89c-5.52,0-10.87-.11-15.68-.11-2.91,0-5.63,0-8.2,0-8.53,0-15.48-.42-22.68-4.08a30.54,30.54,0,0,1-12.56,6.1,34.47,34.47,0,0,1-8.21,1.08c-14.12,0-18.21-11.37-18.47-19.2-10.38-4.79-28.7-19.77-28.7-19.77s5.79,2.89,10.94,2.89c2.58,0,5-.72,6.44-2.89,1.69-2.54,9.46-13.92,18.31-26.88-9.95-8.33,3-18.25,5.58-20.46,1.87-1.62,6.24-2.6,9.62-3.14,2.55-5.3,5.19-10.13,7.55-14.19-41.54-9.29-70.38-28-70.38-53.69,0-10.74,5-21.15,13.93-30.34a77.61,77.61,0,0,1,6.05-37c1,0,22.45,9.21,32.3,13.45.6-.22,1.23-.41,1.84-.63-.58-.55-.91-.88-.91-.88s56.46-73.84,58.63-78.18,28.23-17.37,32.58-17.37c2.89,0,10,4.82,16,4.82a7.47,7.47,0,0,0,7.28-4.82A54.58,54.58,0,0,1,481,957m0-8a8,8,0,0,0-5.19,1.92,62.65,62.65,0,0,0-14.55,20l-.08.16c-1.86,0-5.06-1.4-7.4-2.4-3.05-1.3-5.67-2.42-8.5-2.42-3.61,0-10.61,2.67-20.79,8-15.74,8.16-17.94,11.85-18.86,13.68-2.83,4.63-34.22,46-55.23,73.54-26.88-11.56-27.57-11.56-29.56-11.56a8,8,0,0,0-7.33,4.8,85.07,85.07,0,0,0-6.91,37.26c-9,10.28-13.74,21.72-13.74,33.26,0,26.15,24,47.32,66.36,58.94l-1,1.85c-5.58,1.31-8,3-9.44,4.18l-.45.38c-3.17,2.67-11.6,9.77-11.59,19.23a15.55,15.55,0,0,0,1.79,7.24c-7.9,11.55-12.79,18.73-14.61,21.43h-.23a20.82,20.82,0,0,1-7.36-2,8,8,0,0,0-8.64,13.35c1.72,1.41,15.5,12.6,26.28,18.7,2.09,11.63,10.42,22.08,26,22.08a42.45,42.45,0,0,0,10.12-1.32,40.67,40.67,0,0,0,11.61-4.73c7.36,2.69,14.49,3,21.72,3l3.9,0,4.3,0c2.28,0,4.68,0,7.22,0,2.74,0,5.57.06,8.46.06,4.65,0,10.42-.07,16.35-.48,3.2,3.39,8.4,5.57,15.52,6.52a85.53,85.53,0,0,0,11.05.77c19.41,0,26.89-8,27.53-16,10.11-.44,18.07-3.9,23.68-10.29,9.65-11,8-26,7.79-27.71A7.93,7.93,0,0,0,528,1237c1.37-.63,2.68-1.27,4-1.92,13.49-7,21.52-15.56,23.86-25.54,2.58-11-.18-17.48-3-21a16.87,16.87,0,0,0-13.56-6.26c-10.62,0-23.15,8.49-24.87,22.22-.36,2.92-4.21,7.71-13.39,13.09a17.2,17.2,0,0,0,4.12-16.11A16.61,16.61,0,0,0,492.51,1189c15.38-3.56,27-9.13,35.44-16.9,10.26-9.48,15.46-22.33,15.46-38.18,0-11.76-4.27-23.64-12.39-34.53l1.53-41.19a8,8,0,0,0-11.78-7.34l-23.16,12.46-37.41-62.34h.18c8.95,0,14.74-3,19.86-5.55,1.37-.7,2.68-1.36,4-2,10.16-4.53,8.14-19.33,7.48-24.2a111.7,111.7,0,0,0-3.06-14.45,8,8,0,0,0-5.39-5.43A7.8,7.8,0,0,0,481,949Z"/><path class="cls-10" d="M481,1181s36.41,71.24,47.27,69.06,13-8.68,13-8.68,4.34,33.24-32.58,28.56-134.64-3.7-143.33-5.27-32.58-21.12-32.58-21.12,13,6.51,17.38,0S399,1172.08,399,1172.08Z"/><path class="cls-11" d="M522.38,1205.54c-1.77,14.16-28.12,24.92-37.82,28.41a118.42,118.42,0,0,0-.89-16.19c6.19-1.44,16-5.18,13.74-14.3-2.2-8.87-12.83-7.77-19.5-6.13-2.06-4.56-4.49-9.17-6.63-13,48.87-5.16,64.13-24.32,64.13-50.44,0-10.73-4.28-21.77-12.49-31.92l1.63-44.09-35.06,18.86c-19.1-9.18-43.81-15.18-73.52-15.6-23.29-.34-44.82,3.52-62.82,10.19-9.85-4.24-31.3-13.45-32.3-13.45a77.61,77.61,0,0,0-6.05,37c-8.89,9.19-13.93,19.6-13.93,30.34,0,25.7,28.84,44.4,70.38,53.69-2.36,4.06-5,8.89-7.55,14.19-3.38.54-7.75,1.52-9.62,3.14-2.91,2.51-19.26,15-.18,23.75-2.78,12.21-2.67,24.17,3.55,33.06-6.65.16-14.15,1.13-15.32,4.64-2.17,6.52,0,30.17,26.06,23.78a30.54,30.54,0,0,0,12.56-6.1c9.37,4.76,18.31,4,30.88,4,10.77,0,24.22.53,36.36-.78.67,3.23,3.89,5.89,12.24,7,18.72,2.48,29.58-1.86,29.58-8.38,0-4.86-1.22-13.34-9.95-16.44a63.15,63.15,0,0,0,4.35-19.34c12.58-2.1,58.56-11.24,63.82-33.69C554.13,1181.71,524.55,1188.17,522.38,1205.54Z"/><path class="cls-10" d="M497.41,1078.5s-24-6.52-45.64,0-49.92,13-65.12,10.86-32.57-19.55-32.57-19.55,56.46-73.84,58.63-78.18,28.23-17.37,32.58-17.37,18.26,10.86,23.25,0A54.58,54.58,0,0,1,481,957s7.5,25.77,0,29.12-12.64,7.78-24.18,6.64l-11.54-1.13Z"/><ellipse class="cls-12" cx="364.66" cy="1147.17" rx="8.69" ry="5.43"/><path class="cls-9" d="M416.81,1169.08s-10.55,13.23-27.55,0-20-17.31-20-17.31,7.63-13.29,23.78-4.6S413.58,1169.28,416.81,1169.08Z"/><path class="cls-9" d="M312.78,1169.08s10.56,13.23,27.56,0,20-17.31,20-17.31-7.64-13.29-23.79-4.6S316,1169.28,312.78,1169.08Z"/><path class="cls-9" d="M364.86,1155.23s55.17,15.82,46.49,37.54c-6.52,13-39.09,13-32.58,30.41s21.72,8.68,21.72,8.68-8.69,15.2-17.37,15.2a21.07,21.07,0,0,1-13.87-5s.84,11.54,7.35,11.54c0,2.17-36.64-9-40-36,1.9-1.9-1.22-11.81-3.39-5.29s0,16.73,0,16.73-29.11-38-3.7-60C332.52,1164.34,348.78,1154.6,364.86,1155.23Z"/><path class="cls-10" d="M480,1197s-27.73,10-42.87,7.52-24.85-22.8-24.85-22.8S439,1186.09,452,1186a140.49,140.49,0,0,0,23-2Z"/><rect class="cls-10" x="445.11" y="1151.46" width="19.2" height="5.82"/><circle class="cls-8" cx="452" cy="1143" r="11"/><rect class="cls-10" x="304.36" y="1128.46" width="22.69" height="5.82"/><circle class="cls-8" cx="316" cy="1120" r="11"/><path class="cls-5" d="M601.61,1141.74S753,1235.48,857,1221.24s497.55-119.46,349.28-197.85S805,949.52,724,988.76,601.61,1141.74,601.61,1141.74Z"/><path class="cls-13" d="M619.61,1141.74S771,1235.48,875,1221.24s497.55-119.46,349.28-197.85S823,949.52,742,988.76,619.61,1141.74,619.61,1141.74Z"/><rect x="688.15" y="1021.51" width="404.34" height="137.49" rx="68.3"/><path class="cls-8" d="M779.33,1050,774,1048.5l.86-2.37,5.1,2.28ZM777,1054.3l-1.92-1.62,3.89-4,1.3,1.12Zm1.76-5.08-.39-5.57h2.51l-.4,5.57Zm3.48,5.08-3.27-4.52,1.3-1.12,3.9,4Zm-2.32-4.27-.6-1.62,5.1-2.28.86,2.37Z"/><path class="cls-8" d="M787.75,1047v-2h11.6v2Zm0,6.15v-2h11.6v2Zm1.56,4.17,1.39-16.47h2l-1.39,16.47Zm5.05,0,1.39-16.47h2l-1.39,16.47Z"/><path class="cls-8" d="M806.9,1057.52a14.57,14.57,0,0,1-2.63-.22,10.71,10.71,0,0,1-2.27-.68l.31-2.34a15.84,15.84,0,0,0,2.46.83,10.41,10.41,0,0,0,2.31.28,4.15,4.15,0,0,0,2.42-.57,2,2,0,0,0,.79-1.73,2.26,2.26,0,0,0-1.51-2.15l-2.86-1.3a7.15,7.15,0,0,1-2.58-1.85,4.09,4.09,0,0,1-.89-2.68,4.32,4.32,0,0,1,1.29-3.34,5.33,5.33,0,0,1,3.68-1.18,8,8,0,0,1,2.93.49,7.38,7.38,0,0,1,2.46,1.59l-1.62,1.64a8.29,8.29,0,0,0-1.91-1.21,4.7,4.7,0,0,0-1.85-.37,2.75,2.75,0,0,0-1.85.57,2.16,2.16,0,0,0-.65,1.7,1.91,1.91,0,0,0,.43,1.3,3.52,3.52,0,0,0,1.26.9l2.41,1.14a8.64,8.64,0,0,1,2.79,1.93,4.08,4.08,0,0,1,.95,2.78,4,4,0,0,1-1.46,3.35A7.16,7.16,0,0,1,806.9,1057.52Zm-.08,3.48v-23.89h1.6V1061Z"/><path class="cls-8" d="M819.78,1057.52a4.92,4.92,0,0,1-3.41-1.15,3.91,3.91,0,0,1-1.29-3.07,4.23,4.23,0,0,1,1.15-3.06,5.47,5.47,0,0,1,3.25-1.51l1.28,1.42a5.1,5.1,0,0,0-2.47,1.1,2.53,2.53,0,0,0-.87,1.94,2,2,0,0,0,.72,1.59,2.89,2.89,0,0,0,1.92.61,4.06,4.06,0,0,0,3.55-1.82,9,9,0,0,0,1.25-5.16h2.23a10.53,10.53,0,0,1-1.91,6.73A6.54,6.54,0,0,1,819.78,1057.52Zm5.8-.23-6-6.56a13.83,13.83,0,0,1-2.17-3,5.62,5.62,0,0,1-.66-2.54,4.56,4.56,0,0,1,1.23-3.42,4.83,4.83,0,0,1,3.5-1.2l0,2.14a2.09,2.09,0,0,0-1.64.64,2.66,2.66,0,0,0-.59,1.86,3.4,3.4,0,0,0,.45,1.66,9.25,9.25,0,0,0,1.22,1.7l7.63,8.7Zm-2.16-13a1.38,1.38,0,0,0-.49-1.15,2.12,2.12,0,0,0-1.38-.4l0-2.14a4.94,4.94,0,0,1,3.25,1,3.37,3.37,0,0,1,1.16,2.73Z"/><path class="cls-8" d="M835.3,1057.52a1.71,1.71,0,0,1-1.21-2.93,1.72,1.72,0,0,1,2.43,2.43A1.63,1.63,0,0,1,835.3,1057.52Zm-1.14-5.52-.07-11.29h2.42l-.12,11.29Z"/><path class="cls-8" d="M863.13,1057.52a1.64,1.64,0,0,1-1.21-.5,1.72,1.72,0,1,1,2.43,0A1.63,1.63,0,0,1,863.13,1057.52Z"/><path class="cls-8" d="M877.05,1057.52a1.72,1.72,0,0,1-1.21-2.93,1.72,1.72,0,0,1,2.43,2.43A1.63,1.63,0,0,1,877.05,1057.52Z"/><path class="cls-8" d="M891,1057.52a1.62,1.62,0,0,1-1.21-.5,1.72,1.72,0,0,1,1.21-2.93,1.72,1.72,0,0,1,1.22,2.93A1.64,1.64,0,0,1,891,1057.52Z"/><path class="cls-8" d="M913.79,1043v-2.21h10V1043Zm0,14.26v-2.2h10v2.2Zm3.79,0v-16.47H920v16.47Z"/><path class="cls-8" d="M940.47,1049.87v-2.16h11.36v2.16Zm3.87,7.42V1046q0-6.37,5.82-6.38a13.29,13.29,0,0,1,2.55.24l-.25,2.13c-.49-.06-.92-.11-1.29-.13l-1.08,0q-3.29,0-3.29,4.06v11.36Z"/><path class="cls-8" d="M960.55,1057.52a4.88,4.88,0,0,1-4-1.67,8.52,8.52,0,0,1,0-9.42,5.58,5.58,0,0,1,7.94,0,8.57,8.57,0,0,1,0,9.42A4.91,4.91,0,0,1,960.55,1057.52Zm0-2.2a2.38,2.38,0,0,0,2.1-1.09,6.9,6.9,0,0,0,0-6.18,2.57,2.57,0,0,0-4.19,0,6.82,6.82,0,0,0,0,6.18A2.37,2.37,0,0,0,960.55,1055.32Z"/><path class="cls-8" d="M968.44,1057.29v-2.16h8.21v2.16Zm.46-10.13V1045H973l.23,2.16Zm2.28,10.13V1045h2l.47,3.52v8.77Zm2.46-5.29-.72-3.85h1q.21-3.37,3.38-3.38a3.28,3.28,0,0,1,2.76,1.09,5.65,5.65,0,0,1,.86,3.52h-2.43a3.61,3.61,0,0,0-.4-1.93,1.45,1.45,0,0,0-1.3-.6,2.52,2.52,0,0,0-2.33,1.34A7.69,7.69,0,0,0,973.64,1052Z"/><path class="cls-8" d="M987.45,1057.52a4.37,4.37,0,0,1-3.66-1.59,7.43,7.43,0,0,1-1.25-4.67,8,8,0,0,1,1.25-4.85,4.32,4.32,0,0,1,3.66-1.64,3.83,3.83,0,0,1,2.33.65,2.5,2.5,0,0,1,1,1.81h.95l-.83,3.5a4.72,4.72,0,0,0-.75-2.89,2.88,2.88,0,0,0-4.45.13,5.82,5.82,0,0,0-.76,3.29,5.28,5.28,0,0,0,.76,3.12,2.61,2.61,0,0,0,2.25,1.06,2.58,2.58,0,0,0,2.2-1,4.72,4.72,0,0,0,.75-2.89l.83,3.5h-1.06a2.47,2.47,0,0,1-1,1.81A3.67,3.67,0,0,1,987.45,1057.52Zm-3.91,5.31-.12-2.25,4-.11a3.57,3.57,0,0,0,2.71-1,4.29,4.29,0,0,0,.86-2.87v-9l.23-2.6h2.23v11.2a6.79,6.79,0,0,1-1.5,4.85,6.66,6.66,0,0,1-4.76,1.67Z"/><path class="cls-8" d="M1002.3,1057.52a4.88,4.88,0,0,1-4-1.67,8.52,8.52,0,0,1,0-9.42,5.58,5.58,0,0,1,7.94,0,8.57,8.57,0,0,1,0,9.42A4.91,4.91,0,0,1,1002.3,1057.52Zm0-2.2a2.38,2.38,0,0,0,2.1-1.09,6.9,6.9,0,0,0,0-6.18,2.57,2.57,0,0,0-4.19,0,6.9,6.9,0,0,0,0,6.18A2.37,2.37,0,0,0,1002.3,1055.32Z"/><path class="cls-8" d="M1010.07,1047.16V1045h11.14v2.16Zm3.09,4.33v-10.2h2.46v10.2Zm5.29,6a5.77,5.77,0,0,1-4-1.16,4.86,4.86,0,0,1-1.25-3.71v-2.09h2.46v2a2.79,2.79,0,0,0,.71,2.12,3.42,3.42,0,0,0,2.35.66q.59,0,1.23-.06l1.48-.17.28,2.16c-.54.09-1.07.16-1.58.2S1019,1057.52,1018.45,1057.52Z"/><path class="cls-8" d="M1037.91,1047.16V1045H1049v2.16Zm3.08,4.33v-10.2h2.46v10.2Zm5.29,6a5.79,5.79,0,0,1-4-1.16,4.86,4.86,0,0,1-1.25-3.71v-2.09h2.46v2a2.76,2.76,0,0,0,.72,2.12,3.37,3.37,0,0,0,2.34.66q.59,0,1.23-.06l1.49-.17.28,2.16c-.55.09-1.07.16-1.59.2S1046.86,1057.52,1046.28,1057.52Z"/><path class="cls-8" d="M1053,1057.29V1039.9h2.46v17.39Zm7.56,0v-8a2.55,2.55,0,0,0-.58-1.8,2,2,0,0,0-1.62-.64q-2.89,0-2.9,3.53l-.72-3.15h1a2.42,2.42,0,0,1,.91-1.85,3.78,3.78,0,0,1,2.34-.61,3.87,3.87,0,0,1,3,1.18,4.82,4.82,0,0,1,1.06,3.34v8Z"/><path class="cls-8" d="M1073,1057.52a6.72,6.72,0,0,1-4.86-1.65,6.29,6.29,0,0,1-1.71-4.75,6.93,6.93,0,0,1,1.45-4.68,5.12,5.12,0,0,1,4.1-1.67,4.94,4.94,0,0,1,3.85,1.5,6.34,6.34,0,0,1,1.36,4.39,15.37,15.37,0,0,1-.07,1.57h-8.62v-1.87h6.47a3.69,3.69,0,0,0-.79-2.55,2.78,2.78,0,0,0-2.18-.89,3,3,0,0,0-2.43,1.07,4.66,4.66,0,0,0-.86,3,4.22,4.22,0,0,0,1.18,3.24,4.74,4.74,0,0,0,3.38,1.12,12.38,12.38,0,0,0,1.51-.09c.5-.06,1-.14,1.51-.24l.3,2.16a16.44,16.44,0,0,1-2,.27C1074,1057.5,1073.42,1057.52,1073,1057.52Z"/><path class="cls-8" d="M773.6,1085.79v-2.15h8.21v2.15Zm.47-10.13v-2.16h4.1l.23,2.16Zm2.27,10.13V1073.5h2l.47,3.53v8.76Zm2.46-5.29-.72-3.85H779q.21-3.37,3.39-3.38a3.31,3.31,0,0,1,2.76,1.09,5.72,5.72,0,0,1,.86,3.52H783.6a3.52,3.52,0,0,0-.4-1.93,1.44,1.44,0,0,0-1.29-.59,2.52,2.52,0,0,0-2.34,1.33A7.69,7.69,0,0,0,778.8,1080.5Z"/><path class="cls-8" d="M794.62,1086a6.72,6.72,0,0,1-4.86-1.65,6.29,6.29,0,0,1-1.71-4.75,6.93,6.93,0,0,1,1.45-4.68,5.12,5.12,0,0,1,4.1-1.67,4.91,4.91,0,0,1,3.85,1.51,6.3,6.3,0,0,1,1.37,4.38c0,.56,0,1.09-.07,1.58h-8.63v-1.88h6.47a3.69,3.69,0,0,0-.79-2.55,2.78,2.78,0,0,0-2.18-.89,3,3,0,0,0-2.43,1.07,4.66,4.66,0,0,0-.86,3,4.22,4.22,0,0,0,1.18,3.24,4.75,4.75,0,0,0,3.39,1.12,12.33,12.33,0,0,0,1.5-.09c.5-.06,1-.14,1.51-.24l.3,2.16a16.18,16.18,0,0,1-2,.27C795.61,1086,795.08,1086,794.62,1086Z"/><path class="cls-8" d="M808.65,1086a6.69,6.69,0,0,1-4.85-1.65,6.29,6.29,0,0,1-1.71-4.75,6.47,6.47,0,0,1,1.61-4.68,6.12,6.12,0,0,1,4.63-1.67,6.63,6.63,0,0,1,3.07.66,3.9,3.9,0,0,1,1.83,1.89l-1.89,1.43a3.63,3.63,0,0,0-1.33-1.31,3.53,3.53,0,0,0-1.78-.47,3.47,3.47,0,0,0-2.7,1,4.28,4.28,0,0,0-1,3,4.24,4.24,0,0,0,1.13,3.2,4.41,4.41,0,0,0,3.23,1.11c.57,0,1.14,0,1.71-.08s1.13-.13,1.67-.22l.28,2.16a13.81,13.81,0,0,1-2,.28Q809.61,1086,808.65,1086Z"/><path class="cls-8" d="M821.38,1086a4.88,4.88,0,0,1-4-1.67,8.52,8.52,0,0,1,0-9.42,5.58,5.58,0,0,1,7.94,0,8.57,8.57,0,0,1,0,9.42A4.91,4.91,0,0,1,821.38,1086Zm0-2.2a2.38,2.38,0,0,0,2.1-1.09,6.88,6.88,0,0,0,0-6.17,2.56,2.56,0,0,0-4.19,0,6.8,6.8,0,0,0,0,6.17A2.37,2.37,0,0,0,821.38,1083.82Z"/><path class="cls-8" d="M829.27,1085.79v-2.15h8.21v2.15Zm.46-10.13v-2.16h4.11l.23,2.16Zm2.28,10.13V1073.5h2l.47,3.53v8.76Zm2.46-5.29-.72-3.85h1q.21-3.37,3.38-3.38a3.28,3.28,0,0,1,2.76,1.09,5.65,5.65,0,0,1,.86,3.52h-2.43a3.61,3.61,0,0,0-.4-1.93,1.44,1.44,0,0,0-1.3-.59,2.51,2.51,0,0,0-2.33,1.33A7.69,7.69,0,0,0,834.47,1080.5Z"/><path class="cls-8" d="M848.28,1086a4.36,4.36,0,0,1-3.66-1.58,7.48,7.48,0,0,1-1.25-4.68,8,8,0,0,1,1.25-4.85,4.32,4.32,0,0,1,3.66-1.64,3.57,3.57,0,0,1,2.24.65,2.55,2.55,0,0,1,1,1.81h1l-.72,3.5a4.72,4.72,0,0,0-.75-2.89,2.89,2.89,0,0,0-4.45.13,5.82,5.82,0,0,0-.76,3.29,5.28,5.28,0,0,0,.76,3.12,2.93,2.93,0,0,0,4.45.07,4.72,4.72,0,0,0,.75-2.89l.83,3.51h-1.06a2.51,2.51,0,0,1-1,1.81A3.73,3.73,0,0,1,848.28,1086Zm3.74-.11-.25-2.41v-15.1h2.46v17.39Z"/><path class="cls-8" d="M872,1091.13V1073.5h2.23l.23,2.6v15Zm6-5.11a3.73,3.73,0,0,1-2.28-.64,2.51,2.51,0,0,1-1-1.81h-1.06l.83-3.51a4.72,4.72,0,0,0,.75,2.89,2.93,2.93,0,0,0,4.45-.07,5.28,5.28,0,0,0,.76-3.12,5.82,5.82,0,0,0-.76-3.29,2.89,2.89,0,0,0-4.45-.13,4.72,4.72,0,0,0-.75,2.89l-.83-3.5h1a2.51,2.51,0,0,1,1-1.81,3.78,3.78,0,0,1,2.32-.65,4.33,4.33,0,0,1,3.67,1.64,8,8,0,0,1,1.24,4.85,7.55,7.55,0,0,1-1.24,4.68A4.37,4.37,0,0,1,878,1086Z"/><path class="cls-8" d="M885.15,1070.55v-2.15H889v2.15ZM892.8,1086a3.76,3.76,0,0,1-3.08-1.15,5.84,5.84,0,0,1-1-3.72V1068.4h2.45V1081a5.75,5.75,0,0,0,.19,1.59,1.46,1.46,0,0,0,.72.9,3.54,3.54,0,0,0,1.6.29,9.28,9.28,0,0,0,2.46-.44l.28,2.16a14.56,14.56,0,0,1-1.81.37A13.49,13.49,0,0,1,892.8,1086Z"/><path class="cls-8" d="M903.08,1086a4.34,4.34,0,0,1-3-.92,3.3,3.3,0,0,1-1.06-2.62,3.48,3.48,0,0,1,1.46-3,7,7,0,0,1,4.11-1,12.79,12.79,0,0,1,2,.13,7.67,7.67,0,0,1,1.54.4l-.51,1.67a9.06,9.06,0,0,0-1.52-.2c-.49,0-1,0-1.52,0-2.13,0-3.2.65-3.2,1.95a1.49,1.49,0,0,0,.55,1.25,2.41,2.41,0,0,0,1.56.44,4.21,4.21,0,0,0,1.92-.39,2.79,2.79,0,0,0,1.15-1,2.33,2.33,0,0,0,.39-1.26V1080l.72,3.16h-1l.4-.38a3,3,0,0,1-.5,1.78,2.87,2.87,0,0,1-1.38,1.07A5.66,5.66,0,0,1,903.08,1086Zm4.33-.11-.16-3.64-.32-1v-3.18a2,2,0,0,0-.87-1.8,4.83,4.83,0,0,0-2.57-.62l-2.94-.09.23-2.18,2.48,0a7,7,0,0,1,4.53,1.31,4.62,4.62,0,0,1,1.48,3.71v5.13l2.09.25v2Z"/><path class="cls-8" d="M917.38,1085.79l-4.9-12.29H915l4,10.44h.37v1.85Zm-4.67,5.57-.11-2.2,1.92-.24a5.41,5.41,0,0,0,2.09-.66,4.35,4.35,0,0,0,1.47-1.51,10.65,10.65,0,0,0,1.08-2.63l3.06-10.62h2.56l-3.55,11.2a15.55,15.55,0,0,1-1.56,3.55,6,6,0,0,1-2,2,7.41,7.41,0,0,1-2.83.86Z"/><path class="cls-8" d="M933.79,1086a6.72,6.72,0,0,1-4.86-1.65,6.29,6.29,0,0,1-1.71-4.75,6.93,6.93,0,0,1,1.45-4.68,5.12,5.12,0,0,1,4.1-1.67,4.91,4.91,0,0,1,3.85,1.51,6.3,6.3,0,0,1,1.37,4.38c0,.56,0,1.09-.07,1.58h-8.63v-1.88h6.47a3.69,3.69,0,0,0-.79-2.55,2.78,2.78,0,0,0-2.18-.89,3,3,0,0,0-2.43,1.07,4.66,4.66,0,0,0-.86,3,4.22,4.22,0,0,0,1.18,3.24,4.75,4.75,0,0,0,3.39,1.12,12.33,12.33,0,0,0,1.5-.09c.5-.06,1-.14,1.51-.24l.3,2.16a16.18,16.18,0,0,1-2,.27C934.78,1086,934.25,1086,933.79,1086Z"/><path class="cls-8" d="M940.61,1085.79v-2.15h8.21v2.15Zm.46-10.13v-2.16h4.11l.23,2.16Zm2.27,10.13V1073.5h2l.46,3.53v8.76Zm2.46-5.29-.72-3.85H946q.21-3.37,3.39-3.38a3.28,3.28,0,0,1,2.76,1.09,5.72,5.72,0,0,1,.86,3.52H950.6a3.52,3.52,0,0,0-.4-1.93,1.43,1.43,0,0,0-1.29-.59,2.54,2.54,0,0,0-2.34,1.33A7.8,7.8,0,0,0,945.8,1080.5Z"/><path class="cls-8" d="M960.55,1086a1.64,1.64,0,0,1-1.21-.5,1.72,1.72,0,1,1,2.43,0A1.63,1.63,0,0,1,960.55,1086Z"/><path class="cls-8" d="M974.47,1086a1.71,1.71,0,0,1-1.21-2.93,1.72,1.72,0,0,1,2.43,2.43A1.63,1.63,0,0,1,974.47,1086Z"/><path class="cls-8" d="M988.39,1086a1.62,1.62,0,0,1-1.21-.5,1.72,1.72,0,0,1,1.21-2.93,1.68,1.68,0,0,1,1.22.5,1.72,1.72,0,0,1-1.22,2.93Z"/><path class="cls-9" d="M962.71,1448a54.52,54.52,0,0,1,12.48,17.26,7.47,7.47,0,0,0,7.28,4.82c5.92,0,13.07-4.82,16-4.82,4.34,0,30.4,13,32.58,17.37s58.63,78.18,58.63,78.18-.33.33-.91.88c.6.22,1.24.41,1.84.63,9.85-4.24,31.3-13.45,32.3-13.45a77.61,77.61,0,0,1,6,37c8.89,9.19,13.93,19.6,13.93,30.34,0,25.7-28.85,44.4-70.38,53.69,2.36,4.06,5,8.89,7.54,14.19,3.39.54,7.76,1.52,9.63,3.14,2.56,2.21,15.52,12.13,5.58,20.46,8.85,13,16.62,24.34,18.31,26.88,1.45,2.17,3.86,2.89,6.44,2.89,5.14,0,10.93-2.89,10.93-2.89s-18.31,15-28.7,19.77c-.25,7.83-4.35,19.2-18.46,19.2a34.47,34.47,0,0,1-8.21-1.08,30.54,30.54,0,0,1-12.56-6.1c-7.2,3.66-14.15,4.08-22.68,4.08-2.57,0-5.29,0-8.2,0-4.81,0-10.16.11-15.69.11a194.28,194.28,0,0,1-20.67-.89c-.67,3.23-3.89,5.89-12.25,7a75,75,0,0,1-10,.71c-12.53,0-19.58-3.84-19.58-9.09a23.41,23.41,0,0,1,1.09-7.27,53.45,53.45,0,0,1-6.76.45c-29.62,0-25.82-29-25.82-29s2.17,6.51,13,8.68a2.61,2.61,0,0,0,.48,0c2.78,0,6.33-4.59,10.09-11.42-18.5-4.41-46.31-13.79-50.33-31-2.91-12.38,2.27-17.41,8.72-17.41,7.12,0,15.79,6.1,16.92,15.21,1.36,10.87,17.2,19.73,28.88,24.84,2-4.3,4-9,5.95-13.74-5.65-2-11.68-5.83-9.85-13.18,1.4-5.64,6.21-7.25,11.23-7.25a32.55,32.55,0,0,1,6.16.66c1.86-5.16,3.42-9.7,4.55-13-45.55-5.8-60-24.59-60-49.95,0-10.73,4.28-21.77,12.5-31.92l-1.64-44.09,29.88,16.07,49.39-82.31-11.54,1.13a34.3,34.3,0,0,1-3.55.18c-9.14,0-14-3.84-20.64-6.82-7.49-3.35,0-29.12,0-29.12m0-8a7.89,7.89,0,0,0-2.29.34,8,8,0,0,0-5.39,5.43,112.6,112.6,0,0,0-3,14.45c-.67,4.87-2.69,19.67,7.48,24.2,1.35.61,2.65,1.27,4,2,5.12,2.6,10.91,5.55,19.86,5.55h.17l-37.4,62.34L923,1541.82a8.07,8.07,0,0,0-3.79-1,8,8,0,0,0-8,8.29l1.52,41.19c-8.11,10.89-12.39,22.77-12.39,34.53,0,15.85,5.21,28.7,15.46,38.18,8.39,7.77,20.07,13.34,35.45,16.9a16.61,16.61,0,0,0-12.66,12.57,17.2,17.2,0,0,0,4.12,16.11c-9.18-5.38-13-10.17-13.4-13.09-1.71-13.73-14.24-22.22-24.86-22.22a16.84,16.84,0,0,0-13.56,6.27c-2.77,3.49-5.53,10-3,21,2.34,10,10.37,18.58,23.86,25.54,1.27.65,2.58,1.29,3.94,1.92a8.05,8.05,0,0,0-1.21,3.31c-.22,1.68-1.87,16.7,7.79,27.71,5.61,6.39,13.57,9.85,23.68,10.29.64,7.92,8.12,16,27.53,16a85.26,85.26,0,0,0,11-.77c7.13-1,12.32-3.13,15.53-6.52,5.93.41,11.7.48,16.34.48,2.9,0,5.73,0,8.47-.06,2.54,0,4.94,0,7.22,0l4.3,0,3.9,0c7.23,0,14.36-.26,21.72-3a40.55,40.55,0,0,0,11.61,4.73,42.45,42.45,0,0,0,10.12,1.32c15.53,0,23.86-10.45,26-22.08,10.77-6.1,24.56-17.29,26.28-18.7a8,8,0,0,0-8.64-13.35,20.58,20.58,0,0,1-7.36,2h-.23c-1.82-2.7-6.72-9.89-14.61-21.43a15.55,15.55,0,0,0,1.79-7.24c0-9.46-8.42-16.56-11.59-19.23l-.45-.38c-1.41-1.22-3.86-2.87-9.45-4.18l-.94-1.85c42.33-11.62,66.36-32.79,66.36-58.94,0-11.54-4.74-23-13.74-33.26a85.21,85.21,0,0,0-6.91-37.26,8,8,0,0,0-7.33-4.8c-2,0-2.68,0-29.56,11.56-21-27.5-52.4-68.91-55.23-73.54-.92-1.83-3.13-5.52-18.87-13.68-10.18-5.28-17.17-8-20.78-8-2.83,0-5.46,1.12-8.5,2.42-2.34,1-5.54,2.37-7.4,2.4l-.08-.16a62.65,62.65,0,0,0-14.55-20,8,8,0,0,0-5.2-1.92Z"/><path class="cls-10" d="M962.73,1672s-36.41,71.24-47.27,69.06-13-8.68-13-8.68-4.34,33.24,32.58,28.56,134.64-3.7,143.33-5.27,32.57-21.12,32.57-21.12-13,6.51-17.37,0-48.83-71.47-48.83-71.47Z"/><path class="cls-11" d="M921.34,1696.54c1.77,14.16,28.13,24.92,37.83,28.41a118.42,118.42,0,0,1,.89-16.19c-6.19-1.44-16-5.18-13.74-14.3,2.2-8.87,12.83-7.77,19.49-6.13,2.07-4.56,4.5-9.17,6.63-13-48.86-5.16-64.13-24.32-64.13-50.44,0-10.73,4.28-21.77,12.5-31.92l-1.64-44.09,35.06,18.86c19.11-9.18,43.82-15.18,73.53-15.6,23.29-.34,44.82,3.52,62.82,10.19,9.85-4.24,31.3-13.45,32.3-13.45a77.61,77.61,0,0,1,6,37c8.89,9.19,13.93,19.6,13.93,30.34,0,25.7-28.85,44.4-70.38,53.69,2.36,4.06,5,8.89,7.54,14.19,3.39.54,7.76,1.52,9.63,3.14,2.91,2.51,19.26,15,.18,23.75,2.78,12.21,2.67,24.17-3.55,33.06,6.65.16,14.14,1.13,15.32,4.64,2.17,6.52,0,30.17-26.06,23.78a30.54,30.54,0,0,1-12.56-6.1c-9.37,4.76-18.31,4-30.88,4-10.77,0-24.22.53-36.36-.78-.67,3.23-3.89,5.89-12.25,7-18.71,2.48-29.57-1.86-29.57-8.38,0-4.86,1.22-13.34,10-16.44a63.15,63.15,0,0,1-4.35-19.34c-12.58-2.1-58.56-11.24-63.82-33.69C889.59,1672.71,919.17,1679.17,921.34,1696.54Z"/><path class="cls-10" d="M946.32,1569.5s23.95-6.52,45.64,0,49.91,13,65.12,10.86,32.57-19.55,32.57-19.55-56.46-73.84-58.63-78.18-28.24-17.37-32.58-17.37-18.27,10.86-23.25,0A54.52,54.52,0,0,0,962.71,1448s-7.49,25.77,0,29.12,12.65,7.78,24.19,6.64l11.54-1.13Z"/><ellipse class="cls-12" cx="1079.07" cy="1638.17" rx="8.69" ry="5.43"/><path class="cls-9" d="M1026.92,1660.08s10.55,13.23,27.55,0,20-17.31,20-17.31-7.63-13.29-23.78-4.6S1030.14,1660.28,1026.92,1660.08Z"/><path class="cls-9" d="M1130.94,1660.08s-10.55,13.23-27.55,0-20-17.31-20-17.31,7.64-13.29,23.78-4.6S1127.72,1660.28,1130.94,1660.08Z"/><path class="cls-9" d="M1078.86,1646.23s-55.17,15.82-46.48,37.54c6.51,13,39.09,13,32.58,30.41s-21.72,8.68-21.72,8.68,8.69,15.2,17.37,15.2a21.07,21.07,0,0,0,13.87-5s-.84,11.54-7.35,11.54c0,2.17,36.64-9,40-36-1.89-1.9,1.23-11.81,3.4-5.29s0,16.73,0,16.73,29.11-38,3.7-60C1111.21,1655.34,1094.94,1645.6,1078.86,1646.23Z"/><path class="cls-10" d="M963.73,1688s27.73,10,42.86,7.52,24.86-22.8,24.86-22.8-26.68,4.37-39.72,4.28a140.49,140.49,0,0,1-23-2Z"/><rect class="cls-10" x="979.42" y="1642.46" width="19.2" height="5.82" transform="translate(1978.04 3290.73) rotate(-180)"/><circle class="cls-8" cx="991.73" cy="1634" r="11"/><rect class="cls-10" x="1116.68" y="1619.46" width="22.69" height="5.82" transform="translate(2256.05 3244.73) rotate(-180)"/><circle class="cls-8" cx="1127.73" cy="1611" r="11"/><polygon class="cls-7" points="964 1829 840 1767 883.48 1684.67 1005.11 1742.73 964 1829"/><rect class="cls-14" x="830.18" y="1709.01" width="134.78" height="96.18" transform="translate(844.56 -215.27) rotate(25.52)"/><polygon class="cls-15" points="979.11 1742.73 1005.11 1742.73 963.54 1829 937.54 1829 979.11 1742.73"/><polygon class="cls-15" points="857.48 1684.67 883.48 1684.67 1005.11 1742.73 979.11 1742.73 857.48 1684.67"/><polyline class="cls-16" points="946.5 1829.5 989.5 1742.5 869.3 1684.67"/><rect class="cls-17" x="928.02" y="1707.73" width="14.39" height="7.06" transform="translate(828.48 -235.95) rotate(25.52)"/><polygon class="cls-18" points="943.22 1711.3 946 1711.3 942.95 1717.5 940.17 1717.5 943.22 1711.3"/><polygon class="cls-18" points="930.24 1705.08 933.01 1705.08 946 1711.28 943.22 1711.28 930.24 1705.08"/><rect class="cls-17" x="922.02" y="1709.73" width="14.39" height="7.06" transform="translate(828.76 -233.17) rotate(25.52)"/><polygon class="cls-18" points="937.22 1713.3 940 1713.3 936.95 1719.5 934.17 1719.5 937.22 1713.3"/><polygon class="cls-18" points="924.24 1707.08 927.01 1707.08 940 1713.28 937.22 1713.28 924.24 1707.08"/><path class="cls-18" d="M937.22,1713.28l-13-6.2s2.79-2.93,8.77-2c0-.16,13,6.2,13,6.2Z"/><polygon class="cls-18" points="935.12 1717.6 944 1715.36 946 1711.28 937.22 1713.28 935.12 1717.6"/><path class="cls-19" d="M960.62,1687.92l-24.82-12.15a14.75,14.75,0,0,0-18.9,5.29l-11,17.19,9.17,4.38,6.3-8.76c3.3-4.59,8.69-6.41,12.91-4.37l15.74,7.62c3.56,1.72,5.33,6.08,4.35,10.71l-2.61,12.32,9.19,4.38,6.56-20.53A13.37,13.37,0,0,0,960.62,1687.92Z"/><path class="cls-14" d="M946.11,1719.5l17.62,8.64s3-8.93-2.84-10.54-10.73-4.2-11.81-3.9S946.11,1719.5,946.11,1719.5Z"/><path class="cls-14" d="M920.43,1707.44l-21.35-10.39s4-8.87,10.15-4.53,12.23,7,12.93,8.25S920.43,1707.44,920.43,1707.44Z"/><path class="cls-10" d="M885.62,1685.89c0,11.26-7.89,8.9-18,8.9s-12.46-1-12.46-12.28,2-17,12.12-17S885.62,1674.63,885.62,1685.89Z"/><rect class="cls-10" x="873.39" y="1652.68" width="10.34" height="30.11" rx="5.17"/><rect class="cls-10" x="855.35" y="1652" width="10.34" height="30.11" rx="5.17"/><ellipse class="cls-10" cx="852.75" cy="1688.75" rx="3.96" ry="3.09"/><ellipse class="cls-10" cx="887.35" cy="1689.4" rx="4.68" ry="3.74"/><ellipse class="cls-10" cx="865.46" cy="1695.74" rx="4.91" ry="3.89"/><ellipse class="cls-10" cx="878.56" cy="1696.49" rx="5.09" ry="3.51"/><ellipse class="cls-11" cx="870.63" cy="1682.91" rx="10.08" ry="8.94"/><path class="cls-10" d="M792.56,1728.42c-.3,6.53-4.81,4.95-10.69,4.68s-7.19-.93-6.89-7.45,1.59-9.8,7.47-9.53S792.86,1721.9,792.56,1728.42Z"/><rect class="cls-10" x="785.95" y="1708.98" width="6" height="17.47" rx="3" transform="translate(1055.47 -153.64) rotate(32.77)"/><rect class="cls-10" x="779" y="1707.53" width="6" height="17.47" rx="3" transform="translate(815.69 -169.46) rotate(25.52)"/><ellipse class="cls-10" cx="773.79" cy="1721.89" rx="2.56" ry="3.27" transform="translate(-981.71 2416.06) rotate(-87.38)"/><ellipse class="cls-10" cx="777.23" cy="1717.74" rx="2.17" ry="2.71" transform="translate(-850.51 766.33) rotate(-35.35)"/><ellipse class="cls-10" cx="778.48" cy="1733.55" rx="3.56" ry="6.17" transform="translate(-108.26 52.8) rotate(-3.63)"/><ellipse class="cls-10" cx="789.71" cy="1734.44" rx="2.89" ry="4.63" transform="translate(-197.33 104.2) rotate(-6.71)"/><path class="cls-10" d="M698.69,1729.08c-.3,6.52-4.81,5-10.69,4.68s-7.19-.93-6.89-7.45,1.59-9.8,7.47-9.53S699,1722.56,698.69,1729.08Z"/><rect class="cls-10" x="688.6" y="1707.9" width="6" height="17.47" rx="3" transform="translate(79.3 -29.86) rotate(2.62)"/><rect class="cls-10" x="681.65" y="1708.18" width="6" height="17.47" rx="3" transform="translate(79.31 -29.54) rotate(2.62)"/><ellipse class="cls-10" cx="682.83" cy="1730.09" rx="2.56" ry="3.27" transform="translate(-1076.71 2333.01) rotate(-87.38)"/><ellipse class="cls-10" cx="696.54" cy="1724.82" rx="9.27" ry="3.42" transform="translate(-1141.66 2009.81) rotate(-76.82)"/><ellipse class="cls-10" cx="686.94" cy="1735.37" rx="6.17" ry="3.56" transform="translate(-1159.4 1462.59) rotate(-60)"/><ellipse class="cls-10" cx="695.26" cy="1735.09" rx="2.89" ry="4.63" transform="translate(-274.89 137.36) rotate(-9.43)"/><ellipse class="cls-11" cx="693.08" cy="1725.23" rx="3.17" ry="5.18" transform="translate(-552.6 344.99) rotate(-20.18)"/><ellipse class="cls-11" cx="737.5" cy="1713.5" rx="39.5" ry="11.5"/><ellipse class="cls-20" cx="737.5" cy="1713.5" rx="12.02" ry="3.5"/><path class="cls-5" d="M857.36,1564.66S706,1658.4,602,1644.16s-497.55-119.45-349.27-197.85S654,1372.44,735,1411.68,857.36,1564.66,857.36,1564.66Z"/><path class="cls-13" d="M839.36,1564.66S688,1658.4,584,1644.16,86.41,1524.71,234.69,1446.31,636,1372.44,717,1411.68,839.36,1564.66,839.36,1564.66Z"/><rect x="366.47" y="1451.43" width="404.34" height="137.49" rx="68.3"/><path class="cls-8" d="M422,1528.45a1.72,1.72,0,0,1-1.21-2.94,1.72,1.72,0,0,1,2.43,2.43A1.64,1.64,0,0,1,422,1528.45Z"/><path class="cls-8" d="M435.88,1528.45a1.72,1.72,0,0,1-1.21-2.94,1.66,1.66,0,0,1,1.21-.5,1.68,1.68,0,0,1,1.22.5,1.73,1.73,0,0,1-1.22,2.94Z"/><path class="cls-8" d="M449.79,1528.45a1.65,1.65,0,0,1-1.21-.51,1.72,1.72,0,1,1,2.43,0A1.64,1.64,0,0,1,449.79,1528.45Z"/><path class="cls-8" d="M476.69,1528.45a4.37,4.37,0,0,1-3.66-1.59,7.48,7.48,0,0,1-1.25-4.68,8,8,0,0,1,1.25-4.85,4.32,4.32,0,0,1,3.66-1.64,3.57,3.57,0,0,1,2.24.65,2.55,2.55,0,0,1,1,1.81h.95l-.72,3.5a4.72,4.72,0,0,0-.75-2.89,2.89,2.89,0,0,0-4.45.13,5.82,5.82,0,0,0-.76,3.29,5.28,5.28,0,0,0,.76,3.12,2.93,2.93,0,0,0,4.45.07,4.72,4.72,0,0,0,.75-2.89L481,1526H480a2.51,2.51,0,0,1-1,1.81A3.74,3.74,0,0,1,476.69,1528.45Zm3.75-.12-.26-2.41v-15.1h2.46v17.39Z"/><path class="cls-8" d="M491.55,1528.45a4.92,4.92,0,0,1-4-1.67,8.54,8.54,0,0,1,0-9.43,5.58,5.58,0,0,1,7.94,0,8.59,8.59,0,0,1,0,9.43A4.93,4.93,0,0,1,491.55,1528.45Zm0-2.21a2.37,2.37,0,0,0,2.09-1.09,6.8,6.8,0,0,0,0-6.17,2.56,2.56,0,0,0-4.19,0,6.88,6.88,0,0,0,0,6.17A2.38,2.38,0,0,0,491.55,1526.24Z"/><path class="cls-8" d="M500.45,1528.21v-12.29h2.23l.23,2.6v9.69Zm7.56,0v-8a2.39,2.39,0,0,0-.58-1.72,2.13,2.13,0,0,0-1.62-.6q-2.9,0-2.9,3.41l-.72-3.15h.95a2.42,2.42,0,0,1,.91-1.85,3.78,3.78,0,0,1,2.34-.61,3.87,3.87,0,0,1,3,1.18,4.82,4.82,0,0,1,1.06,3.34v8Z"/><path class="cls-8" d="M519,1520.44l-1.74-1.53.7-.75a5.6,5.6,0,0,0,1-1.46,3.44,3.44,0,0,0,.34-1.45,1.24,1.24,0,0,0-.42-1,1.94,1.94,0,0,0-1.25-.34h-.52v-2.14H518a3.9,3.9,0,0,1,2.77.88,3.46,3.46,0,0,1,.93,2.62,5.63,5.63,0,0,1-.5,2.21,8.14,8.14,0,0,1-1.53,2.28Z"/><path class="cls-8" d="M527.15,1518.08v-2.16h11.13v2.16Zm3.08,4.33v-10.2h2.46v10.2Zm5.29,6a5.84,5.84,0,0,1-4-1.16,4.88,4.88,0,0,1-1.25-3.72v-2.08h2.46v2a2.76,2.76,0,0,0,.72,2.12,3.39,3.39,0,0,0,2.34.66q.59,0,1.23-.06c.44,0,.93-.1,1.49-.17l.28,2.16q-.81.13-1.59.21C536.65,1528.42,536.1,1528.45,535.52,1528.45Z"/><path class="cls-8" d="M560.19,1528.45a4.37,4.37,0,0,1-3.66-1.59,7.49,7.49,0,0,1-1.24-4.68,8,8,0,0,1,1.24-4.85,4.32,4.32,0,0,1,3.66-1.64,3.62,3.62,0,0,1,2.25.65,2.57,2.57,0,0,1,1,1.81h.95l-.72,3.5a4.72,4.72,0,0,0-.75-2.89,2.88,2.88,0,0,0-4.44.13,5.81,5.81,0,0,0-.77,3.29,5.28,5.28,0,0,0,.77,3.12,2.92,2.92,0,0,0,4.44.07,4.72,4.72,0,0,0,.75-2.89l.84,3.51h-1.07a2.48,2.48,0,0,1-1,1.81A3.74,3.74,0,0,1,560.19,1528.45Zm3.75-.12-.26-2.41v-15.1h2.46v17.39Z"/><path class="cls-8" d="M569,1528.21v-2.15h8.21v2.15Zm.46-10.13v-2.16h4.11l.23,2.16Zm2.27,10.13v-12.29h2l.46,3.53v8.76Zm2.46-5.29-.72-3.85h1q.21-3.37,3.39-3.38a3.28,3.28,0,0,1,2.76,1.09,5.72,5.72,0,0,1,.86,3.52H579a3.52,3.52,0,0,0-.4-1.93,1.42,1.42,0,0,0-1.29-.59,2.53,2.53,0,0,0-2.34,1.34A7.73,7.73,0,0,0,574.21,1522.92Z"/><path class="cls-8" d="M589,1528.45a4.91,4.91,0,0,1-4-1.67,8.54,8.54,0,0,1,0-9.43,5.58,5.58,0,0,1,7.94,0,8.59,8.59,0,0,1,0,9.43A4.94,4.94,0,0,1,589,1528.45Zm0-2.21a2.38,2.38,0,0,0,2.1-1.09,6.88,6.88,0,0,0,0-6.17,2.56,2.56,0,0,0-4.19,0,6.8,6.8,0,0,0,0,6.17A2.37,2.37,0,0,0,589,1526.24Z"/><path class="cls-8" d="M597.87,1533.55v-17.63h2.23l.23,2.6v15Zm6-5.1a3.74,3.74,0,0,1-2.28-.65,2.51,2.51,0,0,1-1-1.81h-1.07l.84-3.51a4.72,4.72,0,0,0,.75,2.89,2.93,2.93,0,0,0,4.45-.07,5.28,5.28,0,0,0,.76-3.12,5.82,5.82,0,0,0-.76-3.29,2.89,2.89,0,0,0-4.45-.13,4.72,4.72,0,0,0-.75,2.89l-.84-3.5h1a2.51,2.51,0,0,1,1-1.81,3.78,3.78,0,0,1,2.32-.65,4.33,4.33,0,0,1,3.67,1.64,8,8,0,0,1,1.24,4.85,7.55,7.55,0,0,1-1.24,4.68A4.37,4.37,0,0,1,603.82,1528.45Z"/><path class="cls-8" d="M625.61,1528.21v-2.15h4.92v2.15Zm.7-10.13v-2.16h6.45v2.16Zm5.14-4.11a1.71,1.71,0,0,1-1.72-1.72,1.66,1.66,0,0,1,.5-1.21,1.68,1.68,0,0,1,1.22-.5,1.65,1.65,0,0,1,1.21.5,1.62,1.62,0,0,1,.5,1.21,1.71,1.71,0,0,1-1.71,1.72Zm-1.15,14.24v-11.59h2.46v11.59Zm2.22,0v-2.15h4v2.15Z"/><path class="cls-8" d="M638.49,1518.08v-2.16h11.13v2.16Zm3.08,4.33v-10.2H644v10.2Zm5.29,6a5.84,5.84,0,0,1-4-1.16,4.88,4.88,0,0,1-1.25-3.72v-2.08H644v2a2.79,2.79,0,0,0,.71,2.12,3.42,3.42,0,0,0,2.35.66q.58,0,1.23-.06l1.48-.17.28,2.16c-.54.09-1.07.16-1.58.21S647.44,1528.45,646.86,1528.45Z"/><path class="cls-8" d="M672.47,1528.45a1.65,1.65,0,0,1-1.22-.51,1.72,1.72,0,0,1,1.22-2.93,1.72,1.72,0,0,1,1.21,2.93A1.62,1.62,0,0,1,672.47,1528.45Z"/><path class="cls-8" d="M686.38,1528.45a1.72,1.72,0,0,1-1.71-1.72,1.63,1.63,0,0,1,.5-1.22,1.72,1.72,0,0,1,2.43,2.43A1.64,1.64,0,0,1,686.38,1528.45Z"/><path class="cls-8" d="M700.3,1528.45a1.72,1.72,0,0,1-1.21-2.94,1.72,1.72,0,0,1,2.43,2.43A1.64,1.64,0,0,1,700.3,1528.45Z"/><path class="cls-21" d="M502.53,1108s3.52,5,0,23,10.59,33.13,18.47,20C527,1141,525,1136,502.53,1108Z"/><path class="cls-21" d="M502.53,1108s3.52,5,0,23,10.59,33.13,18.47,20C527,1141,525,1136,502.53,1108Z"/><polygon class="cls-15" points="179.05 2207.51 186.73 1973.02 381 1919 425.27 2173.98 179.05 2207.51"/><polygon class="cls-22" points="433 1921 370 1919 375 2147 425.61 2161.9 433 1921"/><polygon class="cls-15" points="143.94 2191.1 123 1935 370 1919 329.27 2164.49 143.94 2191.1"/><polygon class="cls-22" points="659 2215 425.61 2161.9 179 2199 405 2285 659 2215"/><polygon class="cls-22" points="375 2147 143.94 2191.1 179 2199 425.61 2161.9 375 2147"/><polygon class="cls-15" points="659 2277 405 2340 405 2262 659 2215 659 2277"/><polygon class="cls-14" points="179 2277 405 2340 405 2262 179 2199 179 2277"/><ellipse class="cls-11" cx="393.12" cy="2210" rx="108.12" ry="34"/><ellipse class="cls-20" cx="393.67" cy="2210" rx="34.98" ry="11"/><path class="cls-14" d="M428.95,2163.65H530.81a0,0,0,0,1,0,0v7.67a0,0,0,0,1,0,0H421.27a0,0,0,0,1,0,0v0A7.67,7.67,0,0,1,428.95,2163.65Z" transform="translate(506.66 -51.45) rotate(13.18)"/><path class="cls-14" d="M530.56,2184.5,496,2209.83l-6.65-3.83,40.77-29.87h0A5,5,0,0,1,530.56,2184.5Z"/><path class="cls-14" d="M439,2165.38c0,3.1-7.16,5.62-16,5.62s-16-2.52-16-5.62,7.16-9.38,16-9.38S439,2162.27,439,2165.38Z"/><polygon class="cls-23" points="503.89 2206.12 483.59 2219.57 479.62 2204.07 501.41 2196.43 503.89 2206.12"/><polygon class="cls-14" points="179 2199 143.94 2191.1 123 1935 187 1955 179 2199"/><polygon class="cls-14" points="123 1935 186.73 1955.02 432.95 1921.49 370 1919 123 1935"/><ellipse class="cls-14" cx="551.5" cy="2207" rx="18.5" ry="8"/><ellipse class="cls-14" cx="585.5" cy="2215" rx="11.56" ry="5"/><path class="cls-10" d="M271.51,1933.34c0,14.89-10.44,11.78-23.86,11.78s-16.48-1.37-16.48-16.26,2.6-22.49,16-22.49S271.51,1918.44,271.51,1933.34Z"/><rect class="cls-10" x="255.33" y="1889.39" width="13.68" height="39.84" rx="5.17"/><rect class="cls-10" x="231.47" y="1888.49" width="13.68" height="39.84" rx="5.17"/><ellipse class="cls-10" cx="228.02" cy="1937.13" rx="5.24" ry="4.09"/><ellipse class="cls-10" cx="273.81" cy="1937.98" rx="6.19" ry="4.94"/><ellipse class="cls-10" cx="244.85" cy="1946.36" rx="6.49" ry="5.14"/><ellipse class="cls-10" cx="262.17" cy="1947.36" rx="6.74" ry="4.64"/><ellipse class="cls-11" cx="251.69" cy="1929.39" rx="13.33" ry="11.83"/><path class="cls-10" d="M545.82,2202.65c-.61,13.52-10,10.25-22.15,9.69s-14.9-1.92-14.28-15.44,3.3-20.3,15.49-19.74S546.44,2189.13,545.82,2202.65Z"/><rect class="cls-10" x="532.13" y="2162.35" width="12.43" height="36.2" rx="5.17" transform="translate(1266.07 55.69) rotate(32.77)"/><rect class="cls-10" x="517.72" y="2159.34" width="12.43" height="36.2" rx="5.17" transform="translate(989.19 -13.29) rotate(25.52)"/><ellipse class="cls-10" cx="506.93" cy="2189.11" rx="5.3" ry="6.78" transform="translate(-1703.09 2595.31) rotate(-87.38)"/><ellipse class="cls-10" cx="514.05" cy="2180.5" rx="4.49" ry="5.63" transform="translate(-1166.76 699.38) rotate(-35.35)"/><ellipse class="cls-10" cx="516.66" cy="2213.27" rx="7.37" ry="12.79" transform="translate(-139.18 37.18) rotate(-3.63)"/><ellipse class="cls-10" cx="539.92" cy="2215.11" rx="5.98" ry="9.59" transform="translate(-255.23 78.3) rotate(-6.71)"/><path class="cls-10" d="M342.93,2333.91c-.72,15.65-11.54,11.87-25.66,11.23s-17.25-2.23-16.53-17.89,3.81-23.51,17.93-22.86S343.65,2318.25,342.93,2333.91Z"/><rect class="cls-10" x="318.72" y="2283.06" width="14.4" height="41.93" rx="5.17" transform="translate(105.81 -12.5) rotate(2.62)"/><rect class="cls-10" x="302.03" y="2283.75" width="14.4" height="41.93" rx="5.17" transform="translate(105.82 -11.74) rotate(2.62)"/><ellipse class="cls-10" cx="304.85" cy="2336.33" rx="6.13" ry="7.85" transform="translate(-2042.99 2533.92) rotate(-87.38)"/><ellipse class="cls-10" cx="337.76" cy="2323.69" rx="22.25" ry="8.21" transform="matrix(0.23, -0.97, 0.97, 0.23, -2001.74, 2122.82)"/><ellipse class="cls-10" cx="314.72" cy="2349" rx="14.81" ry="8.53" transform="translate(-1876.93 1447.05) rotate(-60)"/><ellipse class="cls-10" cx="334.7" cy="2348.34" rx="6.93" ry="11.1" transform="matrix(0.99, -0.16, 0.16, 0.99, -380.23, 86.57)"/><ellipse class="cls-11" cx="329.47" cy="2324.67" rx="7.62" ry="12.43" transform="matrix(0.94, -0.34, 0.34, 0.94, -781.71, 256.35)"/><path class="cls-19" d="M528.79,2311.88l42.55-8.07a23.12,23.12,0,0,0,18.75-24.37l-2.31-31.94-15.61,3.12.32,16.9c.17,8.87-4.88,16.21-12.1,17.61l-26.9,5.23c-6.08,1.18-12.39-2.62-15.51-9.35l-8.3-17.9L494,2266.23l11,31.92A21,21,0,0,0,528.79,2311.88Z"/><path class="cls-14" d="M517.34,2258.64l-30.21,5.71s4.56,14.06,13.45,10.55,17.41-4.81,18.48-6.2S517.34,2258.64,517.34,2258.64Z"/><path class="cls-14" d="M560.88,2249.65l36.55-7s3.36,14.85-8.49,15.22-22,2.64-24,1.79S560.88,2249.65,560.88,2249.65Z"/><rect class="cls-11" x="527" y="2252" width="26" height="13" transform="translate(-443.74 155.01) rotate(-11.62)"/><polygon class="cls-17" points="292.94 1930.68 314.97 1926.64 314.07 1917.62 292.03 1921.66 292.94 1930.68"/><polygon class="cls-18" points="291.97 1921.82 287.98 1921 289 1929.79 292.99 1930.61 291.97 1921.82"/><polygon class="cls-18" points="314.02 1917.75 310.03 1916.92 288 1920.96 291.99 1921.79 314.02 1917.75"/><polygon class="cls-17" points="300.48 1935.01 322.51 1930.97 321.6 1921.95 299.57 1925.99 300.48 1935.01"/><polygon class="cls-18" points="299.51 1926.15 295.52 1925.33 296.54 1934.12 300.53 1934.94 299.51 1926.15"/><polygon class="cls-18" points="321.56 1922.08 317.57 1921.25 295.54 1925.29 299.52 1926.11 321.56 1922.08"/><path class="cls-18" d="M299.52,1926.11l22-4s-2.42-4.56-11.53-5.16c.13-.18-22,4-22,4Z"/><polygon class="cls-18" points="300.2 1932.25 288.65 1926.76 288 1920.96 299.52 1926.11 300.2 1932.25"/></g></g></g></svg>