<svg xmlns="http://www.w3.org/2000/svg" xmlns:xlink="http://www.w3.org/1999/xlink" viewBox="0 0 1290.55 1484.76"><defs><style>.cls-1,.cls-19{fill:none;}.cls-2{fill:#231f20;}.cls-3{isolation:isolate;}.cls-4{fill:#778ab9;}.cls-5{fill:url(#_10_dpi_50_);}.cls-15,.cls-6{mix-blend-mode:screen;}.cls-15,.cls-7{fill:#8290c8;}.cls-8{fill:#0e0029;}.cls-9{fill:#fff;}.cls-10{fill:#5ac5c8;}.cls-11{fill:#8cb7ba;}.cls-12{fill:#e1f1fe;}.cls-13{fill:#af77b3;}.cls-14{fill:#a4dbdf;}.cls-16{fill:#ff931e;}.cls-17{fill:#ffb56b;}.cls-18{fill:#ff7c6b;}.cls-19{stroke:#fffeb9;stroke-miterlimit:10;}.cls-20{fill:#bdccd4;}.cls-21{fill:#8da9f5;}.cls-22{fill:#d9cca9;}.cls-23{fill:#06c;}.cls-24{fill:#ff7bac;}.cls-25{fill:#f9e7b8;}.cls-26{fill:#ff9c6b;}</style><pattern id="_10_dpi_50_" data-name="10 dpi 50%" width="28.8" height="28.8" patternUnits="userSpaceOnUse" viewBox="0 0 28.8 28.8"><rect class="cls-1" width="28.8" height="28.8"/><path class="cls-2" d="M28.8,32.4a3.6,3.6,0,1,0-3.6-3.6A3.6,3.6,0,0,0,28.8,32.4Z"/><path class="cls-2" d="M14.4,32.4a3.6,3.6,0,1,0-3.6-3.6A3.6,3.6,0,0,0,14.4,32.4Z"/><circle class="cls-2" cx="28.8" cy="14.4" r="3.6"/><path class="cls-2" d="M14.4,18a3.6,3.6,0,1,0-3.6-3.6A3.6,3.6,0,0,0,14.4,18Z"/><path class="cls-2" d="M7.2,25.2a3.6,3.6,0,1,0-3.6-3.6A3.6,3.6,0,0,0,7.2,25.2Z"/><path class="cls-2" d="M21.6,25.2A3.6,3.6,0,1,0,18,21.6,3.6,3.6,0,0,0,21.6,25.2Z"/><path class="cls-2" d="M7.2,10.8A3.6,3.6,0,1,0,3.6,7.2,3.6,3.6,0,0,0,7.2,10.8Z"/><path class="cls-2" d="M21.6,10.8A3.6,3.6,0,1,0,18,7.2,3.6,3.6,0,0,0,21.6,10.8Z"/><path class="cls-2" d="M0,32.4a3.6,3.6,0,0,0,0-7.2,3.6,3.6,0,0,0-3.6,3.6A3.6,3.6,0,0,0,0,32.4Z"/><circle class="cls-2" cy="14.4" r="3.6"/><path class="cls-2" d="M28.8,3.6A3.6,3.6,0,0,0,32.4,0a3.6,3.6,0,0,0-3.6-3.6A3.6,3.6,0,0,0,25.2,0,3.6,3.6,0,0,0,28.8,3.6Z"/><path class="cls-2" d="M14.4,3.6A3.6,3.6,0,0,0,18,0a3.6,3.6,0,0,0-3.6-3.6A3.6,3.6,0,0,0,10.8,0,3.6,3.6,0,0,0,14.4,3.6Z"/><path class="cls-2" d="M0,3.6A3.6,3.6,0,0,0,3.6,0,3.6,3.6,0,0,0,0-3.6,3.6,3.6,0,0,0-3.6,0,3.6,3.6,0,0,0,0,3.6Z"/></pattern></defs><g class="cls-3"><g id="Layer_2" data-name="Layer 2"><g id="Layer_1-2" data-name="Layer 1"><path class="cls-4" d="M192.72,87.55h834.94a111.53,111.53,0,0,1,111.53,111.53v224a946.47,946.47,0,0,1-946.47,946.47h0A111.53,111.53,0,0,1,81.19,1258V199.09A111.53,111.53,0,0,1,192.72,87.55Z"/><path class="cls-5" d="M248.06,18.9C503.64,95,709.12,338.84,748,317.78S794.7,240.65,800,204.87s30,180.8-53.58,216.48S200.7,643.7,91.39,566.85-7.52-57.18,248.06,18.9Z"/><g class="cls-6"><path class="cls-7" d="M248,7.24C503.55,83.32,709,327.18,747.94,306.11s46.68-77.12,51.94-112.9,30,180.8-53.57,216.48S200.61,632,91.31,555.19-7.61-68.85,248,7.24Z"/></g><rect class="cls-8" x="109.56" y="168.25" width="436.44" height="276.15" rx="68.3"/><path class="cls-9" d="M155.19,227.93V210.15h2.6v17.78Zm.52-7.67v-2.37h10.53v2.37Zm8.39,7.67V210.15h2.6v17.78Z"/><path class="cls-9" d="M177.12,228.18a7.24,7.24,0,0,1-5.24-1.79,6.8,6.8,0,0,1-1.85-5.12,7.49,7.49,0,0,1,1.57-5.06,5.53,5.53,0,0,1,4.42-1.8,5.34,5.34,0,0,1,4.16,1.62,6.85,6.85,0,0,1,1.47,4.73,15.34,15.34,0,0,1-.08,1.71h-9.31v-2h7a4.06,4.06,0,0,0-.85-2.75,3,3,0,0,0-2.36-1,3.19,3.19,0,0,0-2.62,1.16,5,5,0,0,0-.93,3.25,4.57,4.57,0,0,0,1.28,3.51,5.15,5.15,0,0,0,3.65,1.2,12.63,12.63,0,0,0,1.63-.1c.53-.06,1.07-.14,1.62-.25l.33,2.33a17,17,0,0,1-2.15.28C178.2,228.15,177.62,228.18,177.12,228.18Z"/><path class="cls-9" d="M184.7,211.48v-2.33h4.14v2.33Zm8.27,16.7a4,4,0,0,1-3.33-1.26,6.25,6.25,0,0,1-1-4V209.15h2.65v13.64a5.84,5.84,0,0,0,.21,1.72,1.53,1.53,0,0,0,.78,1,3.7,3.7,0,0,0,1.72.32,9.69,9.69,0,0,0,2.65-.48l.3,2.33a14.89,14.89,0,0,1-1.94.4A15.91,15.91,0,0,1,193,228.18Z"/><path class="cls-9" d="M199.73,211.48v-2.33h4.13v2.33Zm8.26,16.7a4,4,0,0,1-3.33-1.26,6.31,6.31,0,0,1-1-4V209.15h2.66v13.64a5.88,5.88,0,0,0,.2,1.72,1.53,1.53,0,0,0,.78,1,3.7,3.7,0,0,0,1.72.32,9.69,9.69,0,0,0,2.65-.48l.3,2.33a14.89,14.89,0,0,1-1.94.4A15.67,15.67,0,0,1,208,228.18Z"/><path class="cls-9" d="M221,228.18a5.32,5.32,0,0,1-4.28-1.81,9.27,9.27,0,0,1,0-10.17,6,6,0,0,1,8.57,0,9.27,9.27,0,0,1,0,10.17A5.3,5.3,0,0,1,221,228.18Zm0-2.38a2.55,2.55,0,0,0,2.26-1.18,7.35,7.35,0,0,0,0-6.67,2.77,2.77,0,0,0-4.52,0,7.43,7.43,0,0,0,0,6.67A2.57,2.57,0,0,0,221,225.8Z"/><path class="cls-9" d="M250.05,228.18c-1,0-1.86,0-2.57-.09a14.81,14.81,0,0,1-2-.29l.3-2.4c.88.13,1.65.23,2.32.3s1.31.1,1.91.1a7.7,7.7,0,0,0,2.92-.4,1.31,1.31,0,0,0,.91-1.26,1.16,1.16,0,0,0-.32-.89,2.18,2.18,0,0,0-1-.46l-3.06-.77a7.83,7.83,0,0,1-2.88-1.24,2.71,2.71,0,0,1-.92-2.24,3.38,3.38,0,0,1,1.67-3.16,11.18,11.18,0,0,1,5.39-1c.64,0,1.24,0,1.8.05s1.12.1,1.7.2L256,217c-.68-.07-1.27-.11-1.79-.14s-1,0-1.52,0a9.58,9.58,0,0,0-3.22.39,1.31,1.31,0,0,0-1,1.24.89.89,0,0,0,.42.83,4.17,4.17,0,0,0,1.26.47l2.45.6a7.31,7.31,0,0,1,3.06,1.34,3.06,3.06,0,0,1,1,2.44,3.41,3.41,0,0,1-1.57,3.12A10,10,0,0,1,250.05,228.18Z"/><path class="cls-9" d="M259.46,217v-2.32h12V217Zm3.33,4.69v-11h2.66v11Zm5.71,6.51a6.26,6.26,0,0,1-4.36-1.26,5.22,5.22,0,0,1-1.35-4v-2.26h2.66v2.13a3,3,0,0,0,.77,2.29,3.64,3.64,0,0,0,2.53.72c.42,0,.86,0,1.33-.07l1.6-.18.3,2.32c-.58.11-1.15.18-1.71.23S269.13,228.18,268.5,228.18Z"/><path class="cls-9" d="M274.61,227.93V225.6h8.86v2.33Zm.5-11v-2.32h4.43l.25,2.32Zm2.46,11V214.66h2.15l.5,3.8v9.47Zm2.65-5.71-.78-4.16h1c.15-2.44,1.37-3.65,3.66-3.65a3.55,3.55,0,0,1,3,1.17,6.2,6.2,0,0,1,.93,3.81H285.4a3.81,3.81,0,0,0-.43-2.09,1.56,1.56,0,0,0-1.4-.64,2.74,2.74,0,0,0-2.52,1.44A8.43,8.43,0,0,0,280.22,222.22Z"/><path class="cls-9" d="M294.19,228.18a4.72,4.72,0,0,1-3.22-1,3.55,3.55,0,0,1-1.14-2.82,3.74,3.74,0,0,1,1.57-3.23,7.48,7.48,0,0,1,4.44-1.13,14.76,14.76,0,0,1,2.12.14,7.86,7.86,0,0,1,1.66.43l-.55,1.81a8.6,8.6,0,0,0-1.64-.22c-.53,0-1.08,0-1.64,0q-3.45,0-3.45,2.1a1.65,1.65,0,0,0,.59,1.35,2.64,2.64,0,0,0,1.69.48,4.47,4.47,0,0,0,2.07-.43,3,3,0,0,0,1.24-1.09,2.49,2.49,0,0,0,.42-1.36v-1.45l.77,3.4h-1.05l.43-.4a3.25,3.25,0,0,1-.54,1.92,3.09,3.09,0,0,1-1.49,1.15A6,6,0,0,1,294.19,228.18Zm4.68-.13-.17-3.93-.35-1.1v-3.43a2.15,2.15,0,0,0-.94-2,5.38,5.38,0,0,0-2.77-.67l-3.18-.09.25-2.35,2.68,0a7.58,7.58,0,0,1,4.89,1.42,5,5,0,0,1,1.59,4v5.53l2.26.28v2.13Z"/><path class="cls-9" d="M305.76,227.93V214.66h2.4l.25,2.8v10.47Zm8.16,0v-8.64a2.54,2.54,0,0,0-.63-1.85,2.28,2.28,0,0,0-1.75-.66q-3.14,0-3.13,3.68l-.77-3.4h1a2.67,2.67,0,0,1,1-2,4.11,4.11,0,0,1,2.53-.65,4.15,4.15,0,0,1,3.25,1.27,5.2,5.2,0,0,1,1.15,3.61v8.64Z"/><path class="cls-9" d="M325.17,228.18a4.74,4.74,0,0,1-3.95-1.72,8.08,8.08,0,0,1-1.34-5,8.65,8.65,0,0,1,1.34-5.24,4.67,4.67,0,0,1,3.95-1.77,4.16,4.16,0,0,1,2.52.7,2.75,2.75,0,0,1,1.13,1.95h1l-.9,3.78a5.09,5.09,0,0,0-.81-3.12,3.12,3.12,0,0,0-4.8.14,6.31,6.31,0,0,0-.82,3.56,5.71,5.71,0,0,0,.82,3.36,2.81,2.81,0,0,0,2.43,1.14,2.78,2.78,0,0,0,2.37-1.06,5.09,5.09,0,0,0,.81-3.12l.9,3.78h-1.15a2.62,2.62,0,0,1-1.06,1.95A4,4,0,0,1,325.17,228.18ZM321,233.91l-.12-2.43,4.25-.12a3.89,3.89,0,0,0,2.93-1.12,4.63,4.63,0,0,0,.93-3.09v-9.69l.25-2.8h2.4v12.09c0,2.36-.53,4.1-1.61,5.23s-2.79,1.73-5.15,1.8Z"/><path class="cls-9" d="M342.36,228.18a7.24,7.24,0,0,1-5.24-1.79,6.8,6.8,0,0,1-1.85-5.12,7.49,7.49,0,0,1,1.57-5.06,5.54,5.54,0,0,1,4.42-1.8,5.34,5.34,0,0,1,4.16,1.62,6.85,6.85,0,0,1,1.47,4.73c0,.61,0,1.18-.07,1.71H337.5v-2h7a4.06,4.06,0,0,0-.85-2.75,3,3,0,0,0-2.36-1,3.19,3.19,0,0,0-2.62,1.16,5,5,0,0,0-.93,3.25,4.57,4.57,0,0,0,1.28,3.51,5.15,5.15,0,0,0,3.65,1.2,12.63,12.63,0,0,0,1.63-.1c.53-.06,1.07-.14,1.62-.25l.33,2.33a17,17,0,0,1-2.15.28C343.44,228.15,342.86,228.18,342.36,228.18Z"/><path class="cls-9" d="M349.72,227.93V225.6h8.86v2.33Zm.5-11v-2.32h4.43l.25,2.32Zm2.45,11V214.66h2.16l.5,3.8v9.47Zm2.66-5.71-.78-4.16h1c.15-2.44,1.37-3.65,3.65-3.65a3.56,3.56,0,0,1,3,1.17,6.2,6.2,0,0,1,.93,3.81h-2.63a3.81,3.81,0,0,0-.43-2.09,1.56,1.56,0,0,0-1.4-.64,2.74,2.74,0,0,0-2.52,1.44A8.43,8.43,0,0,0,355.33,222.22Z"/><path class="cls-9" d="M370.23,228.18c-1,0-1.86,0-2.58-.09a15.33,15.33,0,0,1-2-.29l.3-2.4c.88.13,1.65.23,2.33.3s1.3.1,1.91.1a7.73,7.73,0,0,0,2.92-.4,1.32,1.32,0,0,0,.91-1.26,1.16,1.16,0,0,0-.32-.89,2.23,2.23,0,0,0-1-.46L369.7,222a8,8,0,0,1-2.89-1.24,2.71,2.71,0,0,1-.92-2.24,3.37,3.37,0,0,1,1.68-3.16,11.16,11.16,0,0,1,5.38-1c.65,0,1.25,0,1.8.05s1.12.1,1.71.2l-.28,2.3c-.67-.07-1.27-.11-1.79-.14s-1,0-1.51,0a9.65,9.65,0,0,0-3.23.39,1.3,1.3,0,0,0-1,1.24.9.9,0,0,0,.41.83,4.4,4.4,0,0,0,1.26.47l2.46.6a7.43,7.43,0,0,1,3.06,1.34,3.08,3.08,0,0,1,1,2.44,3.39,3.39,0,0,1-1.57,3.12A9.91,9.91,0,0,1,370.23,228.18Z"/><path class="cls-9" d="M386.27,228.18a1.86,1.86,0,0,1,0-3.71,1.86,1.86,0,1,1,0,3.71Zm-1.22-6L385,210h2.6l-.12,12.2Z"/><path class="cls-9" d="M410.91,212.53v-2.38h10.81v2.38Zm0,15.4v-2.38h10.81v2.38Zm4.09,0V210.15h2.6v17.78Z"/><path class="cls-9" d="M431,219.54l-1.88-1.65.75-.82a5.68,5.68,0,0,0,1.09-1.58,3.76,3.76,0,0,0,.36-1.56,1.35,1.35,0,0,0-.45-1.1,2.15,2.15,0,0,0-1.35-.36h-.56v-2.32h.94a4.15,4.15,0,0,1,3,1,3.72,3.72,0,0,1,1,2.82,6,6,0,0,1-.54,2.38,8.84,8.84,0,0,1-1.65,2.46Z"/><path class="cls-9" d="M440.25,227.93V214.66h2.35l.3,2.8v10.47Zm5,0V217.54c0-.76-.35-1.13-1.05-1.13-.85,0-1.28.6-1.28,1.8l-.77-1.9H443c.1-1.27.86-1.9,2.28-1.9a2,2,0,0,1,1.63.71,3.3,3.3,0,0,1,.59,2.16v10.65Zm4.58,0V217.79q0-1.38-1-1.38c-.87,0-1.31.6-1.31,1.8l-.9-1.9h1a2.07,2.07,0,0,1,.62-1.34,2.15,2.15,0,0,1,1.61-.56,2.49,2.49,0,0,1,2,.73,3.69,3.69,0,0,1,.63,2.4v10.39Z"/><path class="cls-9" d="M154.84,258.69V245.42h2.35l.3,2.81v10.46Zm5,0V248.3c0-.75-.35-1.13-1-1.13-.85,0-1.28.6-1.28,1.81l-.78-1.91h.86c.09-1.26.85-1.9,2.27-1.9a2,2,0,0,1,1.64.71,3.39,3.39,0,0,1,.59,2.17v10.64Zm4.58,0V248.55c0-.92-.34-1.38-1-1.38-.86,0-1.3.6-1.3,1.81l-.9-1.91h1a2.07,2.07,0,0,1,.62-1.34,2.16,2.16,0,0,1,1.6-.56,2.51,2.51,0,0,1,2,.74,3.66,3.66,0,0,1,.62,2.39v10.39Z"/><path class="cls-9" d="M177.12,258.94a7.23,7.23,0,0,1-5.24-1.78A6.81,6.81,0,0,1,170,252,7.51,7.51,0,0,1,171.6,247a5.53,5.53,0,0,1,4.42-1.8,5.31,5.31,0,0,1,4.16,1.63,6.82,6.82,0,0,1,1.47,4.73,15,15,0,0,1-.08,1.7h-9.31v-2h7a4,4,0,0,0-.85-2.74,3,3,0,0,0-2.36-1,3.18,3.18,0,0,0-2.62,1.15,5.06,5.06,0,0,0-.93,3.26,4.55,4.55,0,0,0,1.28,3.5,5.15,5.15,0,0,0,3.65,1.2,14.7,14.7,0,0,0,1.63-.09c.53-.06,1.07-.15,1.62-.26l.33,2.33a17.1,17.1,0,0,1-2.15.29C178.2,258.92,177.62,258.94,177.12,258.94Z"/><path class="cls-9" d="M192.14,258.94a7.23,7.23,0,0,1-5.24-1.78,6.81,6.81,0,0,1-1.84-5.13,7.51,7.51,0,0,1,1.56-5.06,5.54,5.54,0,0,1,4.42-1.8,5.31,5.31,0,0,1,4.16,1.63,6.82,6.82,0,0,1,1.47,4.73c0,.61,0,1.18-.07,1.7h-9.32v-2h7a4,4,0,0,0-.85-2.74,3,3,0,0,0-2.36-1,3.18,3.18,0,0,0-2.62,1.15,5.06,5.06,0,0,0-.93,3.26,4.58,4.58,0,0,0,1.28,3.5,5.15,5.15,0,0,0,3.65,1.2,14.7,14.7,0,0,0,1.63-.09c.53-.06,1.08-.15,1.63-.26l.32,2.33a17.1,17.1,0,0,1-2.15.29C193.22,258.92,192.64,258.94,192.14,258.94Z"/><path class="cls-9" d="M205,258.94c-1,0-1.85,0-2.57-.09a15.39,15.39,0,0,1-2-.28l.3-2.41c.88.14,1.65.24,2.32.3a18.55,18.55,0,0,0,1.91.1,8,8,0,0,0,2.93-.39,1.32,1.32,0,0,0,.91-1.26,1.19,1.19,0,0,0-.32-.9,2.34,2.34,0,0,0-1-.45l-3-.78a7.64,7.64,0,0,1-2.89-1.24,2.71,2.71,0,0,1-.92-2.24,3.38,3.38,0,0,1,1.67-3.15,11.19,11.19,0,0,1,5.39-1c.65,0,1.24,0,1.8.06s1.12.1,1.71.19l-.28,2.3c-.67-.06-1.27-.11-1.79-.13s-1,0-1.51,0a10,10,0,0,0-3.23.38,1.31,1.31,0,0,0-1,1.25.91.91,0,0,0,.41.83,4.72,4.72,0,0,0,1.26.47l2.46.6a7.3,7.3,0,0,1,3.06,1.34,3,3,0,0,1,1,2.44A3.37,3.37,0,0,1,210,258,9.82,9.82,0,0,1,205,258.94Z"/><path class="cls-9" d="M222.31,258.94a7.23,7.23,0,0,1-5.24-1.78,6.81,6.81,0,0,1-1.84-5.13A7,7,0,0,1,217,247a6.65,6.65,0,0,1,5-1.8,7.11,7.11,0,0,1,3.32.72,4.17,4.17,0,0,1,2,2l-2,1.54a4,4,0,0,0-1.44-1.41,4.16,4.16,0,0,0-4.83.63,5.53,5.53,0,0,0,.18,6.69,4.82,4.82,0,0,0,3.49,1.19c.62,0,1.24,0,1.85-.09s1.22-.13,1.81-.23l.3,2.33a14.76,14.76,0,0,1-2.13.3C223.71,258.92,223,258.94,222.31,258.94Z"/><path class="cls-9" d="M236.06,258.94a5.32,5.32,0,0,1-4.29-1.8,9.27,9.27,0,0,1,0-10.17,6,6,0,0,1,8.57,0,9.27,9.27,0,0,1,0,10.17A5.29,5.29,0,0,1,236.06,258.94Zm0-2.38a2.59,2.59,0,0,0,2.26-1.17,7.43,7.43,0,0,0,0-6.67,2.59,2.59,0,0,0-2.26-1.17,2.56,2.56,0,0,0-2.26,1.17,7.35,7.35,0,0,0,0,6.67A2.56,2.56,0,0,0,236.06,256.56Z"/><path class="cls-9" d="M251.08,258.94a5.29,5.29,0,0,1-4.28-1.8,9.22,9.22,0,0,1,0-10.17,6,6,0,0,1,8.56,0,9.22,9.22,0,0,1,0,10.17A5.29,5.29,0,0,1,251.08,258.94Zm0-2.38a2.58,2.58,0,0,0,2.26-1.17,7.43,7.43,0,0,0,0-6.67,2.77,2.77,0,0,0-4.52,0,7.35,7.35,0,0,0,0,6.67A2.57,2.57,0,0,0,251.08,256.56Z"/><path class="cls-9" d="M259.82,242.24v-2.33H264v2.33Zm8.26,16.7a4.07,4.07,0,0,1-3.33-1.25,6.28,6.28,0,0,1-1-4V239.91h2.65v13.65a6.16,6.16,0,0,0,.2,1.71,1.59,1.59,0,0,0,.79,1,3.69,3.69,0,0,0,1.72.31,10.08,10.08,0,0,0,2.65-.47l.3,2.33a16.76,16.76,0,0,1-1.94.4A16,16,0,0,1,268.08,258.94Z"/><path class="cls-9" d="M278.77,264.15l1-8.64h2.9l-1.5,8.64Z"/><path class="cls-9" d="M305.76,243.29v-2.38h10.81v2.38Zm0,15.4v-2.38h10.81v2.38Zm4.09,0V240.91h2.6v17.78Z"/><path class="cls-9" d="M325.8,250.3l-1.88-1.65.75-.81a5.83,5.83,0,0,0,1.09-1.58,3.8,3.8,0,0,0,.36-1.56,1.34,1.34,0,0,0-.45-1.1,2.11,2.11,0,0,0-1.35-.37h-.56v-2.32h.94a4.15,4.15,0,0,1,3,1,3.73,3.73,0,0,1,1,2.83,6,6,0,0,1-.54,2.38,9,9,0,0,1-1.65,2.46Z"/><path class="cls-9" d="M335.1,258.69V245.42h2.35l.3,2.81v10.46Zm5,0V248.3c0-.75-.35-1.13-1.05-1.13s-1.28.6-1.28,1.81l-.77-1.91h.85c.1-1.26.86-1.9,2.28-1.9a2,2,0,0,1,1.63.71,3.33,3.33,0,0,1,.59,2.17v10.64Zm4.58,0V248.55q0-1.38-1-1.38c-.87,0-1.31.6-1.31,1.81l-.9-1.91h1a2.12,2.12,0,0,1,.62-1.34,2.19,2.19,0,0,1,1.61-.56,2.49,2.49,0,0,1,2,.74,3.66,3.66,0,0,1,.63,2.39v10.39Z"/><path class="cls-9" d="M365.34,258.69V240.91h2.51v17.78Zm4.76-7.26-1.93-7.36h-.72v-3.16h1.77l1.93,7.64h.1l.25,2.88Zm.72,0,.38-2.88h.15l1.93-7.64h1.78v3.16h-.73l-1.93,7.36Zm3.84,7.26V240.91h2.5v17.78Z"/><path class="cls-9" d="M384.32,258.94a4.7,4.7,0,0,1-3.22-1,3.57,3.57,0,0,1-1.14-2.83,3.75,3.75,0,0,1,1.57-3.23,7.55,7.55,0,0,1,4.44-1.13,13.45,13.45,0,0,1,2.12.15,7.3,7.3,0,0,1,1.66.43l-.55,1.8a9.48,9.48,0,0,0-1.64-.22c-.53,0-1.08,0-1.64,0q-3.45,0-3.45,2.1a1.63,1.63,0,0,0,.59,1.36,2.69,2.69,0,0,0,1.68.47,4.61,4.61,0,0,0,2.08-.42,3.1,3.1,0,0,0,1.24-1.09,2.53,2.53,0,0,0,.42-1.37v-1.45l.77,3.41H388.2l.43-.4a3.29,3.29,0,0,1-.54,1.92,3.22,3.22,0,0,1-1.49,1.15A6.25,6.25,0,0,1,384.32,258.94Zm4.68-.12-.17-3.94-.35-1.1v-3.43a2.17,2.17,0,0,0-.94-1.94,5.19,5.19,0,0,0-2.77-.67l-3.18-.09.25-2.35,2.68,0a7.62,7.62,0,0,1,4.89,1.42,5,5,0,0,1,1.59,4v5.54l2.26.27v2.13Z"/><path class="cls-9" d="M394.78,258.69v-2.33h8.87v2.33Zm.51-10.94v-2.33h4.43l.25,2.33Zm2.45,10.94V245.42h2.15l.5,3.81v9.46Zm2.65-5.71-.77-4.15h1q.23-3.66,3.66-3.66a3.55,3.55,0,0,1,3,1.18,6.15,6.15,0,0,1,.92,3.8h-2.63a3.86,3.86,0,0,0-.43-2.09,1.56,1.56,0,0,0-1.39-.64,2.72,2.72,0,0,0-2.52,1.45A8.24,8.24,0,0,0,400.39,253Z"/><path class="cls-9" d="M417.59,258.94a7.23,7.23,0,0,1-5.24-1.78,6.81,6.81,0,0,1-1.84-5.13,7,7,0,0,1,1.74-5.06,6.65,6.65,0,0,1,5-1.8,7.15,7.15,0,0,1,3.33.72,4.21,4.21,0,0,1,2,2l-2,1.54a4.13,4.13,0,0,0-1.44-1.41,3.87,3.87,0,0,0-1.92-.5,3.76,3.76,0,0,0-2.91,1.13,5.53,5.53,0,0,0,.18,6.69,4.78,4.78,0,0,0,3.48,1.19c.62,0,1.24,0,1.85-.09s1.22-.13,1.81-.23l.3,2.33a14.63,14.63,0,0,1-2.12.3C419,258.92,418.29,258.94,417.59,258.94Z"/><path class="cls-9" d="M432.49,258.94a7.23,7.23,0,0,1-5.24-1.78A6.81,6.81,0,0,1,425.4,252,7.46,7.46,0,0,1,427,247a5.53,5.53,0,0,1,4.42-1.8,5.31,5.31,0,0,1,4.16,1.63,6.82,6.82,0,0,1,1.47,4.73c0,.61,0,1.18-.07,1.7h-9.32v-2h7a4,4,0,0,0-.85-2.74,3,3,0,0,0-2.36-1,3.18,3.18,0,0,0-2.62,1.15,5.06,5.06,0,0,0-.93,3.26,4.55,4.55,0,0,0,1.28,3.5,5.13,5.13,0,0,0,3.65,1.2,14.7,14.7,0,0,0,1.63-.09c.53-.06,1.07-.15,1.62-.26l.33,2.33a17.34,17.34,0,0,1-2.15.29C433.57,258.92,433,258.94,432.49,258.94Z"/><path class="cls-9" d="M440.07,242.24v-2.33h4.14v2.33Zm8.27,16.7a4.07,4.07,0,0,1-3.33-1.25,6.28,6.28,0,0,1-1-4V239.91h2.65v13.65a6.16,6.16,0,0,0,.2,1.71,1.59,1.59,0,0,0,.79,1,3.69,3.69,0,0,0,1.72.31,10.08,10.08,0,0,0,2.65-.47l.3,2.33a16.76,16.76,0,0,1-1.94.4A16,16,0,0,1,448.34,258.94Z"/><path class="cls-9" d="M459.43,258.94a4.7,4.7,0,0,1-3.22-1,3.57,3.57,0,0,1-1.14-2.83,3.73,3.73,0,0,1,1.57-3.23,7.55,7.55,0,0,1,4.44-1.13,13.45,13.45,0,0,1,2.12.15,7.44,7.44,0,0,1,1.66.43l-.55,1.8a9.61,9.61,0,0,0-1.64-.22c-.53,0-1.08,0-1.64,0-2.3,0-3.46.7-3.46,2.1a1.64,1.64,0,0,0,.6,1.36,2.69,2.69,0,0,0,1.68.47,4.54,4.54,0,0,0,2.07-.42,3.07,3.07,0,0,0,1.25-1.09,2.51,2.51,0,0,0,.41-1.37v-1.45l.78,3.41h-1.05l.42-.4a3.29,3.29,0,0,1-.53,1.92,3.22,3.22,0,0,1-1.49,1.15A6.33,6.33,0,0,1,459.43,258.94Zm4.68-.12-.18-3.94-.35-1.1v-3.43a2.16,2.16,0,0,0-.93-1.94,5.22,5.22,0,0,0-2.77-.67l-3.18-.09.25-2.35,2.68,0a7.64,7.64,0,0,1,4.89,1.42,5,5,0,0,1,1.59,4v5.54l2.26.27v2.13Z"/><path class="cls-9" d="M155.44,289.46V271.68H158v17.78Zm0-15.4v-2.38H167.2v2.38Zm0,7.68v-2.37H165v2.37Zm0,7.72v-2.38H167.2v2.38Z"/><path class="cls-9" d="M174.94,289.71c-1,0-1.86,0-2.57-.09a14.81,14.81,0,0,1-2-.29l.3-2.4c.88.13,1.65.23,2.32.3s1.31.1,1.91.1a7.7,7.7,0,0,0,2.92-.4,1.31,1.31,0,0,0,.91-1.26,1.16,1.16,0,0,0-.32-.89,2.18,2.18,0,0,0-1-.46l-3.06-.77a7.83,7.83,0,0,1-2.88-1.24,2.72,2.72,0,0,1-.92-2.24,3.38,3.38,0,0,1,1.67-3.16,11.21,11.21,0,0,1,5.39-1c.64,0,1.24,0,1.8.05s1.12.1,1.7.2l-.27,2.3c-.68-.07-1.27-.11-1.79-.14s-1,0-1.52,0a9.69,9.69,0,0,0-3.23.39,1.31,1.31,0,0,0-1,1.24.89.89,0,0,0,.42.83,4.46,4.46,0,0,0,1.26.47l2.45.6a7.42,7.42,0,0,1,3.07,1.34,3.08,3.08,0,0,1,1,2.44,3.41,3.41,0,0,1-1.57,3.12A10,10,0,0,1,174.94,289.71Z"/><path class="cls-9" d="M184.35,278.51v-2.32h12v2.32Zm3.33,4.69v-11h2.66v11Zm5.71,6.51a6.26,6.26,0,0,1-4.36-1.26,5.22,5.22,0,0,1-1.35-4v-2.26h2.66v2.13a3,3,0,0,0,.77,2.29,3.64,3.64,0,0,0,2.53.72c.42,0,.86,0,1.33-.07l1.6-.18.3,2.32c-.58.11-1.15.18-1.71.23S194,289.71,193.39,289.71Z"/><path class="cls-9" d="M199.5,289.46v-2.33h8.86v2.33Zm.5-10.95v-2.32h4.43l.25,2.32Zm2.46,10.95V276.19h2.15l.5,3.8v9.47Zm2.65-5.71-.78-4.16h1c.15-2.44,1.37-3.65,3.66-3.65a3.55,3.55,0,0,1,3,1.17,6.2,6.2,0,0,1,.93,3.81h-2.63a3.81,3.81,0,0,0-.43-2.09,1.56,1.56,0,0,0-1.4-.64,2.74,2.74,0,0,0-2.52,1.44A8.43,8.43,0,0,0,205.11,283.75Z"/><path class="cls-9" d="M219.08,289.71a4.71,4.71,0,0,1-3.22-1,3.56,3.56,0,0,1-1.14-2.83,3.75,3.75,0,0,1,1.58-3.23,7.49,7.49,0,0,1,4.43-1.12,14.76,14.76,0,0,1,2.12.14,7.86,7.86,0,0,1,1.66.43L224,283.9a8.6,8.6,0,0,0-1.64-.22c-.53,0-1.08,0-1.64,0q-3.45,0-3.45,2.1a1.65,1.65,0,0,0,.59,1.35,2.64,2.64,0,0,0,1.69.48,4.47,4.47,0,0,0,2.07-.43,3,3,0,0,0,1.24-1.09,2.49,2.49,0,0,0,.42-1.36v-1.45l.77,3.4h-1l.43-.4a3.25,3.25,0,0,1-.54,1.92,3.09,3.09,0,0,1-1.49,1.15A6,6,0,0,1,219.08,289.71Zm4.68-.13-.17-3.93-.35-1.1v-3.43a2.15,2.15,0,0,0-.94-1.95,5.38,5.38,0,0,0-2.77-.67l-3.18-.09.25-2.35,2.68,0a7.5,7.5,0,0,1,4.89,1.42,5,5,0,0,1,1.59,4v5.53l2.26.28v2.13Z"/><path class="cls-9" d="M235,289.71a4.74,4.74,0,0,1-3.95-1.72,8,8,0,0,1-1.34-5,8.58,8.58,0,0,1,1.34-5.24,4.67,4.67,0,0,1,3.95-1.77,3.9,3.9,0,0,1,2.42.7,2.76,2.76,0,0,1,1.1,1.95h1l-.77,3.78a5.09,5.09,0,0,0-.81-3.12,2.79,2.79,0,0,0-2.37-1.06,2.76,2.76,0,0,0-2.43,1.2,6.3,6.3,0,0,0-.83,3.56,5.7,5.7,0,0,0,.83,3.36,3.17,3.17,0,0,0,4.8.08,5.09,5.09,0,0,0,.81-3.12l.9,3.78h-1.15A2.62,2.62,0,0,1,237.5,289,4,4,0,0,1,235,289.71Zm4-.13-.27-2.6v-16.3h2.65v18.78Z"/><path class="cls-9" d="M249.12,289.71a4.7,4.7,0,0,1-3.21-1,3.56,3.56,0,0,1-1.14-2.83,3.74,3.74,0,0,1,1.57-3.23,7.55,7.55,0,0,1,4.44-1.12,14.87,14.87,0,0,1,2.12.14,8.19,8.19,0,0,1,1.66.43L254,283.9a8.71,8.71,0,0,0-1.64-.22c-.54,0-1.08,0-1.64,0-2.31,0-3.46.7-3.46,2.1a1.63,1.63,0,0,0,.6,1.35,2.59,2.59,0,0,0,1.68.48,4.41,4.41,0,0,0,2.07-.43,3.06,3.06,0,0,0,1.25-1.09,2.57,2.57,0,0,0,.41-1.36v-1.45l.78,3.4H253l.43-.4a3.32,3.32,0,0,1-.53,1.92,3.12,3.12,0,0,1-1.5,1.15A6,6,0,0,1,249.12,289.71Zm4.69-.13-.18-3.93-.35-1.1v-3.43a2.17,2.17,0,0,0-.93-1.95,5.43,5.43,0,0,0-2.78-.67l-3.17-.09.25-2.35,2.67,0a7.48,7.48,0,0,1,4.89,1.42,5,5,0,0,1,1.6,4v5.53l2.25.28v2.13Z"/><path class="cls-9" d="M265.71,281.07l-1.88-1.65.75-.82a5.68,5.68,0,0,0,1.09-1.58,3.78,3.78,0,0,0,.37-1.56,1.36,1.36,0,0,0-.46-1.1,2.15,2.15,0,0,0-1.35-.36h-.56v-2.32h.94a4.15,4.15,0,0,1,3,1,3.69,3.69,0,0,1,1,2.82,6,6,0,0,1-.54,2.38,8.63,8.63,0,0,1-1.65,2.46Z"/><path class="cls-9" d="M280.09,289.71c-1,0-1.86,0-2.57-.09a15.06,15.06,0,0,1-2-.29l.3-2.4c.88.13,1.65.23,2.33.3s1.3.1,1.9.1a7.76,7.76,0,0,0,2.93-.4,1.31,1.31,0,0,0,.9-1.26,1.16,1.16,0,0,0-.31-.89,2.23,2.23,0,0,0-1-.46l-3.05-.77a8,8,0,0,1-2.89-1.24,2.72,2.72,0,0,1-.92-2.24,3.38,3.38,0,0,1,1.67-3.16,11.21,11.21,0,0,1,5.39-1c.65,0,1.25,0,1.8.05s1.12.1,1.71.2l-.28,2.3c-.67-.07-1.27-.11-1.79-.14s-1,0-1.51,0a9.65,9.65,0,0,0-3.23.39,1.3,1.3,0,0,0-1,1.24.88.88,0,0,0,.41.83,4.72,4.72,0,0,0,1.26.47l2.46.6a7.43,7.43,0,0,1,3.06,1.34,3.05,3.05,0,0,1,1,2.44,3.39,3.39,0,0,1-1.57,3.12A9.92,9.92,0,0,1,280.09,289.71Z"/><path class="cls-9" d="M305.76,295.21v-19h2.4l.25,2.8v16.22Zm6.42-5.5a4,4,0,0,1-2.46-.71,2.62,2.62,0,0,1-1.06-1.95h-1.15l.9-3.78a5.09,5.09,0,0,0,.81,3.12,3.17,3.17,0,0,0,4.8-.08,5.7,5.7,0,0,0,.83-3.36,6.3,6.3,0,0,0-.83-3.56,2.76,2.76,0,0,0-2.43-1.2,2.79,2.79,0,0,0-2.37,1.06,5.09,5.09,0,0,0-.81,3.12l-.9-3.78h1a2.73,2.73,0,0,1,1.13-1.95,4.12,4.12,0,0,1,2.51-.7,4.64,4.64,0,0,1,3.95,1.77,8.58,8.58,0,0,1,1.34,5.24,8,8,0,0,1-1.34,5A4.72,4.72,0,0,1,312.18,289.71Z"/><path class="cls-9" d="M324.89,289.71a4.17,4.17,0,0,1-3.24-1.25A5,5,0,0,1,320.5,285v-8.76h2.66V285a2.3,2.3,0,0,0,.65,1.76,2.55,2.55,0,0,0,1.83.62,2.67,2.67,0,0,0,2.19-.92,5,5,0,0,0,.74-3.09l.67,3.58h-.87a3.58,3.58,0,0,1-1.23,2.08A3.53,3.53,0,0,1,324.89,289.71Zm3.68-4v-9.51h2.65V285Zm.22,3.88-.22-3.18v-2.33h2.65v3l1.83.28v2.13Z"/><path class="cls-9" d="M335.74,289.46V270.68h2.65v18.55Zm3.55.25c-.6,0-1.19,0-1.77-.07l-1.78-.18,1-2.43a4.13,4.13,0,0,0,1.47.37c.53,0,1.06.05,1.59.05a4.75,4.75,0,0,0,3.7-1.44,5.84,5.84,0,0,0,1.31-4.07,4.27,4.27,0,0,0-.8-2.77,2.72,2.72,0,0,0-2.26-1q-3.37,0-3.38,3.8l-.77-3.4h1c.13-1.77,1.21-2.65,3.26-2.65a5.32,5.32,0,0,1,4.1,1.56,6.27,6.27,0,0,1,1.46,4.44,7.55,7.55,0,0,1-2.14,5.73A8.37,8.37,0,0,1,339.29,289.71Z"/><path class="cls-9" d="M350,273v-2.33h4.13V273Zm8.26,16.7a4,4,0,0,1-3.33-1.26,6.25,6.25,0,0,1-1-4V270.68h2.65v13.64a5.84,5.84,0,0,0,.21,1.72,1.53,1.53,0,0,0,.78,1,3.7,3.7,0,0,0,1.72.32,9.69,9.69,0,0,0,2.65-.48l.3,2.33a14.89,14.89,0,0,1-1.94.4A15.91,15.91,0,0,1,358.21,289.71Z"/><path class="cls-9" d="M365.74,289.46v-2.33h5.31v2.33Zm.75-10.95v-2.32h7v2.32Zm5.55-4.43a1.84,1.84,0,0,1-1.85-1.85,1.76,1.76,0,0,1,.54-1.31,1.86,1.86,0,0,1,2.62,0,1.76,1.76,0,0,1,.54,1.31,1.84,1.84,0,0,1-1.85,1.85Zm-1.24,15.38V276.94h2.65v12.52Zm2.4,0v-2.33h4.34v2.33Z"/><path class="cls-9" d="M387.55,289.71a7.24,7.24,0,0,1-5.24-1.79,6.8,6.8,0,0,1-1.85-5.12,7,7,0,0,1,1.75-5.06,6.65,6.65,0,0,1,5-1.8,7.11,7.11,0,0,1,3.32.72,4.17,4.17,0,0,1,2,2l-2,1.54a4,4,0,0,0-1.44-1.42,3.81,3.81,0,0,0-1.91-.5,3.77,3.77,0,0,0-2.92,1.14,5.51,5.51,0,0,0,.18,6.68,4.79,4.79,0,0,0,3.49,1.2c.62,0,1.23,0,1.85-.09s1.22-.14,1.8-.24l.31,2.33a14.76,14.76,0,0,1-2.13.3C389,289.68,388.24,289.71,387.55,289.71Z"/><path class="cls-9" d="M415.29,289.71c-1,0-1.86,0-2.57-.09a14.81,14.81,0,0,1-2-.29l.3-2.4c.87.13,1.65.23,2.32.3s1.31.1,1.91.1a7.7,7.7,0,0,0,2.92-.4,1.31,1.31,0,0,0,.91-1.26,1.16,1.16,0,0,0-.32-.89,2.18,2.18,0,0,0-1-.46l-3.06-.77a7.83,7.83,0,0,1-2.88-1.24,2.69,2.69,0,0,1-.92-2.24,3.36,3.36,0,0,1,1.67-3.16,11.18,11.18,0,0,1,5.39-1c.64,0,1.24,0,1.8.05s1.12.1,1.7.2l-.27,2.3c-.68-.07-1.27-.11-1.79-.14s-1,0-1.52,0a9.69,9.69,0,0,0-3.23.39,1.31,1.31,0,0,0-1,1.24.89.89,0,0,0,.42.83,4.46,4.46,0,0,0,1.26.47l2.45.6a7.31,7.31,0,0,1,3.06,1.34,3.05,3.05,0,0,1,1,2.44,3.4,3.4,0,0,1-1.56,3.12A10,10,0,0,1,415.29,289.71Z"/><path class="cls-9" d="M425.93,295.21v-19h2.4l.25,2.8v16.22Zm6.42-5.5a4,4,0,0,1-2.46-.71,2.66,2.66,0,0,1-1.06-1.95h-1.15l.9-3.78a5.09,5.09,0,0,0,.81,3.12,3.17,3.17,0,0,0,4.8-.08A5.7,5.7,0,0,0,435,283a6.3,6.3,0,0,0-.83-3.56,2.76,2.76,0,0,0-2.43-1.2,2.79,2.79,0,0,0-2.37,1.06,5.09,5.09,0,0,0-.81,3.12l-.9-3.78h1a2.73,2.73,0,0,1,1.13-1.95,4.14,4.14,0,0,1,2.51-.7,4.67,4.67,0,0,1,4,1.77,8.65,8.65,0,0,1,1.34,5.24,8.08,8.08,0,0,1-1.34,5A4.75,4.75,0,0,1,432.35,289.71Z"/><path class="cls-9" d="M447.51,289.71a7.24,7.24,0,0,1-5.24-1.79,6.8,6.8,0,0,1-1.85-5.12,7.49,7.49,0,0,1,1.57-5.06,5.54,5.54,0,0,1,4.42-1.8,5.34,5.34,0,0,1,4.16,1.62,6.85,6.85,0,0,1,1.47,4.73c0,.61,0,1.18-.07,1.71h-9.32v-2h7a4.06,4.06,0,0,0-.85-2.75,3,3,0,0,0-2.36-1,3.19,3.19,0,0,0-2.62,1.16,5,5,0,0,0-.93,3.25,4.61,4.61,0,0,0,1.28,3.51,5.15,5.15,0,0,0,3.65,1.2,12.63,12.63,0,0,0,1.63-.1c.53-.06,1.07-.14,1.63-.25l.32,2.32a15.43,15.43,0,0,1-2.15.29C448.59,289.68,448,289.71,447.51,289.71Z"/><path class="cls-9" d="M459.43,289.71a4.71,4.71,0,0,1-3.22-1,3.56,3.56,0,0,1-1.14-2.83,3.74,3.74,0,0,1,1.57-3.23,7.55,7.55,0,0,1,4.44-1.12,14.87,14.87,0,0,1,2.12.14,8,8,0,0,1,1.66.43l-.55,1.81a8.71,8.71,0,0,0-1.64-.22c-.53,0-1.08,0-1.64,0-2.3,0-3.46.7-3.46,2.1a1.63,1.63,0,0,0,.6,1.35,2.62,2.62,0,0,0,1.68.48,4.41,4.41,0,0,0,2.07-.43,3,3,0,0,0,1.25-1.09,2.48,2.48,0,0,0,.41-1.36v-1.45l.78,3.4h-1.05l.42-.4a3.25,3.25,0,0,1-.53,1.92,3.09,3.09,0,0,1-1.49,1.15A6.12,6.12,0,0,1,459.43,289.71Zm4.68-.13-.18-3.93-.35-1.1v-3.43a2.17,2.17,0,0,0-.93-1.95,5.41,5.41,0,0,0-2.77-.67l-3.18-.09.25-2.35,2.68,0a7.52,7.52,0,0,1,4.89,1.42,5,5,0,0,1,1.59,4v5.53l2.26.28v2.13Z"/><path class="cls-9" d="M470.89,289.46V270.68h2.66v18.78Zm1.88-5V282h1.5a5.72,5.72,0,0,0,2.72-.57,3.8,3.8,0,0,0,1.67-1.85,12.08,12.08,0,0,0,.9-3.43h2.75a11.29,11.29,0,0,1-2.36,6.19,6.45,6.45,0,0,1-5.05,2Zm7.11,5L476.1,283l2.5-1,4.56,7.49Z"/><path class="cls-9" d="M492.57,289.71a7.21,7.21,0,0,1-5.23-1.79,6.77,6.77,0,0,1-1.85-5.12,7.49,7.49,0,0,1,1.56-5.06,5.56,5.56,0,0,1,4.42-1.8,5.36,5.36,0,0,1,4.17,1.62,6.85,6.85,0,0,1,1.47,4.73c0,.61,0,1.18-.08,1.71h-9.31v-2h7a4,4,0,0,0-.85-2.75,3,3,0,0,0-2.35-1,3.17,3.17,0,0,0-2.62,1.16,5,5,0,0,0-.94,3.25,4.58,4.58,0,0,0,1.29,3.51,5.13,5.13,0,0,0,3.65,1.2,12.36,12.36,0,0,0,1.62-.1c.54-.06,1.08-.14,1.63-.25l.33,2.32a15.76,15.76,0,0,1-2.16.29C493.65,289.68,493.07,289.71,492.57,289.71Z"/><path class="cls-9" d="M499.93,289.46v-2.33h8.87v2.33Zm.51-10.95v-2.32h4.43l.25,2.32Zm2.45,10.95V276.19H505l.5,3.8v9.47Zm2.65-5.71-.77-4.16h1c.15-2.44,1.37-3.65,3.66-3.65a3.57,3.57,0,0,1,3,1.17,6.21,6.21,0,0,1,.92,3.81h-2.62a3.8,3.8,0,0,0-.44-2.09,1.54,1.54,0,0,0-1.39-.64,2.71,2.71,0,0,0-2.52,1.44A8.31,8.31,0,0,0,505.54,283.75Z"/><path class="cls-9" d="M165.33,322.72a7.45,7.45,0,0,1-6.32-3c-1.5-2-2.25-4.83-2.25-8.47s.75-6.39,2.25-8.36a7.48,7.48,0,0,1,6.32-3h.6v2.25h-.35a5.22,5.22,0,0,0-4.58,2.38,11.9,11.9,0,0,0-1.61,6.69,12.19,12.19,0,0,0,1.61,6.79,5.16,5.16,0,0,0,4.58,2.42h.35v2.25Z"/><path class="cls-9" d="M170.56,304.82v-2.38h10.82v2.38Zm0,15.4v-2.38h10.82v2.38Zm4.09,0V302.44h2.61v17.78Z"/><path class="cls-9" d="M200.6,320.22V301.44h2.66v18.78Zm8.17,0v-8.64a2.75,2.75,0,0,0-.63-1.94,2.25,2.25,0,0,0-1.75-.69q-3.13,0-3.13,3.81l-.78-3.41h1a2.64,2.64,0,0,1,1-2,4.13,4.13,0,0,1,2.53-.66,4.18,4.18,0,0,1,3.26,1.28,5.22,5.22,0,0,1,1.15,3.6v8.64Z"/><path class="cls-9" d="M219.08,320.47a4.7,4.7,0,0,1-3.22-1,3.57,3.57,0,0,1-1.14-2.83,3.74,3.74,0,0,1,1.58-3.23,7.49,7.49,0,0,1,4.43-1.13,13.36,13.36,0,0,1,2.12.15,7.3,7.3,0,0,1,1.66.43l-.55,1.8a9.48,9.48,0,0,0-1.64-.22c-.53,0-1.08,0-1.64,0q-3.45,0-3.45,2.1a1.66,1.66,0,0,0,.59,1.36,2.7,2.7,0,0,0,1.69.47,4.6,4.6,0,0,0,2.07-.42,3.1,3.1,0,0,0,1.24-1.09,2.53,2.53,0,0,0,.42-1.37V314l.77,3.41h-1l.43-.4a3.29,3.29,0,0,1-.54,1.92,3.22,3.22,0,0,1-1.49,1.15A6.25,6.25,0,0,1,219.08,320.47Zm4.68-.13-.17-3.93-.35-1.1v-3.43a2.15,2.15,0,0,0-.94-1.94,5.19,5.19,0,0,0-2.77-.67l-3.18-.09.25-2.35,2.68,0a7.62,7.62,0,0,1,4.89,1.42,5,5,0,0,1,1.59,4v5.54l2.26.27v2.13Z"/><path class="cls-9" d="M234.29,320.22,229.55,307h2.82l3.57,11h.23l3.56-11h2.84l-4.75,13.27Z"/><path class="cls-9" d="M252.23,320.47a7.23,7.23,0,0,1-5.24-1.78,6.81,6.81,0,0,1-1.85-5.13,7.44,7.44,0,0,1,1.57-5.06,5.53,5.53,0,0,1,4.42-1.8,5.31,5.31,0,0,1,4.16,1.63,6.82,6.82,0,0,1,1.47,4.73c0,.61,0,1.18-.07,1.7h-9.32v-2h7a4,4,0,0,0-.85-2.74,3,3,0,0,0-2.36-1,3.18,3.18,0,0,0-2.62,1.15,5.06,5.06,0,0,0-.93,3.26,4.55,4.55,0,0,0,1.28,3.5,5.13,5.13,0,0,0,3.65,1.2,14.7,14.7,0,0,0,1.63-.09c.53-.06,1.07-.15,1.62-.26l.33,2.33a17.34,17.34,0,0,1-2.15.29C253.31,320.45,252.73,320.47,252.23,320.47Z"/><path class="cls-9" d="M279.17,320.47a4.7,4.7,0,0,1-3.22-1,3.57,3.57,0,0,1-1.14-2.83,3.75,3.75,0,0,1,1.57-3.23,7.55,7.55,0,0,1,4.44-1.13,13.45,13.45,0,0,1,2.12.15,7.44,7.44,0,0,1,1.66.43l-.55,1.8a9.61,9.61,0,0,0-1.64-.22c-.53,0-1.08,0-1.64,0q-3.45,0-3.45,2.1a1.63,1.63,0,0,0,.59,1.36,2.69,2.69,0,0,0,1.68.47,4.61,4.61,0,0,0,2.08-.42,3.1,3.1,0,0,0,1.24-1.09,2.51,2.51,0,0,0,.41-1.37V314l.78,3.41h-1.05l.42-.4a3.29,3.29,0,0,1-.53,1.92,3.22,3.22,0,0,1-1.49,1.15A6.33,6.33,0,0,1,279.17,320.47Zm4.68-.13-.18-3.93-.35-1.1v-3.43a2.16,2.16,0,0,0-.93-1.94,5.19,5.19,0,0,0-2.77-.67l-3.18-.09.25-2.35,2.68,0a7.64,7.64,0,0,1,4.89,1.42,5,5,0,0,1,1.59,4v5.54l2.26.27v2.13Z"/><path class="cls-9" d="M304.5,312.21v-2.33h12.27v2.33Zm4.19,8V308.08q0-6.88,6.28-6.89a15.37,15.37,0,0,1,2.75.25l-.27,2.31c-.53-.07-1-.12-1.39-.14s-.79,0-1.16,0q-3.56,0-3.56,4.38v12.27Z"/><path class="cls-9" d="M324.89,320.47a4.14,4.14,0,0,1-3.24-1.25,5,5,0,0,1-1.15-3.51V307h2.66v8.76a2.29,2.29,0,0,0,.65,1.76,2.51,2.51,0,0,0,1.83.62,2.64,2.64,0,0,0,2.19-.92,5,5,0,0,0,.74-3.08l.67,3.58h-.87a3.56,3.56,0,0,1-1.23,2.07A3.48,3.48,0,0,1,324.89,320.47Zm3.68-4V307h2.65v8.76Zm.22,3.88-.22-3.17v-2.33h2.65v3l1.83.27v2.13Z"/><path class="cls-9" d="M335.8,320.22V307h2.4l.25,2.8v10.47Zm8.16,0v-8.64a2.58,2.58,0,0,0-.62-1.85,2.36,2.36,0,0,0-1.76-.65c-2.08,0-3.13,1.23-3.13,3.68l-.77-3.41h1a2.68,2.68,0,0,1,1-2,4.13,4.13,0,0,1,2.53-.66,4.18,4.18,0,0,1,3.26,1.28,5.22,5.22,0,0,1,1.15,3.6v8.64Z"/><path class="cls-9" d="M366,326.23l-.12-2.36,2.5-.22a4.37,4.37,0,0,0,2.93-1.17,4.42,4.42,0,0,0,.9-3v-4h2.66V319a9.05,9.05,0,0,1-.71,3.86,4.71,4.71,0,0,1-2.18,2.25,10.41,10.41,0,0,1-3.85.93Zm1.06-17V307h5.35v2.33Zm6.2-4.43a1.74,1.74,0,0,1-1.3-.55,1.85,1.85,0,0,1,1.3-3.16,1.85,1.85,0,0,1,1.32,3.16A1.77,1.77,0,0,1,373.25,304.85Zm-1.05,11V307h2.66v8.89Z"/><path class="cls-9" d="M386.27,320.47a5.32,5.32,0,0,1-4.28-1.8,9.22,9.22,0,0,1,0-10.17,6,6,0,0,1,8.57,0,9.27,9.27,0,0,1,0,10.17A5.3,5.3,0,0,1,386.27,320.47Zm0-2.38a2.57,2.57,0,0,0,2.26-1.17,7.35,7.35,0,0,0,0-6.67,2.77,2.77,0,0,0-4.52,0,7.43,7.43,0,0,0,0,6.67A2.58,2.58,0,0,0,386.27,318.09Z"/><path class="cls-9" d="M395.82,320.22V301.44h2.66V320Zm3.56.25c-.6,0-1.19,0-1.78-.07s-1.18-.11-1.78-.18l1-2.43a4.08,4.08,0,0,0,1.47.37c.53,0,1.06.06,1.58.06a4.73,4.73,0,0,0,3.7-1.44,5.81,5.81,0,0,0,1.31-4.07,4.3,4.3,0,0,0-.79-2.78,2.76,2.76,0,0,0-2.26-1c-2.26,0-3.38,1.27-3.38,3.81l-.78-3.41h1c.12-1.77,1.21-2.65,3.25-2.65a5.34,5.34,0,0,1,4.11,1.56,6.31,6.31,0,0,1,1.45,4.45,7.56,7.56,0,0,1-2.13,5.73A8.43,8.43,0,0,1,399.38,320.47Z"/><path class="cls-9" d="M411.33,322.72v-2.25h.35a5.16,5.16,0,0,0,4.58-2.42,12.19,12.19,0,0,0,1.61-6.79,11.9,11.9,0,0,0-1.61-6.69,5.22,5.22,0,0,0-4.58-2.38h-.35v-2.25h.6a7.5,7.5,0,0,1,6.33,3q2.24,3,2.24,8.36c0,3.64-.75,6.47-2.24,8.47a7.47,7.47,0,0,1-6.33,3Z"/><path class="cls-9" d="M444.4,320.47a4.69,4.69,0,0,1-3.21-1,3.57,3.57,0,0,1-1.14-2.83,3.73,3.73,0,0,1,1.57-3.23,7.55,7.55,0,0,1,4.44-1.13,13.45,13.45,0,0,1,2.12.15,7.58,7.58,0,0,1,1.66.43l-.55,1.8a9.61,9.61,0,0,0-1.64-.22c-.54,0-1.08,0-1.64,0-2.3,0-3.46.7-3.46,2.1a1.64,1.64,0,0,0,.6,1.36,2.67,2.67,0,0,0,1.68.47,4.54,4.54,0,0,0,2.07-.42,3.13,3.13,0,0,0,1.25-1.09,2.6,2.6,0,0,0,.41-1.37V314l.78,3.41h-1l.42-.4a3.36,3.36,0,0,1-.53,1.92,3.24,3.24,0,0,1-1.5,1.15A6.25,6.25,0,0,1,444.4,320.47Zm4.69-.13-.18-3.93-.35-1.1v-3.43a2.16,2.16,0,0,0-.93-1.94,5.22,5.22,0,0,0-2.77-.67l-3.18-.09.25-2.35,2.68,0a7.59,7.59,0,0,1,4.88,1.42,5,5,0,0,1,1.6,4v5.54l2.25.27v2.13Z"/><path class="cls-9" d="M456,320.22V307h2.41l.25,2.8v10.47Zm8.16,0v-8.64a2.54,2.54,0,0,0-.62-1.85,2.33,2.33,0,0,0-1.75-.65q-3.13,0-3.13,3.68l-.78-3.41h1a2.64,2.64,0,0,1,1-2,4.13,4.13,0,0,1,2.53-.66,4.18,4.18,0,0,1,3.26,1.28,5.22,5.22,0,0,1,1.15,3.6v8.64Z"/><path class="cls-9" d="M475.39,320.47a4.69,4.69,0,0,1-3.95-1.72,8,8,0,0,1-1.35-5,8.55,8.55,0,0,1,1.35-5.23,4.62,4.62,0,0,1,3.95-1.78,3.9,3.9,0,0,1,2.42.7,2.76,2.76,0,0,1,1.09,2h1l-.78,3.78a5.08,5.08,0,0,0-.8-3.11A2.8,2.8,0,0,0,476,309a2.74,2.74,0,0,0-2.43,1.21,6.27,6.27,0,0,0-.83,3.55,5.72,5.72,0,0,0,.83,3.37,3.16,3.16,0,0,0,4.8.07,5.08,5.08,0,0,0,.8-3.11l.91,3.78H478.9a2.65,2.65,0,0,1-1,1.95A4,4,0,0,1,475.39,320.47Zm4-.13-.28-2.6v-16.3h2.66v18.78Z"/><path class="cls-9" d="M155.54,335.59v-2.38h10.81v2.38Zm0,15.39v-2.37h10.81V351Zm4.09,0V333.21h2.6V351Z"/><path class="cls-9" d="M174.77,341.22l-.26-8h2.91l-.25,8Z"/><path class="cls-9" d="M184.88,351V337.72h2.35l.3,2.8V351Zm5,0V340.59c0-.75-.35-1.12-1.05-1.12-.85,0-1.28.6-1.28,1.8l-.77-1.9h.85c.1-1.27.86-1.91,2.28-1.91a2,2,0,0,1,1.63.72,3.29,3.29,0,0,1,.6,2.16V351Zm4.58,0V340.84c0-.91-.34-1.37-1-1.37-.87,0-1.3.6-1.3,1.8l-.91-1.9h1a2.07,2.07,0,0,1,.62-1.34,2.15,2.15,0,0,1,1.61-.57,2.48,2.48,0,0,1,2,.74,3.68,3.68,0,0,1,.63,2.39V351Z"/><path class="cls-9" d="M215.63,351V332.21h2.65V351Zm8.16,0v-8.63a2.76,2.76,0,0,0-.63-2,2.27,2.27,0,0,0-1.75-.68q-3.14,0-3.13,3.8l-.78-3.4h1a2.64,2.64,0,0,1,1-2,4.07,4.07,0,0,1,2.52-.66,4.17,4.17,0,0,1,3.26,1.28,5.18,5.18,0,0,1,1.15,3.61V351Z"/><path class="cls-9" d="M237.21,351.23a7.22,7.22,0,0,1-5.24-1.78,6.81,6.81,0,0,1-1.85-5.13,7.41,7.41,0,0,1,1.57-5.05,5.54,5.54,0,0,1,4.42-1.81,5.34,5.34,0,0,1,4.16,1.63,6.84,6.84,0,0,1,1.47,4.73c0,.61,0,1.18-.08,1.71h-9.31v-2h7a4,4,0,0,0-.85-2.75,3,3,0,0,0-2.35-1,3.19,3.19,0,0,0-2.62,1.15,5.08,5.08,0,0,0-.94,3.26,4.54,4.54,0,0,0,1.29,3.5,5.09,5.09,0,0,0,3.65,1.21,14.38,14.38,0,0,0,1.62-.1c.54-.06,1.08-.15,1.63-.25l.33,2.32a17.48,17.48,0,0,1-2.16.29C238.28,351.21,237.71,351.23,237.21,351.23Z"/><path class="cls-9" d="M244.57,351v-2.32h8.86V351Zm.5-10.94v-2.32h4.43l.25,2.32ZM247.52,351V337.72h2.15l.51,3.8V351Zm2.66-5.7-.78-4.16h1c.15-2.44,1.36-3.66,3.65-3.66a3.58,3.58,0,0,1,3,1.18,6.18,6.18,0,0,1,.93,3.81h-2.63a3.9,3.9,0,0,0-.43-2.09,1.57,1.57,0,0,0-1.4-.64,2.71,2.71,0,0,0-2.52,1.44A8.32,8.32,0,0,0,250.18,345.28Z"/><path class="cls-9" d="M267.25,351.23a7.23,7.23,0,0,1-5.24-1.78,6.81,6.81,0,0,1-1.85-5.13,7.47,7.47,0,0,1,1.57-5.05,5.55,5.55,0,0,1,4.42-1.81,5.34,5.34,0,0,1,4.16,1.63,6.84,6.84,0,0,1,1.47,4.73c0,.61,0,1.18-.07,1.71h-9.32v-2h7a4.06,4.06,0,0,0-.85-2.75,3,3,0,0,0-2.36-1,3.21,3.21,0,0,0-2.62,1.15,5.08,5.08,0,0,0-.93,3.26,4.57,4.57,0,0,0,1.28,3.5,5.11,5.11,0,0,0,3.65,1.21,14.7,14.7,0,0,0,1.63-.1c.53-.06,1.07-.15,1.63-.25l.32,2.32a17.1,17.1,0,0,1-2.15.29C268.33,351.21,267.75,351.23,267.25,351.23Z"/><path class="cls-9" d="M289.51,340v-2.32h12V340Zm3.33,4.69v-11h2.65v11Zm5.71,6.5a6.29,6.29,0,0,1-4.37-1.25,5.26,5.26,0,0,1-1.34-4v-2.26h2.65v2.13a3,3,0,0,0,.77,2.29,3.67,3.67,0,0,0,2.54.72c.41,0,.86,0,1.32-.07l1.61-.18.3,2.32c-.59.1-1.16.18-1.71.23S299.17,351.23,298.55,351.23Z"/><path class="cls-9" d="M311.16,351.23a5.32,5.32,0,0,1-4.28-1.8,9.27,9.27,0,0,1,0-10.17,6,6,0,0,1,8.57,0,9.27,9.27,0,0,1,0,10.17A5.3,5.3,0,0,1,311.16,351.23Zm0-2.37a2.58,2.58,0,0,0,2.26-1.18,7.35,7.35,0,0,0,0-6.67,2.77,2.77,0,0,0-4.52,0,7.43,7.43,0,0,0,0,6.67A2.6,2.6,0,0,0,311.16,348.86Z"/><path class="cls-9" d="M334.57,340v-2.32h12V340Zm3.33,4.69v-11h2.66v11Zm5.71,6.5a6.26,6.26,0,0,1-4.36-1.25,5.22,5.22,0,0,1-1.35-4v-2.26h2.66v2.13a3,3,0,0,0,.77,2.29,3.64,3.64,0,0,0,2.53.72c.42,0,.86,0,1.33-.07l1.6-.18.3,2.32c-.58.1-1.15.18-1.71.23S344.24,351.23,343.61,351.23Z"/><path class="cls-9" d="M356.23,351.23a5.3,5.3,0,0,1-4.28-1.8,9.22,9.22,0,0,1,0-10.17,6,6,0,0,1,8.57,0,9.27,9.27,0,0,1,0,10.17A5.32,5.32,0,0,1,356.23,351.23Zm0-2.37a2.58,2.58,0,0,0,2.26-1.18,7.43,7.43,0,0,0,0-6.67,2.77,2.77,0,0,0-4.52,0,7.35,7.35,0,0,0,0,6.67A2.58,2.58,0,0,0,356.23,348.86Z"/><path class="cls-9" d="M385.26,351.23a4.72,4.72,0,0,1-3.95-1.71,8,8,0,0,1-1.35-5,8.58,8.58,0,0,1,1.35-5.24,4.66,4.66,0,0,1,3.95-1.78,3.91,3.91,0,0,1,2.42.71,2.76,2.76,0,0,1,1.1,1.95h1L389,343.9a5.09,5.09,0,0,0-.81-3.12,2.79,2.79,0,0,0-2.37-1.06,2.76,2.76,0,0,0-2.43,1.2,6.3,6.3,0,0,0-.83,3.56,5.7,5.7,0,0,0,.83,3.36,3.17,3.17,0,0,0,4.8.08,5.09,5.09,0,0,0,.81-3.12l.9,3.78h-1.15a2.66,2.66,0,0,1-1.06,1.95A4,4,0,0,1,385.26,351.23Zm4-.12-.27-2.6v-16.3h2.65V351Z"/><path class="cls-9" d="M402.45,351.23a7.22,7.22,0,0,1-5.24-1.78,6.81,6.81,0,0,1-1.85-5.13,7.46,7.46,0,0,1,1.56-5.05,5.56,5.56,0,0,1,4.42-1.81,5.35,5.35,0,0,1,4.17,1.63,6.84,6.84,0,0,1,1.47,4.73c0,.61,0,1.18-.08,1.71h-9.31v-2h7a4,4,0,0,0-.85-2.75,3,3,0,0,0-2.35-1,3.19,3.19,0,0,0-2.62,1.15,5.08,5.08,0,0,0-.93,3.26,4.53,4.53,0,0,0,1.28,3.5,5.09,5.09,0,0,0,3.65,1.21,14.38,14.38,0,0,0,1.62-.1c.54-.06,1.08-.15,1.63-.25l.33,2.32a17.48,17.48,0,0,1-2.16.29C403.52,351.21,403,351.23,402.45,351.23Z"/><path class="cls-9" d="M410,334.54v-2.33h4.13v2.33Zm8.26,16.69A4.06,4.06,0,0,1,415,350a6.31,6.31,0,0,1-1-4V332.21h2.65v13.64a6.29,6.29,0,0,0,.2,1.72,1.59,1.59,0,0,0,.78,1,3.75,3.75,0,0,0,1.73.32,9.75,9.75,0,0,0,2.65-.48l.3,2.33a15.38,15.38,0,0,1-1.95.4A15.74,15.74,0,0,1,418.29,351.23Z"/><path class="cls-9" d="M425.83,351v-2.32h5.31V351Zm.75-10.94v-2.32h7V340Zm5.55-4.43a1.86,1.86,0,0,1-1.86-1.85,1.77,1.77,0,0,1,.55-1.32,1.88,1.88,0,0,1,2.62,0,1.86,1.86,0,0,1-1.31,3.17ZM430.89,351V338.47h2.65V351Zm2.4,0v-2.32h4.33V351Z"/><path class="cls-9" d="M444.59,351l-4.74-13.26h2.83l3.57,11h.22l3.57-11h2.83L448.12,351Z"/><path class="cls-9" d="M462.53,351.23a7.23,7.23,0,0,1-5.24-1.78,6.81,6.81,0,0,1-1.84-5.13,7.46,7.46,0,0,1,1.56-5.05,5.56,5.56,0,0,1,4.42-1.81,5.33,5.33,0,0,1,4.16,1.63,6.84,6.84,0,0,1,1.47,4.73c0,.61,0,1.18-.07,1.71h-9.32v-2h7a4,4,0,0,0-.85-2.75,3,3,0,0,0-2.35-1,3.21,3.21,0,0,0-2.63,1.15,5.08,5.08,0,0,0-.93,3.26,4.57,4.57,0,0,0,1.28,3.5,5.11,5.11,0,0,0,3.65,1.21,14.56,14.56,0,0,0,1.63-.1c.53-.06,1.08-.15,1.63-.25l.32,2.32a17.1,17.1,0,0,1-2.15.29C463.61,351.21,463,351.23,462.53,351.23Z"/><path class="cls-9" d="M469.89,351v-2.32h8.86V351Zm.5-10.94v-2.32h4.43l.25,2.32ZM472.85,351V337.72H475l.5,3.8V351Zm2.65-5.7-.78-4.16h1q.22-3.66,3.66-3.66a3.59,3.59,0,0,1,3,1.18,6.25,6.25,0,0,1,.92,3.81h-2.63a3.81,3.81,0,0,0-.43-2.09,1.55,1.55,0,0,0-1.39-.64,2.74,2.74,0,0,0-2.53,1.44A8.43,8.43,0,0,0,475.5,345.28Z"/><path class="cls-9" d="M155.54,381.75V363h2.65v18.78Zm8.16,0v-8.64a2.75,2.75,0,0,0-.63-1.94,2.23,2.23,0,0,0-1.75-.69q-3.13,0-3.13,3.81l-.78-3.41h1a2.63,2.63,0,0,1,1-2,4.93,4.93,0,0,1,5.78.62,5.17,5.17,0,0,1,1.15,3.6v8.64Z"/><path class="cls-9" d="M177.12,382a7.28,7.28,0,0,1-5.24-1.78,6.81,6.81,0,0,1-1.85-5.13A7.49,7.49,0,0,1,171.6,370a5.53,5.53,0,0,1,4.42-1.8,5.31,5.31,0,0,1,4.16,1.63,6.82,6.82,0,0,1,1.47,4.73,15,15,0,0,1-.08,1.7h-9.31v-2h7a4,4,0,0,0-.85-2.74,3,3,0,0,0-2.36-1,3.18,3.18,0,0,0-2.62,1.15,5.05,5.05,0,0,0-.93,3.25,4.56,4.56,0,0,0,1.28,3.51,5.15,5.15,0,0,0,3.65,1.2,14.7,14.7,0,0,0,1.63-.09c.53-.07,1.07-.15,1.62-.26l.33,2.33a19.17,19.17,0,0,1-2.15.29C178.2,382,177.62,382,177.12,382Z"/><path class="cls-9" d="M184.48,381.75v-2.33h8.86v2.33Zm.5-10.94v-2.33h4.43l.25,2.33Zm2.45,10.94V368.48h2.16l.5,3.81v9.46Zm2.66-5.71-.78-4.16h1q.22-3.64,3.65-3.65a3.54,3.54,0,0,1,3,1.18,6.15,6.15,0,0,1,.93,3.8h-2.63a3.84,3.84,0,0,0-.43-2.09,1.59,1.59,0,0,0-1.4-.64,2.73,2.73,0,0,0-2.52,1.45A8.25,8.25,0,0,0,190.09,376Z"/><path class="cls-9" d="M215.53,381.75v-2.33h5.3v2.33Zm.75-10.94v-2.33h7v2.33Zm5.54-4.43a1.86,1.86,0,0,1-1.31-3.17,1.86,1.86,0,0,1,2.63,2.62A1.77,1.77,0,0,1,221.82,366.38Zm-1.24,15.37V369.23h2.66v12.52Zm2.41,0v-2.33h4.33v2.33Z"/><path class="cls-9" d="M230.65,381.75V368.48h2.4l.25,2.8v10.47Zm8.16,0v-8.64a2.54,2.54,0,0,0-.63-1.85,2.32,2.32,0,0,0-1.75-.65c-2.09,0-3.13,1.22-3.13,3.68l-.77-3.41h1a2.63,2.63,0,0,1,1-2,4.93,4.93,0,0,1,5.78.62,5.17,5.17,0,0,1,1.15,3.6v8.64Z"/><path class="cls-9" d="M244.44,370.81v-2.33h12v2.33Zm3.33,4.68v-11h2.66v11Zm5.71,6.51a6.29,6.29,0,0,1-4.36-1.25,5.25,5.25,0,0,1-1.35-4v-2.25h2.66v2.13a3,3,0,0,0,.77,2.29,3.68,3.68,0,0,0,2.53.71,12.5,12.5,0,0,0,1.33-.07c.47,0,1-.1,1.6-.18l.3,2.33c-.58.1-1.15.17-1.71.22S254.11,382,253.48,382Z"/><path class="cls-9" d="M259.59,381.75v-2.33h8.86v2.33Zm.5-10.94v-2.33h4.43l.25,2.33Zm2.45,10.94V368.48h2.16l.5,3.81v9.46ZM265.2,376l-.78-4.16h1q.23-3.64,3.65-3.65a3.54,3.54,0,0,1,3,1.18,6.15,6.15,0,0,1,.93,3.8h-2.63a3.84,3.84,0,0,0-.43-2.09,1.59,1.59,0,0,0-1.4-.64,2.72,2.72,0,0,0-2.52,1.45A8.36,8.36,0,0,0,265.2,376Z"/><path class="cls-9" d="M281.12,382a5.3,5.3,0,0,1-4.28-1.8,9.22,9.22,0,0,1,0-10.17,6,6,0,0,1,8.57,0,9.27,9.27,0,0,1,0,10.17A5.31,5.31,0,0,1,281.12,382Zm0-2.38a2.55,2.55,0,0,0,2.26-1.18,7.33,7.33,0,0,0,0-6.66,2.77,2.77,0,0,0-4.52,0,7.41,7.41,0,0,0,0,6.66A2.57,2.57,0,0,0,281.12,379.62Z"/><path class="cls-9" d="M295.13,382a4.7,4.7,0,0,1-3.95-1.72,8,8,0,0,1-1.35-5,8.55,8.55,0,0,1,1.35-5.23,4.63,4.63,0,0,1,3.95-1.78,3.9,3.9,0,0,1,2.42.7,2.81,2.81,0,0,1,1.1,1.95h1l-.77,3.78a5.06,5.06,0,0,0-.81-3.11,2.8,2.8,0,0,0-2.37-1.07,2.76,2.76,0,0,0-2.43,1.2,6.33,6.33,0,0,0-.83,3.56,5.72,5.72,0,0,0,.83,3.37,3.16,3.16,0,0,0,4.8.07,5.09,5.09,0,0,0,.81-3.12l.9,3.79h-1.15a2.69,2.69,0,0,1-1.06,1.95A4,4,0,0,1,295.13,382Zm4-.13-.27-2.6V363h2.65v18.78Z"/><path class="cls-9" d="M309.86,382a4.17,4.17,0,0,1-3.23-1.25,5,5,0,0,1-1.15-3.51v-8.76h2.66v8.76a2.29,2.29,0,0,0,.65,1.76,2.54,2.54,0,0,0,1.82.62,2.68,2.68,0,0,0,2.2-.92,5,5,0,0,0,.73-3.08l.68,3.58h-.88a3.55,3.55,0,0,1-1.22,2.07A3.48,3.48,0,0,1,309.86,382Zm3.68-4v-9.51h2.66v8.76Zm.23,3.88-.23-3.18v-2.32h2.66v3l1.83.27v2.13Z"/><path class="cls-9" d="M327.46,382a7.25,7.25,0,0,1-5.23-1.78,6.77,6.77,0,0,1-1.85-5.13,7,7,0,0,1,1.74-5.06,6.65,6.65,0,0,1,5-1.8,7.15,7.15,0,0,1,3.33.72,4.21,4.21,0,0,1,2,2l-2,1.54a4,4,0,0,0-1.44-1.41,4.16,4.16,0,0,0-4.83.63,4.57,4.57,0,0,0-1,3.22,4.63,4.63,0,0,0,1.22,3.47,4.78,4.78,0,0,0,3.48,1.19q.93,0,1.86-.09c.61,0,1.21-.13,1.8-.23l.3,2.32a14.43,14.43,0,0,1-2.12.3C328.87,382,328.16,382,327.46,382Z"/><path class="cls-9" d="M334.57,370.81v-2.33h12v2.33Zm3.33,4.68v-11h2.66v11Zm5.71,6.51a6.31,6.31,0,0,1-4.36-1.25,5.25,5.25,0,0,1-1.35-4v-2.25h2.66v2.13a3,3,0,0,0,.77,2.29,3.69,3.69,0,0,0,2.53.71,12.5,12.5,0,0,0,1.33-.07c.47,0,1-.1,1.6-.18l.3,2.33c-.58.1-1.15.17-1.71.22S344.24,382,343.61,382Z"/><path class="cls-9" d="M350.72,381.75v-2.33H356v2.33Zm.75-10.94v-2.33h7v2.33Zm5.55-4.43a1.76,1.76,0,0,1-1.31-.55,1.85,1.85,0,1,1,2.62,0A1.74,1.74,0,0,1,357,366.38Zm-1.24,15.37V369.23h2.65v12.52Zm2.4,0v-2.33h4.33v2.33Z"/><path class="cls-9" d="M371.25,382a5.3,5.3,0,0,1-4.28-1.8A9.22,9.22,0,0,1,367,370a6,6,0,0,1,8.57,0,9.27,9.27,0,0,1,0,10.17A5.31,5.31,0,0,1,371.25,382Zm0-2.38a2.55,2.55,0,0,0,2.26-1.18,7.33,7.33,0,0,0,0-6.66,2.77,2.77,0,0,0-4.52,0,7.41,7.41,0,0,0,0,6.66A2.55,2.55,0,0,0,371.25,379.62Z"/><path class="cls-9" d="M380.87,381.75V368.48h2.4l.25,2.8v10.47Zm8.16,0v-8.64a2.54,2.54,0,0,0-.63-1.85,2.33,2.33,0,0,0-1.75-.65c-2.09,0-3.13,1.22-3.13,3.68l-.78-3.41h1a2.62,2.62,0,0,1,1-2,4.95,4.95,0,0,1,5.79.62,5.17,5.17,0,0,1,1.15,3.6v8.64Z"/><path class="cls-9" d="M154.84,412.51V399.24h2.35l.3,2.81v10.46Zm5,0V402.12c0-.75-.35-1.12-1-1.12-.85,0-1.28.6-1.28,1.8l-.78-1.9h.86c.09-1.27.85-1.91,2.27-1.91a2,2,0,0,1,1.64.72,3.35,3.35,0,0,1,.59,2.16v10.64Zm4.58,0V402.37c0-.91-.34-1.37-1-1.37-.86,0-1.3.6-1.3,1.8l-.9-1.9h1a2,2,0,0,1,.62-1.34,2.13,2.13,0,0,1,1.6-.57,2.51,2.51,0,0,1,2,.74,3.68,3.68,0,0,1,.62,2.39v10.39Z"/><path class="cls-9" d="M177.12,412.76a7.23,7.23,0,0,1-5.24-1.78,6.81,6.81,0,0,1-1.85-5.13,7.47,7.47,0,0,1,1.57-5.05A5.5,5.5,0,0,1,176,399a5.34,5.34,0,0,1,4.16,1.63,6.84,6.84,0,0,1,1.47,4.73,15.34,15.34,0,0,1-.08,1.71h-9.31v-2h7a4,4,0,0,0-.85-2.75,3,3,0,0,0-2.36-1,3.21,3.21,0,0,0-2.62,1.15,5.08,5.08,0,0,0-.93,3.26,4.55,4.55,0,0,0,1.28,3.5,5.11,5.11,0,0,0,3.65,1.21,14.7,14.7,0,0,0,1.63-.1c.53-.06,1.07-.15,1.62-.26l.33,2.33a17.1,17.1,0,0,1-2.15.29C178.2,412.74,177.62,412.76,177.12,412.76Z"/><path class="cls-9" d="M190,412.76c-1,0-1.86,0-2.57-.08a15.06,15.06,0,0,1-2-.29l.3-2.41c.88.14,1.65.24,2.32.31s1.31.1,1.91.1a8,8,0,0,0,2.93-.4,1.31,1.31,0,0,0,.9-1.26,1.12,1.12,0,0,0-.32-.89,2.18,2.18,0,0,0-1-.46l-3.05-.78a7.74,7.74,0,0,1-2.89-1.23,2.73,2.73,0,0,1-.92-2.25A3.38,3.38,0,0,1,187.3,400a11.19,11.19,0,0,1,5.39-1q1,0,1.8.06c.55,0,1.12.1,1.71.19l-.28,2.31c-.68-.07-1.27-.11-1.79-.14s-1,0-1.51,0a9.94,9.94,0,0,0-3.23.38,1.31,1.31,0,0,0-1,1.25.89.89,0,0,0,.41.83,4.46,4.46,0,0,0,1.26.47l2.46.6a7.43,7.43,0,0,1,3.06,1.34,3.07,3.07,0,0,1,1,2.44,3.36,3.36,0,0,1-1.57,3.11A9.82,9.82,0,0,1,190,412.76Z"/><path class="cls-9" d="M205,412.76c-1,0-1.85,0-2.57-.08a15.33,15.33,0,0,1-2-.29l.3-2.41c.88.14,1.65.24,2.32.31s1.31.1,1.91.1a8,8,0,0,0,2.93-.4,1.32,1.32,0,0,0,.91-1.26,1.15,1.15,0,0,0-.32-.89,2.23,2.23,0,0,0-1-.46l-3-.78a7.81,7.81,0,0,1-2.89-1.23,2.73,2.73,0,0,1-.92-2.25,3.38,3.38,0,0,1,1.67-3.15,11.19,11.19,0,0,1,5.39-1c.65,0,1.24,0,1.8.06s1.12.1,1.71.19l-.28,2.31c-.67-.07-1.27-.11-1.79-.14s-1,0-1.51,0a10,10,0,0,0-3.23.38,1.31,1.31,0,0,0-1,1.25.91.91,0,0,0,.41.83,4.72,4.72,0,0,0,1.26.47l2.46.6a7.43,7.43,0,0,1,3.06,1.34,3,3,0,0,1,1,2.44,3.36,3.36,0,0,1-1.57,3.11A9.82,9.82,0,0,1,205,412.76Z"/><path class="cls-9" d="M219.08,412.76a4.7,4.7,0,0,1-3.22-1,3.56,3.56,0,0,1-1.14-2.83,3.75,3.75,0,0,1,1.58-3.23,7.49,7.49,0,0,1,4.43-1.12,14.76,14.76,0,0,1,2.12.14,7.86,7.86,0,0,1,1.66.43L224,407a8.6,8.6,0,0,0-1.64-.22c-.53,0-1.08,0-1.64,0q-3.45,0-3.45,2.1a1.65,1.65,0,0,0,.59,1.35,2.64,2.64,0,0,0,1.69.48,4.6,4.6,0,0,0,2.07-.43,3,3,0,0,0,1.24-1.09,2.52,2.52,0,0,0,.42-1.36V406.3l.77,3.41h-1l.43-.4a3.25,3.25,0,0,1-.54,1.92,3.15,3.15,0,0,1-1.49,1.15A6.05,6.05,0,0,1,219.08,412.76Zm4.68-.12-.17-3.93-.35-1.1v-3.43a2.15,2.15,0,0,0-.94-1.95,5.29,5.29,0,0,0-2.77-.67l-3.18-.09.25-2.35,2.68,0a7.5,7.5,0,0,1,4.89,1.42,5,5,0,0,1,1.59,4v5.53l2.26.28v2.12Z"/><path class="cls-9" d="M235,412.76a4.73,4.73,0,0,1-3.95-1.71,8,8,0,0,1-1.34-5.05,8.57,8.57,0,0,1,1.34-5.23A4.67,4.67,0,0,1,235,399a4.25,4.25,0,0,1,2.52.7,2.76,2.76,0,0,1,1.12,2h1l-.9,3.78a5.09,5.09,0,0,0-.81-3.12,2.79,2.79,0,0,0-2.37-1.06,2.76,2.76,0,0,0-2.43,1.2,6.29,6.29,0,0,0-.83,3.55,5.72,5.72,0,0,0,.83,3.37,3.17,3.17,0,0,0,4.8.08,5.09,5.09,0,0,0,.81-3.12l.9,3.78h-1.15a2.64,2.64,0,0,1-1.06,1.95A4,4,0,0,1,235,412.76Zm-4.22,5.74-.12-2.43,4.25-.13a3.85,3.85,0,0,0,2.93-1.11,4.63,4.63,0,0,0,.93-3.09v-9.69l.25-2.81h2.4v12.1q0,3.54-1.61,5.23c-1.08,1.13-2.79,1.73-5.15,1.8Z"/><path class="cls-9" d="M252.23,412.76A7.23,7.23,0,0,1,247,411a6.81,6.81,0,0,1-1.85-5.13,7.41,7.41,0,0,1,1.57-5.05,5.5,5.5,0,0,1,4.42-1.81,5.34,5.34,0,0,1,4.16,1.63,6.84,6.84,0,0,1,1.47,4.73c0,.61,0,1.18-.07,1.71h-9.32v-2h7a4,4,0,0,0-.85-2.75,3,3,0,0,0-2.36-1,3.21,3.21,0,0,0-2.62,1.15,5.08,5.08,0,0,0-.93,3.26,4.55,4.55,0,0,0,1.28,3.5,5.09,5.09,0,0,0,3.65,1.21,14.7,14.7,0,0,0,1.63-.1c.53-.06,1.07-.15,1.62-.26l.33,2.33a17.34,17.34,0,0,1-2.15.29C253.31,412.74,252.73,412.76,252.23,412.76Z"/><path class="cls-9" d="M266.1,412.76a1.84,1.84,0,1,1,1.31-.54A1.79,1.79,0,0,1,266.1,412.76Z"/><path class="cls-9" d="M281.12,412.76a1.84,1.84,0,0,1-1.85-1.85,1.77,1.77,0,0,1,.54-1.31,1.86,1.86,0,1,1,1.31,3.16Z"/><path class="cls-9" d="M296.14,412.76a1.84,1.84,0,0,1-1.85-1.85,1.77,1.77,0,0,1,.54-1.31,1.87,1.87,0,0,1,2.63,0,1.86,1.86,0,0,1,0,2.62A1.8,1.8,0,0,1,296.14,412.76Z"/><path class="cls-10" d="M924.52,224.21s23.89,74.27,34.75,72.1,13-8.69,13-8.69,4.34,33.25-32.58,28.57-134.64-3.7-143.33-5.28-32.58-21.12-32.58-21.12,13,6.52,17.38,0S830,218.33,830,218.33Z"/><path class="cls-8" d="M973.38,251.79c-1.77,14.16-28.12,24.91-37.82,28.41a118.66,118.66,0,0,0-.89-16.2c6.19-1.43,16-5.17,13.74-14.3-2.2-8.86-12.83-7.77-19.5-6.12-2.06-4.56-4.49-9.18-6.63-13,48.87-5.17,64.13-24.32,64.13-50.45,0-10.72-4.28-21.77-12.49-31.91l1.63-44.1L940.49,123c-19.1-9.17-43.81-15.17-73.52-15.6-23.29-.33-44.82,3.53-62.82,10.2-9.85-4.25-31.3-13.46-32.3-13.46a77.63,77.63,0,0,0-6.05,37c-8.89,9.2-13.93,19.6-13.93,30.35,0,25.69,28.84,44.4,70.38,53.68-2.36,4.07-5,8.89-7.55,14.2-3.38.54-7.75,1.51-9.62,3.13-2.91,2.52-19.26,15-.18,23.76-2.78,12.2-2.67,24.16,3.55,33.06-6.65.15-14.15,1.13-15.32,4.64-2.17,6.52,0,30.17,26.06,23.77a30.41,30.41,0,0,0,12.56-6.09c9.37,4.75,18.31,4,30.88,4,10.77,0,24.22.53,36.36-.79.67,3.24,3.89,5.89,12.24,7,18.72,2.47,29.58-1.87,29.58-8.38,0-4.87-1.22-13.35-9.95-16.44a63.22,63.22,0,0,0,4.35-19.34c12.58-2.1,58.56-11.24,63.82-33.69C1005.13,228,975.55,234.42,973.38,251.79Z"/><path class="cls-10" d="M948.41,124.74s-23.95-6.51-45.64,0-49.92,13-65.12,10.86-32.57-19.54-32.57-19.54,56.46-73.84,58.63-78.18S891.94,20.5,896.29,20.5s18.26,10.86,23.25,0A54.46,54.46,0,0,1,932,3.25s7.5,25.77,0,29.11S919.37,40.14,907.83,39l-11.54-1.13Z"/><ellipse class="cls-11" cx="875.66" cy="196.41" rx="8.69" ry="5.43"/><path class="cls-12" d="M927.81,218.33s-10.55,13.23-27.55,0-20-17.32-20-17.32,7.63-13.29,23.78-4.6S924.58,218.53,927.81,218.33Z"/><path class="cls-12" d="M823.78,218.33s10.56,13.23,27.56,0,20-17.32,20-17.32-7.64-13.29-23.79-4.6S827,218.53,823.78,218.33Z"/><path class="cls-12" d="M875.86,204.47S931,220.3,922.35,242c-6.52,13-39.09,13-32.58,30.4s21.72,8.69,21.72,8.69-8.69,15.2-17.37,15.2a21.07,21.07,0,0,1-13.87-5s.84,11.53,7.35,11.53c0,2.18-36.64-8.95-40-36,1.9-1.91-1.22-11.81-3.39-5.3s0,16.73,0,16.73-29.11-38-3.7-60C843.52,213.58,859.78,203.85,875.86,204.47Z"/><rect class="cls-13" x="925" y="162.25" width="17" height="34"/><rect class="cls-12" x="920" y="152.25" width="28" height="13"/><rect class="cls-13" x="805" y="162.25" width="17" height="34"/><rect class="cls-12" x="800" y="152.25" width="28" height="13"/><path class="cls-10" d="M753.88,651.42s25.17,49.25,32.67,47.74,9-6,9-6,3,23-22.52,19.75S680,710.35,674,709.26s-22.52-14.6-22.52-14.6,9,4.5,12,0,33.76-49.41,33.76-49.41Z"/><path class="cls-8" d="M782.49,668.39c-1.23,9.78-19.45,17.22-26.15,19.63a82.51,82.51,0,0,0-.62-11.19c4.28-1,11.07-3.58,9.5-9.89-1.52-6.13-8.87-5.37-13.48-4.23-1.43-3.16-3.11-6.34-4.58-9,33.78-3.57,44.33-16.81,44.33-34.87,0-7.41-3-15.05-8.63-22.07L784,566.29l-24.24,13c-13.21-6.35-30.29-10.49-50.83-10.79a121.09,121.09,0,0,0-43.44,7.05c-6.8-2.93-21.63-9.3-22.32-9.3A53.74,53.74,0,0,0,639,591.86c-6.15,6.35-9.63,13.55-9.63,21,0,17.77,19.94,30.7,48.66,37.12-1.63,2.81-3.45,6.15-5.22,9.81-2.34.38-5.36,1-6.65,2.17-2,1.74-13.31,10.35-.13,16.42-1.92,8.44-1.84,16.71,2.46,22.86-4.6.11-9.78.78-10.59,3.21-1.5,4.5,0,20.86,18,16.43a21,21,0,0,0,8.68-4.21c6.48,3.29,12.65,2.79,21.34,2.79,7.45,0,16.75.37,25.15-.54.46,2.24,2.68,4.07,8.46,4.84,12.94,1.71,20.44-1.29,20.44-5.8,0-3.36-.84-9.22-6.87-11.36a43.42,43.42,0,0,0,3-13.38c8.7-1.44,40.49-7.77,44.13-23.28C804.44,651.91,784,656.37,782.49,668.39Z"/><path class="cls-10" d="M765.22,580.55s-16.56-4.5-31.55,0-34.51,9-45,7.51-22.52-13.51-22.52-13.51,39-51,40.53-54,19.52-12,22.53-12,12.62,7.5,16.07,0a37.75,37.75,0,0,1,8.62-11.94s5.19,17.82,0,20.13-8.74,5.38-16.72,4.6l-8-.78Z"/><ellipse class="cls-11" cx="673.44" cy="628.03" rx="6.01" ry="3.75"/><path class="cls-12" d="M709.5,643.18s-7.3,9.15-19,0-13.83-12-13.83-12,5.27-9.19,16.44-3.18S707.27,643.32,709.5,643.18Z"/><path class="cls-12" d="M637.58,643.18s7.3,9.15,19,0,13.83-12,13.83-12S665.18,622,654,628,639.81,643.32,637.58,643.18Z"/><path class="cls-12" d="M673.59,633.6s38.14,10.94,32.13,25.95c-4.5,9-27,9-22.52,21s15,6,15,6-6,10.51-12,10.51a14.55,14.55,0,0,1-9.58-3.47s.58,8,5.08,8c0,1.51-25.33-6.19-27.68-24.86,1.31-1.32-.85-8.17-2.35-3.66s0,11.56,0,11.56-20.12-26.3-2.55-41.45C651.22,639.9,662.47,633.17,673.59,633.6Z"/><path class="cls-10" d="M753.18,662.48s-19.17,6.94-29.63,5.2-17.19-15.77-17.19-15.77,18.45,3,27.47,3a97,97,0,0,0,15.9-1.38Z"/><rect class="cls-13" x="728.3" y="610.63" width="11.75" height="23.51"/><rect class="cls-13" x="644.64" y="598.18" width="9.68" height="22.12"/><rect class="cls-12" x="724.84" y="603.71" width="19.36" height="8.99"/><rect class="cls-12" x="641.88" y="591.96" width="15.21" height="6.22"/><path class="cls-14" d="M768.76,601s2.44,3.46,0,15.9,7.32,22.9,12.77,13.83C785.68,623.76,784.3,620.31,768.76,601Z"/><path class="cls-5" d="M837.26,624.27s104.66,64.81,176.56,55,344-82.59,241.47-136.79-277.42-51.07-333.42-23.94S837.26,624.27,837.26,624.27Z"/><path class="cls-15" d="M849.7,624.27s104.67,64.81,176.57,55,344-82.59,241.47-136.79-277.42-51.07-333.42-23.94S849.7,624.27,849.7,624.27Z"/><rect class="cls-8" x="897.09" y="541.15" width="279.54" height="95.05" rx="33.49"/><path class="cls-9" d="M934.55,575.39l-3.71-1.06.6-1.63,3.53,1.57Zm-1.61,3-1.33-1.12,2.7-2.78.9.77Zm1.22-3.51-.27-3.85h1.73l-.27,3.85Zm2.41,3.51-2.26-3.13.9-.77,2.69,2.78Zm-1.6-3-.42-1.12,3.53-1.57.59,1.63Z"/><path class="cls-9" d="M940.37,573.27v-1.36h8v1.36Zm0,4.25v-1.36h8v1.36Zm1.07,2.89,1-11.39h1.42l-1,11.39Zm3.5,0,1-11.39h1.41l-1,11.39Z"/><path class="cls-9" d="M953.61,580.57a9.48,9.48,0,0,1-1.82-.16,7,7,0,0,1-1.57-.47l.21-1.61a11,11,0,0,0,1.7.57,7,7,0,0,0,1.6.19,2.88,2.88,0,0,0,1.67-.39,1.36,1.36,0,0,0,.55-1.19A1.56,1.56,0,0,0,954.9,576l-2-.9a4.87,4.87,0,0,1-1.78-1.28,2.74,2.74,0,0,1-.62-1.85,3,3,0,0,1,.9-2.31,3.64,3.64,0,0,1,2.54-.82,5.8,5.8,0,0,1,2,.34,5.32,5.32,0,0,1,1.69,1.1l-1.12,1.14a5.31,5.31,0,0,0-1.32-.84,3.28,3.28,0,0,0-1.27-.26,1.84,1.84,0,0,0-1.28.4,1.44,1.44,0,0,0-.46,1.17,1.32,1.32,0,0,0,.3.9,2.5,2.5,0,0,0,.87.62l1.67.79a5.84,5.84,0,0,1,1.93,1.34,2.82,2.82,0,0,1,.65,1.92,2.75,2.75,0,0,1-1,2.32A5,5,0,0,1,953.61,580.57Zm-.06,2.41V566.46h1.11V583Z"/><path class="cls-9" d="M962.51,580.57a3.44,3.44,0,0,1-2.36-.8,2.72,2.72,0,0,1-.89-2.12,2.91,2.91,0,0,1,.8-2.12,3.82,3.82,0,0,1,2.25-1l.88,1a3.4,3.4,0,0,0-1.71.77,1.73,1.73,0,0,0-.6,1.33,1.34,1.34,0,0,0,.5,1.1,2,2,0,0,0,1.33.42,2.8,2.8,0,0,0,2.45-1.25,6.24,6.24,0,0,0,.87-3.57h1.54a7.27,7.27,0,0,1-1.33,4.65A4.5,4.5,0,0,1,962.51,580.57Zm4-.16-4.13-4.54a9.15,9.15,0,0,1-1.5-2.06,3.81,3.81,0,0,1-.46-1.75,3.15,3.15,0,0,1,.85-2.37,3.35,3.35,0,0,1,2.42-.83l0,1.48a1.45,1.45,0,0,0-1.13.45,1.86,1.86,0,0,0-.41,1.28,2.45,2.45,0,0,0,.31,1.15,7.61,7.61,0,0,0,.85,1.18l5.27,6Zm-1.49-9a1,1,0,0,0-.34-.79,1.46,1.46,0,0,0-1-.28l0-1.48a3.43,3.43,0,0,1,2.25.67,2.31,2.31,0,0,1,.8,1.88Z"/><path class="cls-9" d="M973.24,580.57a1.16,1.16,0,0,1-.84-.35,1.18,1.18,0,1,1,.84.35Zm-.78-3.82-.05-7.81h1.66l-.08,7.81Z"/><path class="cls-9" d="M992.48,580.57a1.14,1.14,0,0,1-.83-.35,1.18,1.18,0,0,1,0-1.68,1.2,1.2,0,0,1,1.67,0,1.18,1.18,0,0,1,0,1.68A1.13,1.13,0,0,1,992.48,580.57Z"/><path class="cls-9" d="M1002.1,580.57a1.14,1.14,0,0,1-.83-.35,1.18,1.18,0,0,1,0-1.68,1.13,1.13,0,0,1,.83-.34,1.19,1.19,0,1,1,0,2.37Z"/><path class="cls-9" d="M1011.73,580.57a1.15,1.15,0,0,1-.84-.35,1.18,1.18,0,0,1,0-1.68,1.19,1.19,0,1,1,.84,2Z"/><path class="cls-9" d="M1027.5,570.55V569h6.93v1.53Zm0,9.86v-1.52h6.93v1.52Zm2.63,0V569h1.66v11.39Z"/><path class="cls-9" d="M1045.94,575.28v-1.49h7.86v1.49Zm2.68,5.13v-7.78q0-4.41,4-4.41a10.1,10.1,0,0,1,1.76.16l-.18,1.48-.89-.09c-.25,0-.5,0-.74,0-1.52,0-2.28.93-2.28,2.8v7.86Z"/><path class="cls-9" d="M1059.83,580.57a3.38,3.38,0,0,1-2.74-1.15,5.91,5.91,0,0,1,0-6.52,3.85,3.85,0,0,1,5.49,0,6,6,0,0,1,0,6.52A3.4,3.4,0,0,1,1059.83,580.57Zm0-1.52a1.63,1.63,0,0,0,1.45-.76,4.72,4.72,0,0,0,0-4.27,1.78,1.78,0,0,0-2.9,0,4.72,4.72,0,0,0,0,4.27A1.64,1.64,0,0,0,1059.83,579.05Z"/><path class="cls-9" d="M1065.28,580.41v-1.49H1071v1.49Zm.32-7v-1.49h2.84l.16,1.49Zm1.57,7v-8.5h1.38l.32,2.44v6.06Zm1.7-3.66-.49-2.66h.65c.1-1.56.88-2.34,2.35-2.34a2.27,2.27,0,0,1,1.9.75,4,4,0,0,1,.6,2.44h-1.69a2.51,2.51,0,0,0-.27-1.34,1,1,0,0,0-.9-.41,1.73,1.73,0,0,0-1.61.93A5.27,5.27,0,0,0,1068.87,576.75Z"/><path class="cls-9" d="M1078.42,580.57a3,3,0,0,1-2.53-1.1,5.18,5.18,0,0,1-.86-3.23,5.54,5.54,0,0,1,.86-3.35,3,3,0,0,1,2.53-1.14,2.65,2.65,0,0,1,1.61.45,1.75,1.75,0,0,1,.73,1.25h.65l-.57,2.42a3.33,3.33,0,0,0-.52-2,2,2,0,0,0-3.08.09,4.09,4.09,0,0,0-.52,2.28,3.7,3.7,0,0,0,.52,2.16,1.84,1.84,0,0,0,1.56.73,1.79,1.79,0,0,0,1.52-.68,3.31,3.31,0,0,0,.52-2l.57,2.42h-.73a1.73,1.73,0,0,1-.68,1.25A2.55,2.55,0,0,1,1078.42,580.57Zm-2.7,3.67-.08-1.55,2.73-.08a2.47,2.47,0,0,0,1.87-.72,3,3,0,0,0,.6-2v-6.2l.16-1.8h1.54v7.75a4.7,4.7,0,0,1-1,3.35,4.61,4.61,0,0,1-3.29,1.15Z"/><path class="cls-9" d="M1088.69,580.57a3.39,3.39,0,0,1-2.74-1.15,5.91,5.91,0,0,1,0-6.52,3.85,3.85,0,0,1,5.49,0,6,6,0,0,1,0,6.52A3.39,3.39,0,0,1,1088.69,580.57Zm0-1.52a1.63,1.63,0,0,0,1.45-.76,4.72,4.72,0,0,0,0-4.27,1.77,1.77,0,0,0-2.89,0,4.72,4.72,0,0,0,0,4.27A1.63,1.63,0,0,0,1088.69,579.05Z"/><path class="cls-9" d="M1094.07,573.4v-1.49h7.69v1.49Zm2.13,3v-7h1.7v7Zm3.66,4.17a4.07,4.07,0,0,1-2.8-.8,3.39,3.39,0,0,1-.86-2.57v-1.44h1.7v1.36a1.9,1.9,0,0,0,.49,1.47,2.39,2.39,0,0,0,1.63.46,8.38,8.38,0,0,0,.84,0l1-.11.19,1.49c-.37.06-.74.11-1.09.14S1100.26,580.57,1099.86,580.57Z"/><path class="cls-9" d="M1113.31,573.4v-1.49h7.7v1.49Zm2.13,3v-7h1.7v7Zm3.66,4.17a4.07,4.07,0,0,1-2.8-.8,3.39,3.39,0,0,1-.86-2.57v-1.44h1.7v1.36a1.94,1.94,0,0,0,.49,1.47,2.39,2.39,0,0,0,1.63.46c.26,0,.55,0,.85,0l1-.11.2,1.49c-.38.06-.74.11-1.1.14S1119.5,580.57,1119.1,580.57Z"/><path class="cls-9" d="M1123.71,580.41v-12h1.7v12Zm5.23,0v-5.53a1.77,1.77,0,0,0-.4-1.25,1.45,1.45,0,0,0-1.12-.44c-1.34,0-2,.82-2,2.44l-.49-2.18h.65a1.71,1.71,0,0,1,.63-1.28,3.16,3.16,0,0,1,3.7.4,3.27,3.27,0,0,1,.74,2.31v5.53Z"/><path class="cls-9" d="M1137.54,580.57a4.65,4.65,0,0,1-3.36-1.14,4.36,4.36,0,0,1-1.18-3.29,4.78,4.78,0,0,1,1-3.24,3.58,3.58,0,0,1,2.83-1.15,3.44,3.44,0,0,1,2.67,1,4.38,4.38,0,0,1,.94,3c0,.39,0,.76,0,1.09h-6v-1.3h4.47a2.59,2.59,0,0,0-.54-1.76,2,2,0,0,0-1.51-.61,2.05,2.05,0,0,0-1.68.74,3.22,3.22,0,0,0-.6,2.08,2.92,2.92,0,0,0,.82,2.25,3.32,3.32,0,0,0,2.34.77,8.94,8.94,0,0,0,1-.06c.34,0,.69-.1,1-.17l.21,1.5a13.12,13.12,0,0,1-1.38.18C1138.23,580.56,1137.86,580.57,1137.54,580.57Z"/><path class="cls-9" d="M930.59,600.11v-1.49h5.67v1.49Zm.32-7v-1.49h2.84l.16,1.49Zm1.57,7v-8.49h1.38l.32,2.43v6.06Zm1.7-3.65-.5-2.66h.66q.15-2.34,2.34-2.34a2.29,2.29,0,0,1,1.91.75,4,4,0,0,1,.59,2.44H937.5a2.41,2.41,0,0,0-.28-1.34,1,1,0,0,0-.89-.41,1.77,1.77,0,0,0-1.62.92A5.43,5.43,0,0,0,934.18,596.46Z"/><path class="cls-9" d="M945.12,600.27a4.65,4.65,0,0,1-3.36-1.14,4.33,4.33,0,0,1-1.18-3.28,4.78,4.78,0,0,1,1-3.24,3.54,3.54,0,0,1,2.83-1.15,3.4,3.4,0,0,1,2.67,1,4.4,4.4,0,0,1,.94,3c0,.39,0,.75,0,1.09h-6v-1.3h4.48a2.54,2.54,0,0,0-.55-1.76,1.89,1.89,0,0,0-1.5-.61,2,2,0,0,0-1.68.73,3.25,3.25,0,0,0-.6,2.09A2.91,2.91,0,0,0,943,598a3.27,3.27,0,0,0,2.34.77,8.94,8.94,0,0,0,1-.06c.34,0,.69-.09,1-.16l.21,1.49a9.35,9.35,0,0,1-1.38.18C945.81,600.26,945.44,600.27,945.12,600.27Z"/><path class="cls-9" d="M954.82,600.27a4.65,4.65,0,0,1-3.36-1.14,4.33,4.33,0,0,1-1.18-3.28,4.45,4.45,0,0,1,1.12-3.24,4.23,4.23,0,0,1,3.19-1.15,4.53,4.53,0,0,1,2.13.46,2.65,2.65,0,0,1,1.26,1.3l-1.3,1a2.5,2.5,0,0,0-2.15-1.23,2.42,2.42,0,0,0-1.87.72,3,3,0,0,0-.67,2.07,2.94,2.94,0,0,0,.79,2.22,3,3,0,0,0,2.23.76c.39,0,.79,0,1.19,0s.78-.09,1.15-.16l.19,1.49a9.89,9.89,0,0,1-1.36.2C955.72,600.26,955.26,600.27,954.82,600.27Z"/><path class="cls-9" d="M963.62,600.27a3.38,3.38,0,0,1-2.74-1.15,5.9,5.9,0,0,1,0-6.51,3.85,3.85,0,0,1,5.49,0,5.95,5.95,0,0,1,0,6.51A3.4,3.4,0,0,1,963.62,600.27Zm0-1.52a1.65,1.65,0,0,0,1.45-.75,4.72,4.72,0,0,0,0-4.27,1.78,1.78,0,0,0-2.9,0,4.72,4.72,0,0,0,0,4.27A1.65,1.65,0,0,0,963.62,598.75Z"/><path class="cls-9" d="M969.07,600.11v-1.49h5.68v1.49Zm.32-7v-1.49h2.84l.16,1.49Zm1.57,7v-8.49h1.38l.32,2.43v6.06Zm1.7-3.65-.49-2.66h.65c.1-1.56.88-2.34,2.35-2.34a2.27,2.27,0,0,1,1.9.75,3.92,3.92,0,0,1,.6,2.44H976a2.51,2.51,0,0,0-.27-1.34,1,1,0,0,0-.9-.41,1.74,1.74,0,0,0-1.61.92A5.31,5.31,0,0,0,972.66,596.46Z"/><path class="cls-9" d="M982.21,600.27a3,3,0,0,1-2.53-1.09,5.22,5.22,0,0,1-.86-3.24,5.54,5.54,0,0,1,.86-3.35,3,3,0,0,1,2.53-1.13,2.48,2.48,0,0,1,1.55.44,1.79,1.79,0,0,1,.71,1.25h.65l-.49,2.43a3.29,3.29,0,0,0-.52-2,1.8,1.8,0,0,0-1.52-.68,1.76,1.76,0,0,0-1.56.77,4,4,0,0,0-.53,2.27,3.66,3.66,0,0,0,.53,2.16,2,2,0,0,0,3.08,0,3.29,3.29,0,0,0,.52-2l.57,2.42h-.73a1.73,1.73,0,0,1-.68,1.26A2.64,2.64,0,0,1,982.21,600.27Zm2.59-.08-.17-1.66V588.09h1.7v12Z"/><path class="cls-9" d="M998.64,603.8V591.62h1.54l.16,1.79V603.8Zm4.11-3.53a2.61,2.61,0,0,1-1.57-.44,1.7,1.7,0,0,1-.68-1.26h-.74l.58-2.42a3.23,3.23,0,0,0,.52,2,2,2,0,0,0,3.07,0,3.66,3.66,0,0,0,.53-2.16,4,4,0,0,0-.53-2.27,1.74,1.74,0,0,0-1.55-.77,1.79,1.79,0,0,0-1.52.68,3.23,3.23,0,0,0-.52,2l-.58-2.43h.66a1.82,1.82,0,0,1,.73-1.25,2.64,2.64,0,0,1,1.6-.44,3,3,0,0,1,2.54,1.13,5.54,5.54,0,0,1,.86,3.35,5.22,5.22,0,0,1-.86,3.24A3,3,0,0,1,1002.75,600.27Z"/><path class="cls-9" d="M1007.7,589.58v-1.49h2.65v1.49Zm5.29,10.69a2.59,2.59,0,0,1-2.13-.8,4,4,0,0,1-.66-2.56v-8.82h1.7v8.74a3.76,3.76,0,0,0,.13,1.1,1,1,0,0,0,.5.62,2.45,2.45,0,0,0,1.1.2,6.34,6.34,0,0,0,1.7-.3l.2,1.49a8.91,8.91,0,0,1-1.25.25A8.76,8.76,0,0,1,1013,600.27Z"/><path class="cls-9" d="M1020.1,600.27a3,3,0,0,1-2.07-.64,2.29,2.29,0,0,1-.72-1.81,2.39,2.39,0,0,1,1-2.07,4.83,4.83,0,0,1,2.84-.72,9.21,9.21,0,0,1,1.36.09,5,5,0,0,1,1.07.28l-.36,1.15a6.59,6.59,0,0,0-1.05-.14l-1,0c-1.47,0-2.21.45-2.21,1.35a1.07,1.07,0,0,0,.38.87,1.69,1.69,0,0,0,1.08.3,2.87,2.87,0,0,0,1.32-.27,1.91,1.91,0,0,0,.8-.7,1.59,1.59,0,0,0,.27-.87v-.93l.49,2.18h-.67l.27-.26a2.1,2.1,0,0,1-.34,1.23,2,2,0,0,1-1,.74A4.06,4.06,0,0,1,1020.1,600.27Zm3-.08-.11-2.51-.22-.71v-2.2a1.38,1.38,0,0,0-.6-1.24,3.35,3.35,0,0,0-1.78-.43l-2-.06.16-1.5,1.71,0a4.84,4.84,0,0,1,3.14.91,3.19,3.19,0,0,1,1,2.56v3.54l1.44.18v1.36Z"/><path class="cls-9" d="M1030,600.11l-3.38-8.49h1.76l2.78,7.21h.25v1.28Zm-3.22,3.85-.08-1.52,1.33-.16a3.65,3.65,0,0,0,1.44-.46,2.91,2.91,0,0,0,1-1,7.93,7.93,0,0,0,.75-1.82l2.11-7.34h1.77l-2.46,7.74a10.57,10.57,0,0,1-1.07,2.45,4.12,4.12,0,0,1-1.42,1.4,4.91,4.91,0,0,1-2,.59Z"/><path class="cls-9" d="M1041.33,600.27a4.65,4.65,0,0,1-3.36-1.14,4.33,4.33,0,0,1-1.18-3.28,4.78,4.78,0,0,1,1-3.24,3.54,3.54,0,0,1,2.83-1.15,3.4,3.4,0,0,1,2.67,1,4.4,4.4,0,0,1,.94,3c0,.39,0,.75,0,1.09h-6v-1.3h4.47a2.54,2.54,0,0,0-.55-1.76,1.89,1.89,0,0,0-1.5-.61,2,2,0,0,0-1.68.73,3.25,3.25,0,0,0-.6,2.09,2.91,2.91,0,0,0,.82,2.24,3.27,3.27,0,0,0,2.34.77,8.94,8.94,0,0,0,1-.06c.34,0,.69-.09,1-.16l.21,1.49a9.35,9.35,0,0,1-1.38.18C1042,600.26,1041.65,600.27,1041.33,600.27Z"/><path class="cls-9" d="M1046,600.11v-1.49h5.68v1.49Zm.32-7v-1.49h2.84l.16,1.49Zm1.57,7v-8.49h1.38l.32,2.43v6.06Zm1.7-3.65-.49-2.66h.65q.15-2.34,2.34-2.34a2.28,2.28,0,0,1,1.91.75,3.92,3.92,0,0,1,.6,2.44H1053a2.51,2.51,0,0,0-.27-1.34,1,1,0,0,0-.9-.41,1.74,1.74,0,0,0-1.61.92A5.31,5.31,0,0,0,1049.63,596.46Z"/><path class="cls-9" d="M1059.83,600.27a1.15,1.15,0,0,1-.84-.34,1.18,1.18,0,0,1-.35-.84,1.15,1.15,0,0,1,.35-.84,1.16,1.16,0,0,1,.84-.35,1.2,1.2,0,0,1,1.19,1.19,1.18,1.18,0,0,1-.35.84A1.14,1.14,0,0,1,1059.83,600.27Z"/><path class="cls-9" d="M1069.45,600.27a1.16,1.16,0,0,1-1.18-1.18,1.14,1.14,0,0,1,.34-.84,1.18,1.18,0,0,1,.84-.35,1.2,1.2,0,0,1,1.19,1.19,1.18,1.18,0,0,1-.35.84A1.14,1.14,0,0,1,1069.45,600.27Z"/><path class="cls-9" d="M1079.07,600.27a1.16,1.16,0,0,1-1.18-1.18,1.14,1.14,0,0,1,.34-.84,1.18,1.18,0,0,1,.84-.35,1.13,1.13,0,0,1,.84.35,1.11,1.11,0,0,1,.35.84,1.14,1.14,0,0,1-.35.84A1.12,1.12,0,0,1,1079.07,600.27Z"/><path class="cls-10" d="M553.36,922.87s-25.17,49.25-32.68,47.75-9-6-9-6-3,23,22.52,19.75,93.09-2.56,99.1-3.65,22.52-14.6,22.52-14.6-9,4.51-12,0S610,916.7,610,916.7Z"/><path class="cls-8" d="M524.75,939.84c1.22,9.79,19.44,17.22,26.15,19.64a81,81,0,0,1,.61-11.2c-4.27-1-11.06-3.58-9.5-9.89,1.53-6.12,8.88-5.37,13.48-4.23,1.43-3.15,3.11-6.34,4.59-9-33.79-3.57-44.34-16.82-44.34-34.88,0-7.41,3-15,8.64-22.06l-1.13-30.49,24.24,13c13.21-6.34,30.29-10.49,50.83-10.79a120.84,120.84,0,0,1,43.43,7.06c6.81-2.94,21.64-9.31,22.33-9.31a53.61,53.61,0,0,1,4.18,25.57c6.15,6.36,9.63,13.55,9.63,21,0,17.76-19.94,30.69-48.65,37.11,1.63,2.81,3.45,6.15,5.21,9.82,2.34.37,5.36,1,6.66,2.16,2,1.74,13.31,10.35.12,16.43,1.92,8.43,1.85,16.7-2.45,22.85,4.6.11,9.77.78,10.58,3.21,1.51,4.51,0,20.86-18,16.44a21,21,0,0,1-8.68-4.22c-6.48,3.29-12.66,2.8-21.35,2.8-7.45,0-16.75.36-25.14-.55-.46,2.24-2.69,4.08-8.46,4.84-12.94,1.71-20.45-1.29-20.45-5.8,0-3.36.84-9.22,6.88-11.36a43.71,43.71,0,0,1-3-13.37c-8.7-1.45-40.49-7.77-44.12-23.29C502.8,923.36,523.25,927.83,524.75,939.84Z"/><path class="cls-10" d="M542,852s16.56-4.51,31.55,0,34.52,9,45,7.5S641.11,846,641.11,846s-39-51-40.54-54-19.52-12-22.52-12-12.63,7.51-16.08,0A37.63,37.63,0,0,0,553.35,768s-5.18,17.82,0,20.13,8.74,5.38,16.72,4.59l8-.78Z"/><ellipse class="cls-11" cx="633.79" cy="899.48" rx="6.01" ry="3.75"/><path class="cls-12" d="M597.74,914.63s7.29,9.15,19,0,13.84-12,13.84-12-5.28-9.19-16.44-3.18S600,914.77,597.74,914.63Z"/><path class="cls-12" d="M669.65,914.63s-7.29,9.15-19,0-13.84-12-13.84-12,5.28-9.19,16.44-3.18S667.42,914.77,669.65,914.63Z"/><path class="cls-12" d="M633.65,905.05S595.51,916,601.51,931c4.51,9,27,9,22.52,21s-15,6-15,6,6,10.51,12,10.51a14.56,14.56,0,0,0,9.59-3.47s-.58,8-5.09,8c0,1.5,25.33-6.2,27.68-24.87-1.3-1.31.85-8.16,2.35-3.66s0,11.57,0,11.57,20.12-26.31,2.56-41.46C656,911.35,644.77,904.62,633.65,905.05Z"/><path class="cls-10" d="M554.05,933.93s19.17,6.94,29.63,5.2,17.19-15.76,17.19-15.76-18.44,3-27.46,3a97.64,97.64,0,0,1-15.9-1.39Z"/><rect class="cls-13" x="567.19" y="882.08" width="11.75" height="23.51" transform="translate(1146.12 1787.67) rotate(-180)"/><rect class="cls-13" x="652.91" y="869.64" width="9.68" height="22.12" transform="translate(1315.5 1761.39) rotate(-180)"/><rect class="cls-12" x="563.04" y="875.17" width="19.36" height="8.99" transform="translate(1145.43 1759.32) rotate(-180)"/><rect class="cls-12" x="650.15" y="863.41" width="15.21" height="6.22" transform="translate(1315.5 1733.05) rotate(-180)"/><path class="cls-14" d="M538.48,872.4s-2.44,3.46,0,15.9-7.33,22.91-12.78,13.83C521.56,895.22,522.94,891.76,538.48,872.4Z"/><polygon class="cls-16" points="555.61 1031.19 469.88 988.32 499.94 931.4 584.02 971.55 555.61 1031.19"/><rect class="cls-17" x="463.09" y="948.23" width="93.18" height="66.5" transform="translate(472.56 -123.83) rotate(25.52)"/><polygon class="cls-18" points="566.05 971.55 584.02 971.55 555.29 1031.19 537.31 1031.19 566.05 971.55"/><polygon class="cls-18" points="481.96 931.4 499.94 931.4 584.02 971.55 566.05 971.55 481.96 931.4"/><polyline class="cls-19" points="543.51 1031.53 573.24 971.39 490.14 931.4"/><rect class="cls-20" x="530.73" y="947.35" width="9.95" height="4.88" transform="translate(461.45 -138.13) rotate(25.52)"/><polygon class="cls-21" points="541.24 949.82 543.16 949.82 541.05 954.1 539.13 954.1 541.24 949.82"/><polygon class="cls-21" points="532.26 945.51 534.18 945.51 543.16 949.8 541.24 949.8 532.26 945.51"/><rect class="cls-20" x="526.58" y="948.73" width="9.95" height="4.88" transform="translate(461.64 -136.21) rotate(25.52)"/><polygon class="cls-21" points="537.09 951.2 539.01 951.2 536.9 955.48 534.99 955.48 537.09 951.2"/><polygon class="cls-21" points="528.12 946.89 530.03 946.89 539.01 951.18 537.09 951.18 528.12 946.89"/><path class="cls-21" d="M537.09,951.18l-9-4.28s1.92-2,6.06-1.39c0-.1,9,4.29,9,4.29Z"/><polygon class="cls-21" points="535.64 954.17 541.78 952.62 543.16 949.8 537.09 951.18 535.64 954.17"/><path class="cls-22" d="M553.27,933.65l-17.16-8.4a10.2,10.2,0,0,0-13.06,3.66l-7.63,11.88,6.33,3,4.36-6.06c2.29-3.17,6-4.43,8.93-3L545.92,940c2.46,1.19,3.68,4.2,3,7.41l-1.8,8.51,6.34,3L558,944.77A9.24,9.24,0,0,0,553.27,933.65Z"/><path class="cls-17" d="M543.24,955.48l12.18,6s2.1-6.18-2-7.29-7.41-2.9-8.16-2.7S543.24,955.48,543.24,955.48Z"/><path class="cls-17" d="M525.48,947.15,510.72,940s2.74-6.13,7-3.13,8.46,4.87,8.94,5.7S525.48,947.15,525.48,947.15Z"/><path class="cls-23" d="M501.41,932.25c0,7.78-5.45,6.15-12.47,6.15s-8.61-.71-8.61-8.49,1.36-11.75,8.38-11.75S501.41,924.47,501.41,932.25Z"/><rect class="cls-23" x="492.96" y="909.29" width="7.15" height="20.82" rx="2.52"/><rect class="cls-23" x="480.49" y="908.82" width="7.15" height="20.82" rx="2.52"/><ellipse class="cls-23" cx="478.69" cy="934.23" rx="2.74" ry="2.14"/><ellipse class="cls-23" cx="502.61" cy="934.67" rx="3.23" ry="2.58"/><ellipse class="cls-23" cx="487.48" cy="939.06" rx="3.39" ry="2.69"/><ellipse class="cls-23" cx="496.54" cy="939.58" rx="3.52" ry="2.43"/><ellipse class="cls-8" cx="491.06" cy="930.19" rx="6.97" ry="6.18"/><path class="cls-23" d="M437.08,961.65c-.21,4.51-3.32,3.42-7.39,3.24s-5-.64-4.76-5.15,1.09-6.78,5.16-6.59S437.29,957.14,437.08,961.65Z"/><rect class="cls-23" x="432.51" y="948.21" width="4.15" height="12.08" rx="1.46" transform="translate(585.76 -83.35) rotate(32.77)"/><rect class="cls-23" x="427.7" y="947.21" width="4.15" height="12.08" rx="1.46" transform="translate(452.6 -92.16) rotate(25.52)"/><ellipse class="cls-23" cx="424.11" cy="957.14" rx="1.77" ry="2.26" transform="translate(-551.44 1336.99) rotate(-87.38)"/><ellipse class="cls-23" cx="426.48" cy="954.27" rx="1.5" ry="1.88" transform="matrix(0.82, -0.58, 0.58, 0.82, -473.47, 422.66)"/><ellipse class="cls-23" cx="427.35" cy="965.2" rx="2.46" ry="4.27" transform="translate(-60.29 29.01) rotate(-3.63)"/><ellipse class="cls-23" cx="435.11" cy="965.81" rx="2" ry="3.2" transform="matrix(0.99, -0.12, 0.12, 0.99, -109.91, 57.48)"/><path class="cls-23" d="M372.19,962.11c-.21,4.51-3.33,3.42-7.4,3.23s-5-.64-4.76-5.15,1.1-6.77,5.17-6.59S372.39,957.6,372.19,962.11Z"/><rect class="cls-23" x="365.21" y="947.46" width="4.15" height="12.08" rx="1.46" transform="translate(44.03 -15.81) rotate(2.62)"/><rect class="cls-23" x="360.4" y="947.66" width="4.15" height="12.08" rx="1.46" transform="matrix(1, 0.05, -0.05, 1, 44.03, -15.59)"/><ellipse class="cls-23" cx="361.22" cy="962.81" rx="1.77" ry="2.26" transform="translate(-617.12 1279.57) rotate(-87.38)"/><ellipse class="cls-23" cx="370.7" cy="959.17" rx="6.41" ry="2.37" transform="translate(-647.72 1101.44) rotate(-76.82)"/><ellipse class="cls-23" cx="364.06" cy="966.45" rx="4.27" ry="2.46" transform="translate(-654.94 798.51) rotate(-60)"/><ellipse class="cls-23" cx="369.82" cy="966.27" rx="2" ry="3.2" transform="translate(-153.32 73.65) rotate(-9.43)"/><ellipse class="cls-8" cx="368.31" cy="959.45" rx="2.19" ry="3.58" transform="matrix(0.94, -0.34, 0.34, 0.94, -308.37, 185.95)"/><ellipse class="cls-8" cx="399.02" cy="951.34" rx="27.31" ry="7.95"/><ellipse class="cls-24" cx="399.02" cy="951.34" rx="8.31" ry="2.42"/><path class="cls-5" d="M481.88,848.43s-104.67,64.81-176.57,55-344-82.59-241.47-136.78,277.42-51.07,333.42-24S481.88,848.43,481.88,848.43Z"/><path class="cls-15" d="M469.43,848.43s-104.66,64.81-176.56,55-344-82.59-241.47-136.78,277.42-51.07,333.42-24S469.43,848.43,469.43,848.43Z"/><rect class="cls-8" x="142.51" y="770.16" width="279.54" height="95.05" rx="33.49"/><path class="cls-9" d="M180.87,823.4a1.18,1.18,0,1,1,.84-.35A1.15,1.15,0,0,1,180.87,823.4Z"/><path class="cls-9" d="M190.49,823.4a1.18,1.18,0,1,1,.84-.35A1.15,1.15,0,0,1,190.49,823.4Z"/><path class="cls-9" d="M200.11,823.4a1.2,1.2,0,1,1,.84-.35A1.15,1.15,0,0,1,200.11,823.4Z"/><path class="cls-9" d="M218.7,823.4a3,3,0,0,1-2.53-1.1,5.18,5.18,0,0,1-.86-3.23,5.52,5.52,0,0,1,.86-3.35,3,3,0,0,1,2.53-1.14,2.48,2.48,0,0,1,1.55.45,1.73,1.73,0,0,1,.7,1.25h.66l-.5,2.42a3.32,3.32,0,0,0-.51-2,1.8,1.8,0,0,0-1.52-.68,1.78,1.78,0,0,0-1.56.77,4.06,4.06,0,0,0-.53,2.28,3.7,3.7,0,0,0,.53,2.16,1.83,1.83,0,0,0,1.56.73,1.79,1.79,0,0,0,1.52-.69,3.28,3.28,0,0,0,.51-2l.58,2.42H221a1.68,1.68,0,0,1-.67,1.25A2.57,2.57,0,0,1,218.7,823.4Zm2.59-.08-.18-1.67V811.21h1.71v12Z"/><path class="cls-9" d="M229,823.4a3.4,3.4,0,0,1-2.74-1.16,5.9,5.9,0,0,1,0-6.51,3.85,3.85,0,0,1,5.49,0,5.95,5.95,0,0,1,0,6.51A3.41,3.41,0,0,1,229,823.4Zm0-1.52a1.66,1.66,0,0,0,1.45-.76,4.72,4.72,0,0,0,0-4.27,1.65,1.65,0,0,0-1.45-.75,1.63,1.63,0,0,0-1.44.75,4.72,4.72,0,0,0,0,4.27A1.64,1.64,0,0,0,229,821.88Z"/><path class="cls-9" d="M235.13,823.24v-8.5h1.54l.16,1.8v6.7Zm5.23,0v-5.53a1.68,1.68,0,0,0-.4-1.19,1.49,1.49,0,0,0-1.13-.42c-1.33,0-2,.79-2,2.36l-.5-2.18H237a1.71,1.71,0,0,1,.63-1.28,2.6,2.6,0,0,1,1.61-.42,2.65,2.65,0,0,1,2.09.82,3.32,3.32,0,0,1,.74,2.31v5.53Z"/><path class="cls-9" d="M248,817.87l-1.21-1.06.48-.52a3.69,3.69,0,0,0,.7-1,2.35,2.35,0,0,0,.23-1,.83.83,0,0,0-.29-.7,1.38,1.38,0,0,0-.86-.23h-.36v-1.49h.6a2.66,2.66,0,0,1,1.91.62,2.37,2.37,0,0,1,.65,1.8,3.85,3.85,0,0,1-.35,1.53,5.69,5.69,0,0,1-1.06,1.58Z"/><path class="cls-9" d="M253.59,816.23v-1.49h7.69v1.49Zm2.13,3v-7.06h1.7v7.06Zm3.66,4.17a4.07,4.07,0,0,1-2.8-.8,3.39,3.39,0,0,1-.86-2.57v-1.44h1.7V820a1.93,1.93,0,0,0,.49,1.47,2.39,2.39,0,0,0,1.63.46c.26,0,.55,0,.85,0l1-.11.19,1.49c-.37.06-.74.11-1.09.14S259.78,823.4,259.38,823.4Z"/><path class="cls-9" d="M276.43,823.4a3,3,0,0,1-2.53-1.1,5.12,5.12,0,0,1-.86-3.23,5.45,5.45,0,0,1,.86-3.35,3,3,0,0,1,2.53-1.14A2.52,2.52,0,0,1,278,815a1.76,1.76,0,0,1,.7,1.25h.66l-.5,2.42a3.25,3.25,0,0,0-.52-2,2,2,0,0,0-3.07.09,4.06,4.06,0,0,0-.53,2.28,3.7,3.7,0,0,0,.53,2.16,1.81,1.81,0,0,0,1.56.73,1.77,1.77,0,0,0,1.51-.69,3.21,3.21,0,0,0,.52-2l.58,2.42h-.74A1.69,1.69,0,0,1,278,823,2.52,2.52,0,0,1,276.43,823.4Zm2.59-.08-.18-1.67V811.21h1.7v12Z"/><path class="cls-9" d="M282.53,823.24v-1.49h5.68v1.49Zm.32-7v-1.49h2.84l.16,1.49Zm1.57,7v-8.5h1.38l.32,2.44v6.06Zm1.7-3.66-.5-2.66h.66q.15-2.34,2.34-2.34a2.28,2.28,0,0,1,1.91.75,4,4,0,0,1,.59,2.44h-1.68a2.41,2.41,0,0,0-.28-1.34,1,1,0,0,0-.89-.41,1.76,1.76,0,0,0-1.62.93A5.39,5.39,0,0,0,286.12,819.58Z"/><path class="cls-9" d="M296.32,823.4a3.39,3.39,0,0,1-2.74-1.16,5.9,5.9,0,0,1,0-6.51,3.85,3.85,0,0,1,5.49,0,5.95,5.95,0,0,1,0,6.51A3.41,3.41,0,0,1,296.32,823.4Zm0-1.52a1.66,1.66,0,0,0,1.45-.76,4.72,4.72,0,0,0,0-4.27,1.78,1.78,0,0,0-2.9,0,4.72,4.72,0,0,0,0,4.27A1.66,1.66,0,0,0,296.32,821.88Z"/><path class="cls-9" d="M302.48,826.93V814.74H304l.16,1.8v10.39Zm4.11-3.53A2.52,2.52,0,0,1,305,823a1.69,1.69,0,0,1-.68-1.25h-.74l.58-2.42a3.28,3.28,0,0,0,.51,2,2,2,0,0,0,3.08,0,3.7,3.7,0,0,0,.53-2.16,4.06,4.06,0,0,0-.53-2.28,1.77,1.77,0,0,0-1.56-.77,1.82,1.82,0,0,0-1.52.68,3.32,3.32,0,0,0-.51,2l-.58-2.42h.66A1.75,1.75,0,0,1,305,815a2.67,2.67,0,0,1,1.61-.45,3,3,0,0,1,2.53,1.14,5.45,5.45,0,0,1,.86,3.35,5.12,5.12,0,0,1-.86,3.23A3,3,0,0,1,306.59,823.4Z"/><path class="cls-9" d="M321.66,823.24v-1.49h3.4v1.49Zm.48-7v-1.49h4.45v1.49Zm3.55-2.84a1.11,1.11,0,0,1-.84-.35,1.14,1.14,0,0,1-.35-.83,1.15,1.15,0,0,1,.35-.85,1.21,1.21,0,0,1,1.68,0,1.15,1.15,0,0,1,.35.85,1.14,1.14,0,0,1-.35.83A1.11,1.11,0,0,1,325.69,813.39Zm-.79,9.85v-8h1.69v8Zm1.53,0v-1.49h2.78v1.49Z"/><path class="cls-9" d="M330.56,816.23v-1.49h7.69v1.49Zm2.13,3v-7.06h1.7v7.06Zm3.65,4.17a4,4,0,0,1-2.79-.8,3.39,3.39,0,0,1-.86-2.57v-1.44h1.7V820a1.93,1.93,0,0,0,.49,1.47,2.37,2.37,0,0,0,1.62.46c.27,0,.55,0,.85,0l1-.11.19,1.49c-.37.06-.74.11-1.09.14S336.74,823.4,336.34,823.4Z"/><path class="cls-9" d="M354.05,823.4a1.18,1.18,0,1,1,.84-.35A1.15,1.15,0,0,1,354.05,823.4Z"/><path class="cls-9" d="M363.67,823.4a1.18,1.18,0,1,1,.84-.35A1.15,1.15,0,0,1,363.67,823.4Z"/><path class="cls-9" d="M373.29,823.4a1.2,1.2,0,1,1,.84-.35A1.15,1.15,0,0,1,373.29,823.4Z"/><polygon class="cls-18" points="56.05 1329.76 63.73 1095.26 258 1041.24 302.27 1296.23 56.05 1329.76"/><polygon class="cls-25" points="310 1043.24 247 1041.24 252 1269.24 302.61 1284.14 310 1043.24"/><polygon class="cls-18" points="20.94 1313.34 0 1057.24 247 1041.24 206.28 1286.74 20.94 1313.34"/><polygon class="cls-25" points="536 1337.24 302.61 1284.14 56 1321.24 282 1407.24 536 1337.24"/><polygon class="cls-25" points="252 1269.24 20.94 1313.34 56 1321.24 302.61 1284.14 252 1269.24"/><polygon class="cls-18" points="536 1399.24 282 1462.24 282 1384.24 536 1337.24 536 1399.24"/><polygon class="cls-17" points="56 1399.24 282 1462.24 282 1384.24 56 1321.24 56 1399.24"/><ellipse class="cls-8" cx="270.12" cy="1332.25" rx="108.12" ry="34"/><ellipse class="cls-24" cx="270.67" cy="1332.25" rx="34.98" ry="11"/><path class="cls-17" d="M305.95,1285.89H407.81a0,0,0,0,1,0,0v7.67a0,0,0,0,1,0,0H298.27a0,0,0,0,1,0,0v0A7.67,7.67,0,0,1,305.95,1285.89Z" transform="translate(303.32 -46.52) rotate(13.18)"/><path class="cls-17" d="M407.56,1306.75,373,1332.08l-6.65-3.84,40.77-29.86h0A5,5,0,0,1,407.56,1306.75Z"/><path class="cls-17" d="M316,1287.62c0,3.11-7.16,5.63-16,5.63s-16-2.52-16-5.63,7.16-9.37,16-9.37S316,1284.51,316,1287.62Z"/><polygon class="cls-26" points="380.89 1328.36 360.59 1341.82 356.62 1326.31 378.41 1318.68 380.89 1328.36"/><polygon class="cls-17" points="56 1321.24 20.94 1313.34 0 1057.24 64 1077.24 56 1321.24"/><polygon class="cls-17" points="0 1057.24 63.73 1077.26 309.95 1043.74 247 1041.24 0 1057.24"/><ellipse class="cls-17" cx="428.5" cy="1329.25" rx="18.5" ry="8"/><ellipse class="cls-17" cx="462.5" cy="1337.25" rx="11.56" ry="5"/><path class="cls-23" d="M148.51,1055.58c0,14.9-10.44,11.78-23.86,11.78s-16.48-1.36-16.48-16.26,2.6-22.49,16-22.49S148.51,1040.69,148.51,1055.58Z"/><rect class="cls-23" x="132.33" y="1011.64" width="13.68" height="39.84" rx="5.17"/><rect class="cls-23" x="108.47" y="1010.74" width="13.68" height="39.84" rx="5.17"/><ellipse class="cls-23" cx="105.02" cy="1059.37" rx="5.24" ry="4.09"/><ellipse class="cls-23" cx="150.81" cy="1060.22" rx="6.19" ry="4.94"/><ellipse class="cls-23" cx="121.85" cy="1068.61" rx="6.49" ry="5.14"/><ellipse class="cls-23" cx="139.17" cy="1069.61" rx="6.74" ry="4.64"/><ellipse class="cls-8" cx="128.69" cy="1051.63" rx="13.33" ry="11.83"/><path class="cls-23" d="M422.82,1324.89c-.61,13.52-10,10.26-22.15,9.7s-14.9-1.92-14.28-15.44,3.3-20.31,15.49-19.75S423.44,1311.37,422.82,1324.89Z"/><rect class="cls-23" x="409.13" y="1284.6" width="12.43" height="36.2" rx="5.17" transform="translate(771.33 -17.46) rotate(32.77)"/><rect class="cls-23" x="394.72" y="1281.59" width="12.43" height="36.2" rx="5.17" transform="translate(599.04 -45.93) rotate(25.52)"/><ellipse class="cls-23" cx="383.93" cy="1311.36" rx="5.3" ry="6.78" transform="translate(-943.62 1634.86) rotate(-87.38)"/><ellipse class="cls-23" cx="391.05" cy="1302.75" rx="4.49" ry="5.63" transform="translate(-681.61 466.41) rotate(-35.35)"/><ellipse class="cls-23" cx="393.66" cy="1335.52" rx="7.37" ry="12.79" transform="translate(-83.82 27.62) rotate(-3.63)"/><ellipse class="cls-23" cx="416.92" cy="1337.35" rx="5.98" ry="9.59" transform="translate(-153.47 57.9) rotate(-6.71)"/><path class="cls-23" d="M219.93,1456.15c-.72,15.66-11.54,11.88-25.66,11.23s-17.25-2.22-16.53-17.88,3.81-23.52,17.93-22.87S220.65,1440.5,219.93,1456.15Z"/><rect class="cls-23" x="195.72" y="1405.31" width="14.4" height="41.93" rx="5.17" transform="translate(65.5 -7.79) rotate(2.62)"/><rect class="cls-23" x="179.03" y="1406" width="14.4" height="41.93" rx="5.17" transform="translate(65.51 -7.03) rotate(2.62)"/><ellipse class="cls-23" cx="181.85" cy="1458.58" rx="6.13" ry="7.85" transform="matrix(0.05, -1, 1, 0.05, -1283.52, 1573.47)"/><ellipse class="cls-23" cx="214.76" cy="1445.94" rx="22.25" ry="8.21" transform="translate(-1242.06 1325.41) rotate(-76.82)"/><ellipse class="cls-23" cx="191.72" cy="1471.24" rx="14.81" ry="8.53" transform="translate(-1178.27 901.65) rotate(-60)"/><ellipse class="cls-23" cx="211.7" cy="1470.58" rx="6.93" ry="11.1" transform="translate(-238.08 54.56) rotate(-9.43)"/><ellipse class="cls-8" cx="206.47" cy="1446.92" rx="7.62" ry="12.43" transform="translate(-486.46 160.04) rotate(-20.18)"/><path class="cls-22" d="M405.79,1434.13l42.55-8.08a23.12,23.12,0,0,0,18.75-24.37l-2.31-31.94-15.61,3.12.32,16.91c.17,8.87-4.88,16.21-12.1,17.61l-26.9,5.23c-6.08,1.18-12.39-2.63-15.51-9.36l-8.3-17.9L371,1388.48l11,31.92A21,21,0,0,0,405.79,1434.13Z"/><path class="cls-17" d="M394.34,1380.89l-30.21,5.7s4.56,14.07,13.45,10.55,17.41-4.8,18.48-6.19S394.34,1380.89,394.34,1380.89Z"/><path class="cls-17" d="M437.88,1371.9l36.55-7s3.36,14.85-8.49,15.22-22,2.65-24,1.8S437.88,1371.9,437.88,1371.9Z"/><rect class="cls-8" x="404" y="1374.25" width="26" height="13" transform="translate(-269.51 112.26) rotate(-11.62)"/><polygon class="cls-20" points="169.94 1052.93 191.97 1048.89 191.07 1039.87 169.03 1043.9 169.94 1052.93"/><polygon class="cls-21" points="168.97 1044.07 164.98 1043.24 166 1052.03 169.99 1052.86 168.97 1044.07"/><polygon class="cls-21" points="191.02 1039.99 187.03 1039.17 165 1043.21 168.99 1044.03 191.02 1039.99"/><polygon class="cls-20" points="177.47 1057.25 199.51 1053.22 198.6 1044.19 176.57 1048.23 177.47 1057.25"/><polygon class="cls-21" points="176.51 1048.4 172.52 1047.57 173.54 1056.36 177.53 1057.19 176.51 1048.4"/><polygon class="cls-21" points="198.56 1044.32 194.57 1043.5 172.53 1047.54 176.53 1048.36 198.56 1044.32"/><path class="cls-21" d="M176.52,1048.36l22-4s-2.42-4.55-11.53-5.15c.13-.19-22,4-22,4Z"/><polygon class="cls-21" points="177.2 1054.49 165.65 1049 165 1043.21 176.53 1048.36 177.2 1054.49"/><path class="cls-4" d="M1124.87,740a4.24,4.24,0,0,1,8.27,1c6.46,117.34,31.33,635.23-31.3,652.75-70.65,19.77-387.92-9.23-398.78-17.23C692.39,1368.7,997.7,1138.22,1124.87,740Z"/></g></g></g></svg>