<svg xmlns="http://www.w3.org/2000/svg" viewBox="0 0 111.01 154.37"><defs><style>.cls-1{fill:#fff;}</style></defs><g id="Layer_2" data-name="Layer 2"><g id="Layer_1-2" data-name="Layer 1"><path class="cls-1" d="M111,154.37,90.45,138.63l-34.33,11.5-33-8.47L0,149.32V89.08l28.76-13L64,85.93l27.14-8.5L111,84.94Zm-88.11-19,33,8.47,35.67-11.95L105,142.22V89.09L90.92,83.77,64.06,92.19,29.25,82.48,6,93V141Z"/><path class="cls-1" d="M67.83,125.33A23.94,23.94,0,0,1,61,124.22l1.72-5.75a17.8,17.8,0,0,0,5.15.86c3.59,0,6.69-1.52,10-4.91l4.27,4.22C77.69,123.14,73,125.33,67.83,125.33Zm-9.93-2.17a126.74,126.74,0,0,1-11.7-5.57c-2.05-1-4.21-2.17-6.51-3.29l2.65-5.39c2.33,1.15,4.52,2.28,6.6,3.35,4.2,2.15,7.82,4,11.14,5.31Zm47.85-5.89a19.4,19.4,0,0,0-4.24-3.39l3.06-5.16a25.06,25.06,0,0,1,5.7,4.6Zm-21.57-.74L80,112.22c4.45-4.3,9.28-6.48,14.36-6.48a18.84,18.84,0,0,1,7.1,1.44l-2.25,5.56C94.05,110.64,89,111.9,84.18,116.53ZM0,113.71s0-.2,0-.55C0,107,3.76,99.81,14.36,99.81c.83,0,1.69,0,2.57.13l-.58,6c-.69-.06-1.36-.1-2-.1-7.27,0-8.36,4.6-8.36,7.35v.16Zm37-.7c-3.4-1.61-6.58-3-9.71-4.2A50.44,50.44,0,0,0,19,106.32l1.15-5.89a56,56,0,0,1,9.3,2.79c3.27,1.26,6.58,2.69,10.12,4.37Z"/><ellipse class="cls-1" cx="60.08" cy="44.15" rx="25.29" ry="3.56"/><path class="cls-1" d="M92.85,51.08h0c.56,0,1.05,0,1.77,1.88.15.39.5,1.3-.77,3.15-2.1,3-6.74,5.91-11.44,7.4l2.15-8.84c2.53-1.75,6-3.59,8.29-3.59m0-7c-6.77,0-14.5,6.51-14.5,6.51l-5,20.73a17.45,17.45,0,0,0,3,.24c11.88,0,29-10.37,24.91-21.11-1.83-4.77-5-6.37-8.31-6.37Z"/><path class="cls-1" d="M34.79,44.15H85.36a29.35,29.35,0,0,1,1.35,10.41C85.26,88.18,35.42,87.43,34,53.81A40.71,40.71,0,0,1,34.79,44.15Z"/><path class="cls-1" d="M56.52,37.34a10.63,10.63,0,0,1-6-9.64,8.78,8.78,0,0,1,.73-3.32,21.8,21.8,0,0,1,1.46-2.63A6.21,6.21,0,0,0,53.9,18,9.93,9.93,0,0,0,53.57,16a20,20,0,0,0-.68-2.31c-.5-1.48-.92-2.83-1.33-4.19a29.39,29.39,0,0,0-1.7-4.13c-.72-1.45-1.65-2.95-2.61-4.74L47.62,0a12.22,12.22,0,0,1,5.77,1.86,14,14,0,0,1,4.47,4.55,13.41,13.41,0,0,1,1.85,6c.07,1,.07,2,0,3a22.89,22.89,0,0,1-.29,3.27A10.94,10.94,0,0,1,58.29,22a14.15,14.15,0,0,1-1.9,2.58c-1.33,1.37-2.08,2.14-2.42,3.5a8,8,0,0,0-.22,2.21,9.32,9.32,0,0,0,.43,2.3,10.54,10.54,0,0,0,2.7,4.16Z"/><path class="cls-1" d="M63.28,42.18c-.34-.94-.64-1.87-.92-2.81l-.21-.7-.1-.36a.88.88,0,0,0-.09-.26c-.09-.14-.18-.17-.35-.3a22.25,22.25,0,0,0-1.94-1.09,11.06,11.06,0,0,1-2.79-2.11,7.66,7.66,0,0,1-1.23-1.77L55.16,32c-.14-.29-.3-.58-.45-.9A6.9,6.9,0,0,1,54.12,29a5.35,5.35,0,0,1,.32-2.36,5.82,5.82,0,0,1,3.07-3.25,5,5,0,0,1,4-.05l.31.62a23.88,23.88,0,0,0-.61,3.16,3.59,3.59,0,0,0,.17,1.48c.1.26-.15.49-.33,1.09a3,3,0,0,0-.08,1,1.79,1.79,0,0,0,.17.66,6.21,6.21,0,0,0,1.34,1.67,14.32,14.32,0,0,1,2.24,2.63,4.18,4.18,0,0,1,.59,2.3,1.27,1.27,0,0,1-.07.44l-.11.36-.2.7c-.28.94-.59,1.87-.93,2.81Z"/></g></g></svg>