<svg xmlns="http://www.w3.org/2000/svg" viewBox="0 0 111.01 124.71"><defs><style>.cls-1{fill:#fff;}</style></defs><g id="Layer_2" data-name="Layer 2"><g id="Layer_1-2" data-name="Layer 1"><path class="cls-1" d="M98,49.31l.82,5.74L105,57.3V85l-.44-.26-3.06,5.16a20.68,20.68,0,0,1,3.5,2.64v23.36L88.3,109.27l-32.54,7.92L30,109.27l-24,7V88.82c.09-2.77,1.36-7,8.35-7a19.89,19.89,0,0,1,2,.11l.58-6c-.88-.08-1.74-.13-2.57-.13A16.06,16.06,0,0,0,6,77.87V57.45L27,50.93V44.68L0,53v36c0,.07,0,.15,0,.22s0,.33,0,.43V124.3l29.92-8.76,25.65,7.87,32.28-7.86L111,124.71V53.09Z"/><path class="cls-1" d="M99.23,88.74l2.25-5.56a18.84,18.84,0,0,0-7.1-1.44c-5.08,0-9.91,2.18-14.36,6.48l4.16,4.32C89,87.9,94.05,86.63,99.23,88.74Z"/><path class="cls-1" d="M42.34,84.91,39.69,90.3c2.29,1.12,4.45,2.24,6.5,3.29A128.06,128.06,0,0,0,57.9,99.16l2.18-5.59c-3.32-1.29-6.94-3.15-11.14-5.31C46.86,87.19,44.67,86.06,42.34,84.91Z"/><path class="cls-1" d="M20.18,76.43,19,82.32a50.44,50.44,0,0,1,8.29,2.49C30.44,86,33.62,87.39,37,89l2.57-5.42c-3.54-1.68-6.85-3.11-10.12-4.37A56,56,0,0,0,20.18,76.43Z"/><path class="cls-1" d="M67.83,95.33a17.8,17.8,0,0,1-5.15-.86L61,100.22a23.94,23.94,0,0,0,6.87,1.11c5.18,0,9.86-2.19,14.32-6.69l-4.27-4.22C74.52,93.81,71.42,95.33,67.83,95.33Z"/><path class="cls-1" d="M29,53.81c1.13,26.56,32.48,32.6,46.3,17.39C86.62,69.29,99.83,60,96.16,50.45L96,50a11.09,11.09,0,0,0-1.29-2.83L94.23,47a7.89,7.89,0,0,0-6.38-3,12.6,12.6,0,0,0-1.49.11l0,0-.26.07A17.83,17.83,0,0,0,83,45l-2.18.55c-.24-.9-.43-1.42-.43-1.42,0-1.68-8.35-3.09-19.56-3.46,0-.11.08-.21.11-.32l.2-.7.1-.36a1,1,0,0,0,.08-.44,4.18,4.18,0,0,0-.59-2.3,14.32,14.32,0,0,0-2.24-2.63,6.21,6.21,0,0,1-1.34-1.67,1.79,1.79,0,0,1-.17-.66,3,3,0,0,1,.08-1c.18-.6.43-.83.33-1.09a3.59,3.59,0,0,1-.17-1.48,23.88,23.88,0,0,1,.61-3.16l-.31-.62a5,5,0,0,0-4,.05,5.82,5.82,0,0,0-3.07,3.25A5.35,5.35,0,0,0,50.12,30a6.9,6.9,0,0,0,.59,2.11c.15.32.31.61.45.9l.49.81a7.66,7.66,0,0,0,1.23,1.77,11.06,11.06,0,0,0,2.79,2.11c.85.46,1.6.84,1.94,1.09.17.13.26.16.35.3a.88.88,0,0,1,.09.26l.1.36.21.7c0,.09.06.17.08.26q-1.65,0-3.36,0c-14,0-25.29,1.59-25.29,3.55A43,43,0,0,0,29,50.41l0,.21v.1h0C29,51.77,28.94,52.81,29,53.81Zm59.86,2.3c-1.66,2.41-4.9,4.7-8.51,6.29a29.24,29.24,0,0,0,1.37-7.84q0-.64,0-1.26c2.1-1.21,4.41-2.19,6.06-2.21l1,.36A4.76,4.76,0,0,1,89.62,53C89.77,53.35,90.12,54.26,88.85,56.11Z"/><path class="cls-1" d="M46.56,9.46c.41,1.36.83,2.71,1.33,4.19A20,20,0,0,1,48.57,16,9.93,9.93,0,0,1,48.9,18a6.21,6.21,0,0,1-1.22,3.72,21.8,21.8,0,0,0-1.46,2.63,9,9,0,0,0-.74,3.32,10.66,10.66,0,0,0,6,9.64l.36-.6a10.54,10.54,0,0,1-2.7-4.16,9.32,9.32,0,0,1-.43-2.3A8.38,8.38,0,0,1,49,28.07c.35-1.36,1.1-2.13,2.43-3.5A14.15,14.15,0,0,0,53.29,22a10.94,10.94,0,0,0,1.17-3.33,22.89,22.89,0,0,0,.29-3.27c0-1,0-2,0-3a13.41,13.41,0,0,0-1.85-6,14.09,14.09,0,0,0-4.47-4.55A12.22,12.22,0,0,0,42.62,0l-.37.59c1,1.79,1.89,3.29,2.61,4.74A29.39,29.39,0,0,1,46.56,9.46Z"/></g></g></svg>